<svg xmlns="http://www.w3.org/2000/svg" xmlns:xlink="http://www.w3.org/1999/xlink" width="24" height="34" viewBox="0 0 24 34">
    <filter filterUnits="objectBoundingBox" x="0" y="0" width="100" height="97.14" id="c">
        <feImage width="24" height="35" xlink:href="#a"/>
        <feComposite in="grImage1" in2="SourceAlpha" operator="in" result="grOverlay1"/>
        <feBlend in="grOverlay1" in2="SourceGraphic" result="gradientOverlay1"/>
    </filter>
    <linearGradient id="b" x1="50%" y1="0%" x2="50%" y2="100%">
        <stop offset="0%" stop-color="#2B43AC"/>
        <stop offset=".244%" stop-color="#2B43AC"/>
        <stop offset="100%" stop-color="#132679"/>
    </linearGradient>
    <defs>
        <path id="a" fill="url(#b)" d="M0 0h24v35H0z"/>
    </defs>
    <path d="M20.12 4.36C17.95 2.17 15.07.96 12 .96c-3.07 0-5.95 1.21-8.12 3.4C-.13 8.4-.63 16.02 2.8 20.63l9.2 13.4 9.18-13.38c3.45-4.63 2.95-12.25-1.06-16.29zm-8.01 12.31c-2.31 0-4.2-1.9-4.2-4.23 0-2.33 1.89-4.23 4.2-4.23 2.31 0 4.19 1.9 4.19 4.23 0 2.33-1.88 4.23-4.19 4.23z" filter="url(#c)"/>
</svg>
