<svg xmlns="http://www.w3.org/2000/svg" width="21" height="27" viewBox="0 0 21 27">
    <path d="M11.05 26.18c-.14.15-.33.23-.54.23a.72.72 0 0 1-.53-.23C9.59 25.77.45 16.03.45 10.65.45 5.1 4.97.59 10.51.59c5.55 0 10.07 4.51 10.07 10.06 0 5.38-9.14 15.12-9.53 15.53zm-.54-24.12c-4.73 0-8.58 3.85-8.58 8.59 0 3.72 5.77 10.84 8.58 13.94 2.82-3.11 8.59-10.22 8.59-13.94 0-4.74-3.85-8.59-8.59-8.59zm0 11.73c-2.34 0-4.25-1.9-4.25-4.25s1.91-4.26 4.25-4.26c2.35 0 4.26 1.91 4.26 4.26 0 2.35-1.91 4.25-4.26 4.25zm0-7.03c-1.53 0-2.78 1.25-2.78 2.78 0 1.53 1.25 2.78 2.78 2.78a2.78 2.78 0 0 0 0-5.56z" fill="#FFF"/>
</svg>
