<svg xmlns="http://www.w3.org/2000/svg" width="60" height="60" viewBox="0 0 60 60">
    <path d="M50.76 59.5H8.89c-4.72 0-8.56-3.84-8.56-8.56V9.06C.33 4.34 4.17.5 8.89.5h41.87c4.73 0 8.57 3.84 8.57 8.56v41.88c0 4.72-3.84 8.56-8.57 8.56zm6.67-50.44c0-3.67-2.99-6.66-6.67-6.66H8.89c-3.67 0-6.66 2.99-6.66 6.66v41.88c0 3.67 2.99 6.66 6.66 6.66h41.87c3.68 0 6.67-2.99 6.67-6.66V9.06zm-2.86 21.89H30.78v23.79c0 .53-.43.95-.95.95-.53 0-.95-.42-.95-.95V30.95H5.09c-.53 0-.95-.42-.95-.95s.42-.95.95-.95h23.79V5.26c0-.53.42-.95.95-.95.52 0 .95.42.95.95v23.79a39826182966641850 39826182966641850 0 0 0 23.79 1.9zm-2.85-14.27H36.49a.95.95 0 0 1-.95-.95c0-.53.42-.96.95-.96h15.23a.956.956 0 0 1 0 1.91zm-28.55 0h-6.66v6.66a.956.956 0 0 1-1.91 0v-6.66H7.94a.956.956 0 0 1 0-1.91h6.66V8.11a.956.956 0 0 1 1.91 0v6.66h6.66a.956.956 0 0 1 0 1.91zm-14 21.21a.96.96 0 0 1 1.35 0l5.03 5.04 5.04-5.04a.96.96 0 0 1 1.35 0c.37.37.37.98 0 1.35l-5.04 5.03 5.04 5.04c.37.37.37.97 0 1.35-.19.18-.43.28-.68.28-.24 0-.48-.1-.67-.28l-5.04-5.04-5.03 5.04c-.19.18-.43.28-.67.28-.25 0-.49-.1-.68-.28a.96.96 0 0 1 0-1.35l5.04-5.04-5.04-5.03a.96.96 0 0 1 0-1.35zm32.08.67a2.855 2.855 0 1 1 5.71.01 2.855 2.855 0 0 1-5.71-.01zm3.8 0a.95.95 0 1 0-1.9 0c0 .53.43.96.95.96.53 0 .95-.43.95-.96zm-8.56 4.76h15.23a.956.956 0 0 1 0 1.91H36.49c-.53 0-.95-.43-.95-.96 0-.52.42-.95.95-.95zm7.61 3.81c1.58 0 2.86 1.28 2.86 2.85a2.86 2.86 0 0 1-2.86 2.86 2.855 2.855 0 0 1 0-5.71zm0 3.81c.53 0 .95-.43.95-.96a.95.95 0 1 0-1.9 0c0 .53.43.96.95.96z" fill="#E4BC41"/>
</svg>
