<svg xmlns="http://www.w3.org/2000/svg" width="23" height="23" viewBox="0 0 23 23">
    <path d="M21.63 10.48c-.03.01-.07.01-.1.01-.31 0-.57-.21-.63-.52-.36-2.18-1.39-4.16-2.97-5.74a10.578 10.578 0 0 0-5.74-2.98.635.635 0 0 1-.52-.73c.06-.34.39-.57.73-.51 2.43.41 4.65 1.56 6.42 3.33 1.76 1.76 2.91 3.98 3.33 6.42.06.34-.18.67-.52.72zm-9.41-6.46c1.48.25 2.83.95 3.9 2.02a7.186 7.186 0 0 1 2.02 3.9c.06.35-.17.68-.51.73-.04.01-.07.01-.11.01-.3 0-.57-.21-.62-.52a5.978 5.978 0 0 0-1.67-3.22c-.89-.89-2-1.47-3.23-1.68a.618.618 0 0 1-.51-.72c.07-.35.39-.57.73-.52zM8.04 8.18c-.35.35-.7.72-1.08 1.07.28.63.67 1.25 1.26 1.99 1.2 1.48 2.46 2.62 3.84 3.5.14.08.29.16.46.25.12.06.24.12.36.19l1.48-1.48c.47-.47 1.02-.72 1.59-.72.58 0 1.13.26 1.58.73l2.57 2.57c.47.47.72 1.03.72 1.6 0 .58-.25 1.14-.71 1.62-.2.21-.41.41-.61.6-.29.29-.57.55-.81.85-.01.01-.02.01-.02.02-.71.77-1.62 1.16-2.7 1.16-.09 0-.19 0-.29-.01-1.6-.1-3.04-.7-4.11-1.21-2.81-1.36-5.27-3.29-7.32-5.73-1.68-2.03-2.81-3.92-3.57-5.96-.31-.84-.71-2.11-.6-3.47C.16 4.9.5 4.18 1.1 3.58l1.58-1.6.01-.01c.47-.45 1.02-.69 1.59-.69.57 0 1.11.24 1.56.69.31.28.6.58.88.87l.44.44 1.27 1.27c.98.98.98 2.26 0 3.24l-.39.39zm-.5-2.73L6.27 4.17c-.15-.15-.3-.3-.44-.45-.29-.3-.56-.57-.84-.84-.01 0-.01-.01-.02-.01-.15-.15-.39-.33-.68-.33-.24 0-.48.12-.71.33l-1.59 1.6c-.39.38-.6.84-.65 1.38-.07.86.09 1.76.53 2.93.7 1.9 1.77 3.68 3.36 5.6 1.93 2.3 4.25 4.12 6.89 5.4.97.46 2.26 1 3.64 1.09h.22c.73 0 1.28-.23 1.75-.74.29-.34.6-.64.9-.93.21-.2.39-.38.57-.57.48-.5.48-.99 0-1.46l-2.57-2.58c-.01 0-.01 0-.01-.01-.15-.16-.39-.34-.68-.34-.29 0-.54.19-.7.35l-1.6 1.6c-.08.08-.32.32-.71.32-.15 0-.3-.04-.46-.12l-.06-.03c-.13-.08-.29-.16-.46-.25-.18-.09-.38-.19-.57-.31-1.5-.95-2.86-2.19-4.15-3.77v-.01c-.71-.9-1.18-1.66-1.51-2.46-.01-.01-.01-.03-.02-.04-.08-.27-.15-.66.25-1.06 0-.01.01-.02.02-.02.41-.37.78-.74 1.17-1.14.14-.14.27-.27.4-.41.5-.49.5-.95 0-1.44z" fill="#FFF"/>
</svg>
