<svg xmlns="http://www.w3.org/2000/svg" width="58" height="58" viewBox="0 0 58 58">
    <path d="M49.15 49.15C43.76 54.53 36.62 57.5 29 57.5c-7.62 0-14.76-2.97-20.15-8.35C3.47 43.76.5 36.62.5 29c0-7.62 2.97-14.76 8.35-20.15C14.24 3.47 21.38.5 29 .5c7.62 0 14.76 2.97 20.15 8.35C54.53 14.24 57.5 21.38 57.5 29c0 7.62-2.97 14.76-8.35 20.15zM29 1.9C14.06 1.9 1.9 14.06 1.9 29c0 14.94 12.16 27.1 27.1 27.1 14.94 0 27.1-12.16 27.1-27.1C56.1 14.06 43.94 1.9 29 1.9zm.49 33.09c-.28.27-.72.27-.99 0l-8.8-8.79a.683.683 0 0 1-.21-.49c0-.18.07-.35.21-.49.28-.27.73-.27.98-.02l8.31 8.31 8.3-8.31c.28-.27.73-.27 1 0 .26.28.26.73 0 1l-8.8 8.79z" fill="#e5bd42"/>
</svg>
