<svg xmlns="http://www.w3.org/2000/svg" width="36" height="36" viewBox="0 0 36 36">
    <path d="M18 36C8.07 36 0 27.93 0 18S8.07 0 18 0c9.92 0 18 8.07 18 18s-8.08 18-18 18zm0-34.62C8.84 1.38 1.38 8.84 1.38 18S8.84 34.62 18 34.62 34.62 27.16 34.62 18 27.16 1.38 18 1.38zm6.72 23.34c-.14.14-.31.2-.49.2s-.35-.06-.49-.2L18 18.98l-5.74 5.74c-.14.14-.31.2-.49.2s-.36-.06-.49-.2a.694.694 0 0 1 0-.98L17.02 18l-5.74-5.74a.694.694 0 0 1 .98-.98L18 17.02l5.74-5.74a.694.694 0 0 1 .98.98L18.98 18l5.74 5.74c.27.27.27.71 0 .98z" fill="#FFF"/>
</svg>
