<svg xmlns="http://www.w3.org/2000/svg" width="60" height="60" viewBox="0 0 60 60">
    <path d="M60 30C60 13.46 46.54 0 30 0S0 13.46 0 30c0 6.14 1.86 11.86 5.04 16.62v.02l.2.3c.18.26.38.51.56.77.08.1.16.21.23.31.24.32.49.63.74.93l.21.27c1.16 1.38 2.43 2.65 3.8 3.79a21.647 21.647 0 0 0 1.15.92c.13.09.25.18.38.28.29.21.58.42.88.63.16.1.33.21.49.31.41.27.83.53 1.26.78.3.18.6.35.9.51.19.1.38.19.56.29.33.16.65.33.98.48.17.08.34.15.51.23.38.17.77.33 1.16.48l.36.15c1.07.4 2.18.75 3.3 1.03.05.01.1.02.14.03.5.13 1 .23 1.51.33.14.03.27.05.41.07.02.01.04.01.06.01l-.01.02.53.08c.12.02.24.03.36.05l.11.01c.02.01.04.01.06.01.06.01.11.01.17.02l.49.06c.39.05.79.09 1.19.12.09 0 .17.01.26.02.09 0 .19.01.28.02.58.03 1.15.05 1.73.05.58 0 1.15-.02 1.72-.05.1-.01.2-.02.3-.02l.25-.03c.4-.03.8-.06 1.19-.11l.49-.06c.07-.01.13-.02.2-.02.02-.01.04-.01.06-.01l.1-.01c.11-.02.23-.03.34-.05l.56-.08v-.02c.01 0 .01-.01.02-.01.14-.02.27-.04.41-.07.51-.1 1.01-.21 1.51-.33.04-.01.09-.02.14-.03 1.12-.28 2.23-.63 3.3-1.04.12-.04.24-.09.36-.14.39-.15.78-.32 1.16-.48.17-.08.34-.15.51-.23.33-.16.65-.32.98-.48.19-.1.37-.19.56-.29.3-.16.6-.34.9-.51.43-.25.85-.51 1.26-.78.17-.1.33-.21.49-.32.3-.2.59-.41.88-.62.13-.1.26-.19.38-.28.31-.23.61-.47.91-.71l.24-.21c1.37-1.14 2.64-2.41 3.8-3.8.07-.08.14-.17.21-.26.25-.3.5-.61.74-.93.07-.1.15-.21.23-.31.18-.26.38-.51.56-.77l.2-.3v-.02A29.834 29.834 0 0 0 60 30zm-2 0c0 4.97-1.31 9.64-3.59 13.69a13.645 13.645 0 0 0-11.99-9.64l-.03-.05h-1.08-4.78-1.16c-.21 0-.37-.16-.37-.37v-.64c0-.18.15-.3.28-.35 6.43-2.42 10.45-12.47 9.61-19.49-.44-3.66-2.25-6.93-4.88-9.3C50.52 7.89 58 18.09 58 30zm-5.46 16.59c-.08.11-.16.22-.25.32-.22.3-.44.59-.68.87-.02.03-.05.06-.07.09-.81.97-1.68 1.89-2.61 2.74-.06.05-.11.1-.17.15-.28.26-.56.5-.85.74-.09.07-.18.15-.27.22-.28.23-.56.45-.85.67-.09.07-.19.14-.29.21-.17.12-.33.24-.5.36V48h-2v6.23c-.04.03-.08.05-.12.07-.25.15-.51.29-.77.43-.17.09-.35.18-.53.27-.31.16-.61.3-.92.44l-.45.21c-.38.17-.77.33-1.16.48l-.24.09c-1 .38-2.03.69-3.07.95-.07.02-.15.04-.22.05-.43.11-.87.2-1.31.28l-.3.06L33.16 46H34v-2.47l4.47 2.98 4.17-10.43c5.28.6 9.53 4.68 10.25 10.01-.12.17-.23.34-.35.5zM23.48 57.23l-.22-.06c-1.04-.26-2.07-.57-3.07-.95l-.24-.09c-.39-.15-.78-.31-1.16-.48-.15-.07-.3-.14-.45-.2-.31-.15-.62-.29-.92-.44-.18-.1-.36-.19-.53-.28-.26-.14-.52-.28-.77-.43a.746.746 0 0 1-.12-.07V48h-2v4.96c-.17-.12-.34-.24-.5-.36l-.3-.21c-.28-.22-.56-.44-.84-.67l-.28-.22c-.28-.24-.57-.48-.84-.73-.06-.06-.11-.11-.17-.16-.93-.85-1.8-1.77-2.61-2.74-.02-.03-.05-.06-.07-.09-.24-.28-.46-.57-.69-.87-.08-.1-.16-.21-.24-.32-.12-.16-.23-.33-.35-.5.72-5.33 4.97-9.41 10.25-10.01l4.17 10.43L26 43.53V46h.84l-1.72 11.57c-.11-.02-.22-.04-.34-.06-.43-.09-.87-.18-1.3-.28zm2.01-26.44C20.71 29.02 17 20.85 17 15c0-.13.01-.25.02-.38l.73-.9c1.65-1.97 4.47-2.53 7.01-1.4 1.02.45 2.11.68 3.24.68 2.97 0 5.64-1.62 7.03-4.18 3.18 1.04 6.02 3.01 7.94 5.49.29 6.1-3.29 14.54-8.4 16.46-.95.36-1.57 1.23-1.57 2.22v.64c0 1.15.82 2.11 1.9 2.32L33.2 38h-6.4l-1.7-2.05c1.08-.21 1.9-1.17 1.9-2.32V33c0-.99-.61-1.87-1.51-2.21zM30.04 2h.03c.49 0 .97.03 1.43.08 4.96.56 9.13 4.01 10.75 8.59-2.11-1.84-4.7-3.26-7.49-4.02l-.86-.24-.34.83A5.974 5.974 0 0 1 28 11c-.85 0-1.66-.17-2.43-.51-2.76-1.23-5.78-.89-8.01.73.61-2.03 1.72-3.88 3.26-5.42C23.27 3.35 26.53 2 30.04 2zM34 40.16L37.47 36h3.05l-2.99 7.48L34 41.13v-.97zm-1.64 17.73c-.27.02-.54.05-.8.06-.52.03-1.04.05-1.55.05h-.11c-.48-.01-.97-.02-1.45-.05-.26-.01-.53-.04-.79-.06-.19-.02-.37-.03-.56-.05L28.86 46h2.28l1.78 11.84c-.18.02-.37.03-.56.05zM32 44h-4v-1.8V40h4v4zm-6-3.84v.97l-3.53 2.35L19.48 36h3.05L26 40.16zm-6.02-36.3c-.19.17-.39.34-.58.52C16.56 7.22 15 10.99 15 15c0 6.63 4.19 15.59 9.8 17.67.12.04.2.18.2.33v.63c0 .21-.16.37-.37.37h-1.16-4.78-.55c-.09 0-.19.01-.28.04-5.78.34-10.63 4.24-12.27 9.65A27.828 27.828 0 0 1 2 30C2 18.09 9.48 7.9 19.98 3.86z" fill="#4159BF"/>
</svg>
