<svg xmlns="http://www.w3.org/2000/svg" width="55" height="58" viewBox="0 0 55 58">
    <path d="M55 35c0 2.44-1.76 4.48-4.07 4.91.67.85 1.07 1.93 1.07 3.09 0 2.44-1.76 4.48-4.07 4.91A5.002 5.002 0 0 1 44 56H16v2H0V20h16v2h1c.09-.02 1.67-.01 3.32-1.64C22 18.69 24 15.02 24 7c0-6.09 2.68-7 4.27-7h.24c3.36 0 6.45 3.91 6.97 7.4.22 1.47.86 6.64-.12 11.19L34.63 22H49c2.76 0 5 2.24 5 5 0 1.5-.67 2.85-1.72 3.77C53.62 31.34 55 32.5 55 35zM14 22H2v34h12V22zm35 2H32.16l1.25-5.83c.9-4.22.3-9.09.09-10.48C33.12 5.13 30.74 2 28.51 2h-.24C26.29 2 26 5.13 26 7c0 7.06-1.46 12.06-4.35 14.85-2.26 2.2-4.58 2.17-4.68 2.15H16v30h28c1.65 0 3-1.35 3-3s-1.35-3-3-3h-7c-.55 0-1-.45-1-1s.45-1 1-1h10c1.65 0 3-1.35 3-3s-1.35-3-3-3h-8c-.55 0-1-.45-1-1s.45-1 1-1h11c1.65 0 3-1.35 3-3 0-1.41-.54-2.42-3.15-2.81-1.03-.15-2.97-.19-3.85-.19h-7c-.55 0-1-.45-1-1s.45-1 1-1h10c1.65 0 3-1.35 3-3s-1.35-3-3-3zM8 43c2.76 0 5 2.24 5 5s-2.24 5-5 5-5-2.24-5-5 2.24-5 5-5zm0 8c1.65 0 3-1.35 3-3s-1.35-3-3-3-3 1.35-3 3 1.35 3 3 3z" fill="#4159BF"/>
</svg>
