<svg xmlns="http://www.w3.org/2000/svg" width="48" height="60" viewBox="0 0 48 60">
    <path d="M5 60v-5H0V0h43v14.59l5 5V60H5zM41 2H2v51h3V5h28.41L41 12.59V2zm2 15.41l-9-9V19h10.59L43 17.41zM46 21H32V7H7v51h39V21zm-32-4h10c.55 0 1 .45 1 1s-.45 1-1 1H14c-.55 0-1-.45-1-1s.45-1 1-1zm0 8h25c.55 0 1 .45 1 1s-.45 1-1 1H14c-.55 0-1-.45-1-1s.45-1 1-1zm0 8h25c.55 0 1 .45 1 1s-.45 1-1 1H14c-.55 0-1-.45-1-1s.45-1 1-1zm0 8h25c.55 0 1 .45 1 1s-.45 1-1 1H14c-.55 0-1-.45-1-1s.45-1 1-1zm0 8h25c.55 0 1 .45 1 1s-.45 1-1 1H14c-.55 0-1-.45-1-1s.45-1 1-1z" fill="#4159BF"/>
</svg>
