<svg xmlns="http://www.w3.org/2000/svg" width="21" height="21" viewBox="0 0 21 21">
    <path d="M17.75 3.26C15.82 1.33 13.25.27 10.51.27c-2.73 0-5.3 1.06-7.23 2.99-1.93 1.94-3 4.51-3 7.24 0 2.73 1.07 5.3 3 7.24 1.93 1.93 4.5 2.99 7.23 2.99 1.39 0 2.73-.27 3.99-.8l-.49-1.17c-1.11.47-2.28.71-3.5.71-4.94 0-8.96-4.03-8.96-8.97 0-4.95 4.02-8.97 8.96-8.97 4.95 0 8.97 4.02 8.97 8.97 0 2.17-1.33 3.15-2.56 3.15-1.24 0-2.57-.98-2.57-3.15 0-2.11-1.72-3.83-3.84-3.83-2.11 0-3.83 1.72-3.83 3.83a3.837 3.837 0 0 0 6.9 2.3c.18.36.4.69.68.97.7.74 1.64 1.15 2.66 1.15 1.01 0 1.95-.41 2.65-1.15.77-.8 1.18-1.94 1.18-3.27 0-2.73-1.07-5.3-3-7.24zm-7.24 9.81c-1.41 0-2.56-1.16-2.56-2.57 0-1.42 1.15-2.57 2.56-2.57a2.57 2.57 0 1 1 0 5.14z" fill="#FFF"/>
</svg>
