<svg xmlns="http://www.w3.org/2000/svg" viewBox="0 0 53 53" height="53" width="53">
    <g fill="#e8bd16" fill-rule="evenodd">
        <path d="M17.566 18.432L2.743 3.61v7.867a1.037 1.037 0 0 1-2.075 0V1.106c0-.573.465-1.038 1.037-1.038h10.372a1.038 1.038 0 0 1 0 2.074H4.209l14.824 14.824a1.038 1.038 0 0 1-1.467 1.466M47.338 47.775h-10.37a1.037 1.037 0 0 1 0-2.074h7.867L30.01 30.878a1.038 1.038 0 0 1 1.441-1.492l.026.025L46.3 44.235v-7.868a1.037 1.037 0 0 1 2.074 0v10.371c0 .573-.464 1.037-1.037 1.037M4.209 45.701h7.868a1.038 1.038 0 0 1 0 2.074H1.705a1.037 1.037 0 0 1-1.037-1.037V36.367a1.038 1.038 0 0 1 2.075 0v7.868L17.566 29.41a1.037 1.037 0 0 1 1.467 1.467L4.209 45.7M47.338 12.514a1.037 1.037 0 0 1-1.037-1.038V3.61L31.478 18.432a1.037 1.037 0 0 1-1.467-1.466L44.835 2.142h-7.868a1.038 1.038 0 0 1 0-2.074h10.371c.573 0 1.037.465 1.037 1.037v10.371c0 .573-.464 1.038-1.037 1.038"/>
    </g>
</svg>
