<svg xmlns="http://www.w3.org/2000/svg" width="52" height="59" viewBox="0 0 52 59">
    <path d="M10 47c0 .55-.45 1-1 1v5c0 .55-.45 1-1 1s-1-.45-1-1v-5c-.55 0-1-.45-1-1s.45-1 1-1v-8c-.55 0-1-.45-1-1s.45-1 1-1v-8c-.55 0-1-.45-1-1s.45-1 1-1v-8c-.55 0-1-.45-1-1s.45-1 1-1v-4c0-.55.45-1 1-1s1 .45 1 1v4c.55 0 1 .45 1 1s-.45 1-1 1v8c.55 0 1 .45 1 1s-.45 1-1 1v8c.55 0 1 .45 1 1s-.45 1-1 1v8c.55 0 1 .45 1 1zm5 1h-2c-.55 0-1-.45-1-1s.45-1 1-1h2c.55 0 1 .45 1 1s-.45 1-1 1zm0-10h-2c-.55 0-1-.45-1-1s.45-1 1-1h2c.55 0 1 .45 1 1s-.45 1-1 1zm0-20h-2c-.55 0-1-.45-1-1s.45-1 1-1h2c.55 0 1 .45 1 1s-.45 1-1 1zm0 10h-2c-.55 0-1-.45-1-1s.45-1 1-1h2c.55 0 1 .45 1 1s-.45 1-1 1zm28-12h2c.55 0 1 .45 1 1s-.45 1-1 1h-2c-.55 0-1-.45-1-1s.45-1 1-1zm0 20h2c.55 0 1 .45 1 1s-.45 1-1 1h-2c-.55 0-1-.45-1-1s.45-1 1-1zm0-10h2c.55 0 1 .45 1 1s-.45 1-1 1h-2c-.55 0-1-.45-1-1s.45-1 1-1zm-6-10h2c.55 0 1 .45 1 1s-.45 1-1 1h-2c-.55 0-1-.45-1-1s.45-1 1-1zm0 20h2c.55 0 1 .45 1 1s-.45 1-1 1h-2c-.55 0-1-.45-1-1s.45-1 1-1zm0-10h2c.55 0 1 .45 1 1s-.45 1-1 1h-2c-.55 0-1-.45-1-1s.45-1 1-1zm2.41 33H38 0V4h12.1c.47-2.28 2.49-4 4.9-4 2.76 0 5 2.24 5 5s-2.24 5-5 5c-.55 0-1-.45-1-1s.45-1 1-1c1.65 0 3-1.35 3-3s-1.35-3-3-3c-1.3 0-2.4.84-2.82 2H16c.55 0 1 .45 1 1s-.45 1-1 1h-3H2v10h1c.55 0 1 .45 1 1s-.45 1-1 1H2v8h1c.55 0 1 .45 1 1s-.45 1-1 1H2v8h1c.55 0 1 .45 1 1s-.45 1-1 1H2v8h1c.55 0 1 .45 1 1s-.45 1-1 1H2v9h36V45h12v-7h-1c-.55 0-1-.45-1-1s.45-1 1-1h1v-8h-1c-.55 0-1-.45-1-1s.45-1 1-1h1v-8h-1c-.55 0-1-.45-1-1s.45-1 1-1h1V6H39.9c-.47 2.28-2.49 4-4.9 4-.55 0-1-.45-1-1s.45-1 1-1c1.65 0 3-1.35 3-3s-1.35-3-3-3c-.55 0-1-.45-1-1s.45-1 1-1c2.41 0 4.43 1.72 4.9 4H52v55H39.41zM40 47v8.59L48.59 47H40zm10 1.41L41.41 57H50v-8.59zM31 16h2c.55 0 1 .45 1 1s-.45 1-1 1h-2c-.55 0-1-.45-1-1s.45-1 1-1zm0 10h2c.55 0 1 .45 1 1s-.45 1-1 1h-2c-.55 0-1-.45-1-1s.45-1 1-1zm0 20h2c.55 0 1 .45 1 1s-.45 1-1 1h-2c-.55 0-1-.45-1-1s.45-1 1-1zm0-10h2c.55 0 1 .45 1 1s-.45 1-1 1h-2c-.55 0-1-.45-1-1s.45-1 1-1zm-2-26c-.55 0-1-.45-1-1s.45-1 1-1c1.65 0 3-1.35 3-3s-1.35-3-3-3c-.55 0-1-.45-1-1s.45-1 1-1c2.76 0 5 2.24 5 5s-2.24 5-5 5zm-4 6h2c.55 0 1 .45 1 1s-.45 1-1 1h-2c-.55 0-1-.45-1-1s.45-1 1-1zm0 10h2c.55 0 1 .45 1 1s-.45 1-1 1h-2c-.55 0-1-.45-1-1s.45-1 1-1zm0 20h2c.55 0 1 .45 1 1s-.45 1-1 1h-2c-.55 0-1-.45-1-1s.45-1 1-1zm0-10h2c.55 0 1 .45 1 1s-.45 1-1 1h-2c-.55 0-1-.45-1-1s.45-1 1-1zm-6-20h2c.55 0 1 .45 1 1s-.45 1-1 1h-2c-.55 0-1-.45-1-1s.45-1 1-1zm0 10h2c.55 0 1 .45 1 1s-.45 1-1 1h-2c-.55 0-1-.45-1-1s.45-1 1-1zm0 20h2c.55 0 1 .45 1 1s-.45 1-1 1h-2c-.55 0-1-.45-1-1s.45-1 1-1zm0-10h2c.55 0 1 .45 1 1s-.45 1-1 1h-2c-.55 0-1-.45-1-1s.45-1 1-1zm4-26c-.55 0-1-.45-1-1s.45-1 1-1c1.65 0 3-1.35 3-3s-1.35-3-3-3c-.55 0-1-.45-1-1s.45-1 1-1c2.76 0 5 2.24 5 5s-2.24 5-5 5z" fill="#4159BF"/>
</svg>
