<svg xmlns="http://www.w3.org/2000/svg" width="60" height="44" viewBox="0 0 60 44">
    <path d="M55.78 44H4.22A4.22 4.22 0 0 1 0 39.78V4.22A4.22 4.22 0 0 1 4.22 0h51.56A4.22 4.22 0 0 1 60 4.22v35.56A4.22 4.22 0 0 1 55.78 44zM58 4.22C58 2.99 57.01 2 55.78 2H4.22C2.99 2 2 2.99 2 4.22v35.56C2 41.01 2.99 42 4.22 42h51.56c1.23 0 2.22-.99 2.22-2.22V4.22zM52 32c-.26 0-.52-.11-.71-.29-.18-.19-.29-.45-.29-.71 0-.26.11-.52.29-.71.37-.37 1.04-.37 1.42 0 .18.19.29.45.29.71 0 .26-.11.52-.29.71-.19.18-.45.29-.71.29zm0-5H30c-.55 0-1-.45-1-1s.45-1 1-1h22c.55 0 1 .45 1 1s-.45 1-1 1zm0-6H30c-.55 0-1-.45-1-1s.45-1 1-1h22c.55 0 1 .45 1 1s-.45 1-1 1zm-7-6h-1c-.55 0-1-.45-1-1s.45-1 1-1h1c.55 0 1 .45 1 1s-.45 1-1 1zm-5 0H30c-.55 0-1-.45-1-1s.45-1 1-1h10c.55 0 1 .45 1 1s-.45 1-1 1zM15 36C5 36 5 34.12 5 33.32v-1.33c0-1.57.85-3.01 2.23-3.76L11 26.38V26c-1.63-.89-2.77-2.35-3.41-4.36A2.99 2.99 0 0 1 6 19v-1c0-.92.42-1.77 1.13-2.34.14-.94.37-1.83.7-2.64.15-.37.28-.64.38-.86.27-.58.27-.58.08-1.55-.1-.48-.16-.92-.2-1.29-.06-.54.23-1.04.73-1.25.5-.2 1.07-.05 1.4.38.2.24.51.51.92.79 1.09.73 2.36.81 3.22.74.21-.02.42-.03.64-.03 4.59 0 7.22 1.92 7.85 5.7A2.97 2.97 0 0 1 24 18v1c0 1.12-.62 2.12-1.59 2.64-.64 2.01-1.78 3.47-3.41 4.36v.39l3.64 1.86c1.45.73 2.36 2.19 2.36 3.82v1.25c0 .8 0 2.68-10 2.68zm8-3.93c0-.87-.48-1.65-1.26-2.04l-3.78-1.93c-.59-.3-.96-.9-.96-1.57v-1.81l.6-.26c1.52-.66 2.51-1.9 3.02-3.82l.14-.53.53-.16c.42-.13.71-.52.71-.95v-1c0-.36-.21-.7-.54-.88l-.47-.25-.06-.52c-.36-3.04-2.19-4.4-5.93-4.4-.16 0-.32.01-.48.02-1.53.12-2.94-.17-4.12-.84.09.77-.04 1.15-.38 1.88-.09.2-.2.44-.33.76-.32.77-.53 1.64-.63 2.57l-.05.53-.47.25c-.33.18-.54.52-.54.88v1c0 .43.29.82.71.95l.53.16.14.53c.51 1.92 1.5 3.16 3.01 3.82l.61.26v1.8c0 .67-.39 1.3-.99 1.59l-3.86 1.9c-.7.38-1.15 1.15-1.15 1.98v1.1c.62.38 3.16.91 8 .91s7.38-.53 8-.91v-1.02zM30 30h1c.55 0 1 .45 1 1s-.45 1-1 1h-1c-.55 0-1-.45-1-1s.45-1 1-1zm5 0h2c.55 0 1 .45 1 1s-.45 1-1 1h-2c-.55 0-1-.45-1-1s.45-1 1-1zm6 0h1c.55 0 1 .45 1 1s-.45 1-1 1h-1c-.55 0-1-.45-1-1s.45-1 1-1zm5 0h2c.55 0 1 .45 1 1s-.45 1-1 1h-2c-.55 0-1-.45-1-1s.45-1 1-1z" fill="#4159BF"/>
</svg>
