<svg xmlns="http://www.w3.org/2000/svg" width="191" height="9" viewBox="0 0 191 9">
    <path d="M180.01 9l1.91-4.5-1.91-4.5 10.65 4.5L180.01 9zM33.6 6V5l-.03 1H31.6c-.55 0-1-.45-1-1s.45-1 1-1h1.93c.55 0 1.03.45 1.03 1s-.41 1-.96 1zm-5.99 0h-1.99c-.56 0-1-.45-1-1s.44-1 1-1h1.99c.55 0 1 .45 1 1s-.45 1-1 1zm-5.99 0h-1.99c-.55 0-1-.45-1-1s.45-1 1-1h1.99c.55 0 1 .45 1 1s-.44 1-1 1zm-5.98 0h-2c-.55 0-1-.45-1-1s.45-1 1-1h2c.55 0 1 .45 1 1s-.45 1-1 1zM9.65 6H7.66c-.56 0-1-.45-1-1s.44-1 1-1h1.99c.55 0 1 .45 1 1s-.45 1-1 1zM3.66 6H1.67c-.55 0-1-.45-1-1s.45-1 1-1h1.99c.56 0 1 .45 1 1s-.44 1-1 1zM69.6 6V5l-.03 1H67.6c-.55 0-1-.45-1-1s.45-1 1-1h1.93c.55 0 1.03.45 1.03 1s-.41 1-.96 1zm-5.99 0h-1.99c-.56 0-1-.45-1-1s.44-1 1-1h1.99c.55 0 1 .45 1 1s-.45 1-1 1zm-5.99 0h-1.99c-.55 0-1-.45-1-1s.45-1 1-1h1.99c.55 0 1 .45 1 1s-.44 1-1 1zm-5.98 0h-2c-.55 0-1-.45-1-1s.45-1 1-1h2c.55 0 1 .45 1 1s-.45 1-1 1zm-5.99 0h-1.99c-.56 0-1-.45-1-1s.44-1 1-1h1.99c.55 0 1 .45 1 1s-.45 1-1 1zm-5.99 0h-1.99c-.55 0-1-.45-1-1s.45-1 1-1h1.99c.56 0 1 .45 1 1s-.44 1-1 1zM105.6 6V5l-.03 1h-1.97c-.55 0-1-.45-1-1s.45-1 1-1h1.93c.55 0 1.03.45 1.03 1s-.41 1-.96 1zm-5.99 0h-2c-.55 0-.99-.45-.99-1s.44-1 .99-1h2c.55 0 1 .45 1 1s-.45 1-1 1zm-5.99 0h-1.99c-.55 0-1-.45-1-1s.45-1 1-1h1.99c.55 0 1 .45 1 1s-.44 1-1 1zm-5.98 0h-2c-.55 0-1-.45-1-1s.45-1 1-1h2c.55 0 1 .45 1 1s-.45 1-1 1zm-5.99 0h-1.99c-.56 0-1-.45-1-1s.44-1 1-1h1.99c.55 0 1 .45 1 1s-.45 1-1 1zm-5.99 0h-1.99c-.55 0-1-.45-1-1s.45-1 1-1h1.99c.56 0 1 .45 1 1s-.44 1-1 1zM141.6 6V5l-.03 1h-1.97c-.55 0-1-.45-1-1s.45-1 1-1h1.93c.55 0 1.03.45 1.03 1s-.41 1-.96 1zm-5.99 0h-2c-.55 0-.99-.45-.99-1s.44-1 .99-1h2c.55 0 1 .45 1 1s-.45 1-1 1zm-5.99 0h-1.99c-.55 0-1-.45-1-1s.45-1 1-1h1.99c.55 0 1 .45 1 1s-.44 1-1 1zm-5.98 0h-2c-.55 0-1-.45-1-1s.45-1 1-1h2c.55 0 1 .45 1 1s-.45 1-1 1zm-5.99 0h-1.99c-.56 0-1-.45-1-1s.44-1 1-1h1.99c.55 0 1 .45 1 1s-.45 1-1 1zm-5.99 0h-1.99c-.55 0-1-.45-1-1s.45-1 1-1h1.99c.56 0 1 .45 1 1s-.44 1-1 1zM177.6 6V5l-.03 1h-1.97c-.55 0-1-.45-1-1s.45-1 1-1h1.93c.55 0 1.03.45 1.03 1s-.41 1-.96 1zm-5.99 0h-2c-.55 0-.99-.45-.99-1s.44-1 .99-1h2c.55 0 1 .45 1 1s-.45 1-1 1zm-5.99 0h-1.99c-.55 0-1-.45-1-1s.45-1 1-1h1.99c.55 0 1 .45 1 1s-.44 1-1 1zm-5.98 0h-2c-.55 0-1-.45-1-1s.45-1 1-1h2c.55 0 1 .45 1 1s-.45 1-1 1zm-5.99 0h-1.99c-.56 0-1-.45-1-1s.44-1 1-1h1.99c.55 0 1 .45 1 1s-.45 1-1 1zm-5.99 0h-1.99c-.55 0-1-.45-1-1s.45-1 1-1h1.99c.56 0 1 .45 1 1s-.44 1-1 1z" fill="#4159BF"/>
</svg>
