<svg xmlns="http://www.w3.org/2000/svg" width="50" height="61" viewBox="0 0 50 61">
    <path d="M33.43 48.21v4.33c0 2.3-1.66 4.22-3.84 4.62a4.702 4.702 0 0 1-4.62 3.85c-2.3 0-4.22-1.66-4.62-3.85a4.693 4.693 0 0 1-3.84-4.62v-4.33A24.437 24.437 0 0 1 .52 25.26C.52 11.77 11.49.8 24.97.8c13.48 0 24.45 10.97 24.45 24.46 0 10.28-6.4 19.42-15.99 22.95zm-8.46 10.91c1.22 0 2.27-.78 2.66-1.88h-5.32c.39 1.1 1.43 1.88 2.66 1.88zm0-56.44C12.53 2.68 2.4 12.81 2.4 25.26c0 9.7 6.17 18.3 15.35 21.4.15.05.27.13.37.24h8.73a.939.939 0 1 1 0 1.88h-8.46v3.76c0 1.56 1.26 2.82 2.82 2.82h7.52c1.56 0 2.82-1.26 2.82-2.82v-3.76h-.94a.939.939 0 1 1 0-1.88h1.2c.1-.11.23-.19.38-.24 9.18-3.1 15.34-11.7 15.34-21.4 0-12.45-10.12-22.58-22.56-22.58zM43.9 19.56a.84.84 0 0 1-.31.05c-.39 0-.75-.24-.89-.62-.92-2.63-2.46-5.06-4.44-7.04a18.94 18.94 0 0 0-7.03-4.44.948.948 0 0 1-.57-1.2.94.94 0 0 1 1.2-.57c2.89 1.02 5.56 2.71 7.73 4.88a20.8 20.8 0 0 1 4.89 7.74.945.945 0 0 1-.58 1.2zm-9.94-.9c.27.76.41 1.56.41 2.37 0 1.55-1.26 2.82-2.82 2.82-1.56 0-2.82-1.27-2.82-2.82 0-.16-.03-.31-.08-.46-.39-1.08-1.97-1.9-3.68-1.9-1.78 0-3.76 1.01-3.76 2.36 0 1.34 1.98 2.35 3.76 2.35 5.18 0 9.4 3.58 9.4 7.99 0 1.85-.76 3.66-2.14 5.08-1.18 1.21-2.75 2.1-4.5 2.56a2.83 2.83 0 0 1-2.76 2.24 2.82 2.82 0 0 1-2.76-2.24c-1.75-.46-3.33-1.35-4.5-2.56-1.38-1.42-2.14-3.23-2.14-5.08 0-1.55 1.26-2.82 2.82-2.82a2.83 2.83 0 0 1 2.82 2.82c0 1.35 1.98 2.36 3.76 2.36 1.77 0 3.76-1.01 3.76-2.36 0-1.34-1.99-2.35-3.76-2.35-5.19 0-9.4-3.59-9.4-7.99 0-1.86.76-3.66 2.14-5.09 1.17-1.2 2.75-2.1 4.5-2.55a2.82 2.82 0 0 1 5.52 0c3 .77 5.3 2.7 6.23 5.27zm-7.28-3.57a.943.943 0 0 1-.77-.93v-.19a.939.939 0 1 0-1.88 0v.18c0 .45-.32.84-.77.93-3.37.64-5.81 3.14-5.81 5.95 0 3.37 3.37 6.11 7.52 6.11 3.11 0 5.64 1.9 5.64 4.23 0 2.34-2.53 4.24-5.64 4.24s-5.64-1.9-5.64-4.24a.939.939 0 1 0-1.88 0c0 2.81 2.44 5.31 5.81 5.95.45.09.77.48.77.93v.18a.939.939 0 1 0 1.88 0v-.18c0-.45.32-.84.76-.93 3.37-.64 5.82-3.14 5.82-5.95 0-3.37-3.37-6.11-7.52-6.11-3.11 0-5.64-1.9-5.64-4.23 0-2.34 2.53-4.24 5.64-4.24 2.54 0 4.78 1.29 5.45 3.14.13.36.19.72.19 1.1 0 .51.42.94.94.94s.94-.43.94-.94c0-.59-.1-1.18-.3-1.74-.76-2.1-2.87-3.71-5.51-4.2z" fill="#E4BC41"/>
</svg>
