<svg xmlns="http://www.w3.org/2000/svg" width="57" height="57" viewBox="0 0 57 57">
    <path d="M56.5 28.71c0 1.28-.36 2.54-1.04 3.62a4.45 4.45 0 0 0-.64 3.24c.24 1.3.1 2.64-.4 3.86a6.806 6.806 0 0 1-2.35 2.95 4.62 4.62 0 0 0-1.85 2.81 6.79 6.79 0 0 1-1.83 3.36c-.9.89-2.02 1.51-3.24 1.8-1.18.28-2.18.94-2.81 1.86a6.756 6.756 0 0 1-3.01 2.45c-1.19.49-2.48.63-3.74.42a4.5 4.5 0 0 0-3.25.65 6.78 6.78 0 0 1-3.71 1.11c-1.29 0-2.54-.36-3.62-1.05-.99-.62-2.14-.85-3.25-.64-1.3.25-2.63.11-3.86-.4-1.19-.49-2.2-1.3-2.94-2.35a4.656 4.656 0 0 0-2.82-1.84 6.735 6.735 0 0 1-3.35-1.84 6.802 6.802 0 0 1-1.81-3.23c-.28-1.19-.94-2.18-1.85-2.81a6.798 6.798 0 0 1-2.45-3.01 6.777 6.777 0 0 1-.42-3.75c.2-1.14-.04-2.3-.65-3.24A6.732 6.732 0 0 1 .5 28.96c0-1.28.36-2.53 1.04-3.62.63-.98.85-2.14.64-3.24-.24-1.3-.1-2.64.4-3.86a6.806 6.806 0 0 1 2.35-2.95 4.62 4.62 0 0 0 1.85-2.81c.27-1.27.91-2.43 1.83-3.35.9-.9 2.02-1.52 3.24-1.81 1.18-.28 2.18-.94 2.81-1.86a6.67 6.67 0 0 1 3.01-2.44c1.19-.5 2.48-.64 3.74-.43a4.5 4.5 0 0 0 3.25-.65c1.1-.72 2.39-1.1 3.71-1.1 1.29 0 2.54.36 3.62 1.04.99.62 2.14.85 3.25.64a6.72 6.72 0 0 1 3.86.4c1.19.49 2.2 1.3 2.94 2.35.67.94 1.67 1.59 2.82 1.84 1.27.28 2.43.91 3.35 1.84.89.89 1.52 2.01 1.81 3.24.28 1.18.94 2.18 1.85 2.8a6.787 6.787 0 0 1 2.87 6.76c-.2 1.15.03 2.3.65 3.24a6.732 6.732 0 0 1 1.11 3.72zm-2.97-2.5c-.93-1.41-1.28-3.13-.99-4.84.15-.85.05-1.71-.28-2.51-.34-.83-.91-1.52-1.64-2.02-1.38-.94-2.37-2.41-2.77-4.14a4.69 4.69 0 0 0-1.22-2.18c-.62-.62-1.4-1.04-2.25-1.23a6.904 6.904 0 0 1-4.16-2.73 4.454 4.454 0 0 0-1.98-1.58c-.82-.34-1.71-.43-2.59-.27-1.66.32-3.38-.02-4.85-.94-.72-.46-1.56-.7-2.43-.7-.89 0-1.75.25-2.49.74a6.698 6.698 0 0 1-4.85.98c-.84-.14-1.71-.04-2.51.29-.82.34-1.52.91-2.02 1.64-.94 1.38-2.41 2.36-4.14 2.77-.82.19-1.57.61-2.17 1.21-.62.62-1.05 1.4-1.23 2.25-.37 1.7-1.34 3.18-2.74 4.16-.7.5-1.25 1.18-1.58 1.98-.34.82-.43 1.72-.27 2.59.32 1.67-.02 3.39-.94 4.85-.46.73-.7 1.57-.7 2.43 0 .89.26 1.76.74 2.5.93 1.41 1.28 3.13.99 4.84-.15.85-.05 1.72.28 2.51.34.83.91 1.53 1.64 2.03 1.38.94 2.37 2.41 2.77 4.13.2.82.62 1.58 1.22 2.18.62.62 1.4 1.04 2.25 1.23 1.69.37 3.17 1.34 4.16 2.74.49.7 1.18 1.24 1.97 1.57.83.34 1.72.44 2.6.27a6.784 6.784 0 0 1 4.85.95c.72.45 1.56.69 2.43.69.89 0 1.75-.25 2.49-.74a6.698 6.698 0 0 1 4.85-.98c.84.14 1.71.05 2.51-.29.82-.34 1.52-.9 2.02-1.64.94-1.38 2.41-2.36 4.14-2.77a4.51 4.51 0 0 0 2.17-1.21c.62-.62 1.05-1.4 1.23-2.25.37-1.7 1.34-3.18 2.74-4.16.7-.5 1.25-1.18 1.58-1.98.34-.82.43-1.72.26-2.59a6.77 6.77 0 0 1 .95-4.85c.46-.73.7-1.57.7-2.43 0-.89-.26-1.75-.74-2.5zm-17.8 15.45c-2.52 0-4.45-1.11-4.45-4.08V32.4c0-2.97 1.93-4.08 4.45-4.08 2.49 0 4.46 1.11 4.46 4.08v5.18c0 2.97-1.97 4.08-4.46 4.08zm2.39-9.26c0-1.52-.9-2.25-2.39-2.25-1.48 0-2.38.73-2.38 2.25v5.18c0 1.52.9 2.25 2.38 2.25 1.49 0 2.39-.73 2.39-2.25V32.4zm-15.28 9.64c-.17.38-.55.55-.96.55-.62 0-1.11-.48-1.11-1.04 0-.14.04-.31.11-.45l12.95-25.63c.18-.35.52-.52.87-.52.55 0 1.17.48 1.17 1.14 0 .17-.03.31-.1.48L22.84 42.04zM20.7 29.63c-2.52 0-4.45-1.1-4.45-4.07v-5.19c0-2.97 1.93-4.07 4.45-4.07 2.49 0 4.46 1.1 4.46 4.07v5.19c0 2.97-1.97 4.07-4.46 4.07zm2.39-9.26c0-1.52-.9-2.24-2.39-2.24-1.48 0-2.38.72-2.38 2.24v5.19c0 1.52.9 2.24 2.38 2.24 1.49 0 2.39-.72 2.39-2.24v-5.19z" fill="#4159BF"/>
</svg>
