<svg xmlns="http://www.w3.org/2000/svg" width="49" height="60" viewBox="0 0 49 60">
    <path d="M0 60V2h19V1c0-.55.45-1 1-1h9c.55 0 1 .45 1 1v1h19v58H0zM28 3V2h-7v3h7V3zm7 2V4h-5v3h-1-9-1V6 4h-5v4h21V5zm-22 5h-1V9 7H5v48h39V7h-7v3h-1-23zm34-6H37v1h9v52H3V5h9V4H2v54h45V4zm-7 18c0 .55-.45 1-1 1H10c-.55 0-1-.45-1-1s.45-1 1-1h29c.55 0 1 .45 1 1zm-17-5H10c-.55 0-1-.45-1-1s.45-1 1-1h13c.55 0 1 .45 1 1s-.45 1-1 1zM10 27h14c.55 0 1 .45 1 1s-.45 1-1 1H10c-.55 0-1-.45-1-1s.45-1 1-1zm17.29 1.71c-.18-.19-.29-.45-.29-.71 0-.27.1-.52.29-.71.38-.38 1.04-.37 1.42 0 .19.19.29.44.29.71 0 .27-.11.52-.29.71-.19.18-.44.29-.71.29a.99.99 0 0 1-.71-.29zM39 29h-7c-.55 0-1-.45-1-1s.45-1 1-1h7c.55 0 1 .45 1 1s-.45 1-1 1zm-29 4h29c.55 0 1 .45 1 1s-.45 1-1 1H10c-.55 0-1-.45-1-1s.45-1 1-1zm0 7h29c.55 0 1 .45 1 1s-.45 1-1 1H10c-.55 0-1-.45-1-1s.45-1 1-1zm0 6h13c.55 0 1 .45 1 1s-.45 1-1 1H10c-.55 0-1-.45-1-1s.45-1 1-1z" fill="#4159BF"/>
</svg>
