<svg xmlns="http://www.w3.org/2000/svg" width="21" height="21" viewBox="0 0 21 21">
    <path d="M.15 17.81l.42.45c.22.25 2.27 2.42 4.09 2.59.11.01.22.01.33.01 2.44 0 6.35-2.33 9.95-5.93 1.82-1.82 3.34-3.74 4.41-5.56.76-1.32 1.65-3.2 1.51-4.73-.17-1.82-2.34-3.86-2.59-4.09l-.44-.41-5.56 5.55 1.87 1.87-6.57 6.56-1.86-1.86-5.56 5.55zm1.78.02l3.78-3.78 1.86 1.86 8.36-8.35-1.86-1.87 3.78-3.78c.68.72 1.67 1.94 1.75 2.85.09.93-.39 2.34-1.35 3.97-1.01 1.73-2.47 3.56-4.2 5.3-3.28 3.28-7 5.56-9.06 5.56-.07 0-.15 0-.21-.01-.91-.08-2.14-1.08-2.85-1.75z" fill="#FFF"/>
</svg>
