<svg xmlns="http://www.w3.org/2000/svg" width="60" height="60" viewBox="0 0 60 60">
    <path d="M59 31h-2.03C56.46 45.09 45.09 56.46 31 56.97V59c0 .55-.45 1-1 1s-1-.45-1-1v-2.03C14.91 56.46 3.54 45.09 3.02 31H1c-.55 0-1-.45-1-1s.45-1 1-1h2.02C3.54 14.91 14.91 3.54 29 3.02V1c0-.55.45-1 1-1s1 .45 1 1v2.02C45.09 3.54 56.46 14.91 56.97 29H59c.55 0 1 .45 1 1s-.45 1-1 1zm-6-2h1.97C54.46 16.01 43.99 5.54 31 5.02V7c0 .55-.45 1-1 1s-1-.45-1-1V5.02C16.01 5.54 5.54 16.01 5.02 29H7c.55 0 1 .45 1 1s-.45 1-1 1H5.02C5.54 43.99 16.01 54.46 29 54.97V53c0-.55.45-1 1-1s1 .45 1 1v1.97C43.99 54.46 54.46 43.99 54.97 31H53c-.55 0-1-.45-1-1s.45-1 1-1zm-11 2h-5.08A7 7 0 0 1 31 36.92V42c0 .55-.45 1-1 1s-1-.45-1-1v-5.08A7 7 0 0 1 23.08 31H18c-.55 0-1-.45-1-1s.45-1 1-1h5.08A7 7 0 0 1 29 23.08V18c0-.55.45-1 1-1s1 .45 1 1v5.08A7 7 0 0 1 36.92 29H42c.55 0 1 .45 1 1s-.45 1-1 1zm-12-6c-2.76 0-5 2.24-5 5s2.24 5 5 5 5-2.24 5-5-2.24-5-5-5z" fill="#4159BF"/>
</svg>
