<svg xmlns="http://www.w3.org/2000/svg" width="816" height="1056" viewBox="0 0 20000 80000" shape-rendering="geometricPrecision" text-rendering="geometricPrecision" image-rendering="optimizeQuality" fill-rule="evenodd" clip-rule="evenodd">
    <defs>
        <style>
            .fil0{fill:#d9dada}.fil1{fill:#2b2a29;fill-rule:nonzero}
        </style>
    </defs>
    <g id="Слой_x0020_1">
        <g id="_2583410476816">
            <path class="fil0" d="M1069 12609h39336v9414H1069z"/>
            <path class="fil1" d="M-15385 18203h-1002c-2 72-9 140-20 207s-31 127-58 181c-27 61-68 108-121 143-54 36-127 53-217 54-91-1-164-20-217-56-54-36-95-84-122-141-29-59-54-140-72-242-17-103-31-219-40-352-9-132-15-273-18-421-3-149-4-300-4-453s1-303 4-452c3-150 9-290 18-421 9-133 23-250 40-352 18-102 43-183 72-242 27-58 68-105 122-141 53-37 126-56 217-57 90 0 163 17 217 51 53 33 94 79 121 140 27 53 47 114 58 181 11 66 18 135 20 207h1002c-12-241-57-458-135-648-79-192-185-349-317-474-125-120-265-211-422-271-156-60-337-89-544-89-180 1-340 24-476 69-138 45-258 105-360 182-101 76-191 162-265 257-115 142-200 313-254 510-53 198-87 425-101 682s-21 546-19 868c-2 323 5 612 19 868 14 258 48 485 101 682 54 198 139 367 254 511 74 95 164 181 265 257 102 77 222 136 360 181 136 45 296 68 476 70 207 0 388-31 544-91 157-60 297-149 422-269 132-125 238-285 317-478 78-193 123-410 135-651zm3429-1990c1-246-21-467-68-664-46-197-123-365-230-505-108-140-252-245-435-321-181-74-408-110-678-111h-1418v5023h1002v-1820h416c270-1 497-39 678-113 183-74 327-181 435-320 107-140 184-308 230-504 47-198 69-419 68-665zm-1002 0c1 80-2 161-9 244-7 81-24 156-49 224-25 70-65 125-121 166-54 42-129 63-223 65h-423v-1397h423c94 1 169 22 223 64 56 41 96 97 121 166 25 68 42 144 49 225 7 82 10 162 9 243zm3923 3422v-903h-1312v-1178h1128v-903h-1128v-1136h1312v-903h-2314v5023h2314zm4198 1016v-1919h-445v-4120h-2688v1707c0 335-17 644-51 927-35 282-82 545-144 790-62 244-136 476-221 696h-339v1919h946v-1016h1997v1016h945zm-1446-1919h-1080c71-196 134-402 187-619 54-216 96-449 127-698 29-249 46-523 46-821v-1079h720v3217zm5228 903l-1291-5023h-988l-1291 5023h1044l162-783h1157l163 783h1044zm-1397-1686h-776l388-1863 388 1863zm2631 1686v-522h-522v522h522zm4819-1446c-1-293-64-548-189-765-125-215-300-383-527-501-225-118-492-180-801-181H2007v-1792h2681v-338H1626v5023h1855c309-1 576-62 801-181 227-119 402-286 527-501 125-216 188-471 189-764zm-381 0c0 236-47 436-138 601-93 164-226 290-401 376-176 87-388 130-639 130H2007v-2215h1432c251 0 463 43 639 131 175 85 308 211 401 376 91 164 138 364 138 601zm3803-1955h-395l-1023 2978-1023-2978h-395l1242 3401-275 755c-39 113-81 203-129 272-47 68-109 117-185 148-78 32-179 47-307 46h-134v317h169c76 0 152-7 229-21s151-36 221-68c71-33 134-75 192-130 46-38 88-91 127-157 39-67 74-146 106-238l1580-4325zm3062 3401l-1150-1736 1101-1665h-437l-847 1369-861-1369h-437l1100 1665-1150 1736h438l910-1432 896 1432h437zm3112-3083v-318h-2117v3401h360v-3083h1757zm3111 3083v-2328c2-359-107-633-323-825-217-191-549-288-996-290-182-1-347 14-491 46-145 32-276 86-391 162-116 77-222 181-317 314l261 226c69-104 146-186 230-249 85-64 185-110 299-139 114-28 250-44 409-43 229 0 415 32 556 96 141 63 244 156 308 280 65 123 97 276 96 457v381h-1101c-248 1-460 39-636 116-177 77-313 189-407 334-94 146-141 323-142 531 1 128 22 250 65 365 43 116 104 216 182 298 71 75 154 135 245 181 92 46 199 79 323 99 123 21 268 30 433 30 159 0 298-10 418-34 121-23 230-63 329-120 99-55 195-131 291-227v339h359zm-359-1185c0 159-16 291-47 398-32 107-80 191-144 251-80 76-166 134-257 172-91 37-186 62-285 72-99 12-201 18-305 17-305 1-530-53-675-162-143-109-215-276-214-501 0-226 71-397 214-512 144-115 362-173 654-173h1059v438zm2039-2216v1489c-1 296-18 542-51 739s-77 353-133 470c-55 117-117 205-186 262-67 58-136 95-207 113-70 19-136 26-199 25h-106v303h155c149 1 289-25 419-80 130-54 244-148 343-280 99-133 176-314 232-545s84-522 85-873v-1319h1341v3097h360v-3401h-2053zm5552 318v-318h-2744v318h1227v3083h360v-3083h1157zm3281 1460v-162c-1-349-55-647-163-894s-264-436-466-566c-202-131-447-197-732-198-286 1-530 71-733 207-202 138-358 335-466 595-108 259-162 573-163 941 1 569 126 1002 371 1297 246 295 605 444 1075 445 187 0 351-20 493-58 141-39 272-97 388-174 118-78 234-174 347-290l-268-211c-95 96-190 174-282 235-93 60-193 104-299 132s-225 42-358 42c-364-1-639-117-826-345s-280-561-281-996h2363zm-360-289h-2003c6-106 13-195 20-266 7-70 17-134 33-190 14-58 36-120 67-186 83-179 201-318 354-419 152-100 328-151 528-153 132 0 256 24 371 69 115 44 216 110 304 195s156 188 206 308c31 66 53 128 68 186 15 56 25 120 32 190 7 71 15 160 20 266zm4163 212c1-180-10-359-36-537-26-177-71-344-134-500-64-157-153-293-267-410-90-89-205-161-347-214-142-54-305-81-486-82-129-1-251 11-367 36-115 26-225 75-331 144s-210 169-311 300v-438h-360v5024h360v-2060c101 130 205 230 311 300 106 69 216 117 331 143 116 26 238 38 367 36 181-1 344-28 486-82 142-53 257-125 347-214 114-116 203-253 267-409 63-157 108-324 134-501 26-178 37-356 36-536zm-360 0c2 178-9 351-33 521-23 168-68 319-134 456-67 136-163 244-291 324-127 80-294 122-501 124-207-2-374-44-501-124-128-80-225-188-292-324-66-137-110-288-134-456-23-170-34-343-33-521-1-179 10-352 33-521 24-168 68-320 134-456 67-137 164-245 292-325 127-81 294-122 501-124 207 2 374 43 501 124 128 80 224 188 291 325 66 136 111 288 134 456 24 169 35 342 33 521zm4205 1700v-3401h-359l-1955 2879v-2879h-360v3401h360l1955-2879v2879h359zm3698 0v-3401h-1510c-213 1-398 43-555 125s-279 199-365 348c-87 149-130 326-132 529 2 180 37 340 106 481 70 141 167 257 294 346 128 89 279 148 454 175l-832 1397h423l804-1383h953v1383h360zm-360-1686h-1080c-244-1-431-63-559-184-130-121-195-295-196-522 1-227 66-401 196-522 128-121 315-182 559-183h1080v1411z"/>
        </g>
    </g>
</svg>
