<svg xmlns="http://www.w3.org/2000/svg" width="54" height="52" viewBox="0 0 54 52">
    <path d="M53.47 42.89l-17 8.99c-.04.02-.08.04-.12.05A.842.842 0 0 1 36 52c-.12 0-.23-.03-.34-.07h-.04l-16.66-6.86-17.64 5.88c-.11.03-.21.05-.32.05-.21 0-.41-.06-.58-.19A.983.983 0 0 1 0 50V7.04a1 1 0 0 1 .68-.95l18-5.99c.01-.01.02-.01.02-.01.03-.01.06-.01.09-.02.06-.01.11-.02.16-.02h.08c.06 0 .11.01.17.02.02 0 .05.01.08.02.05.02.1.03.15.06.01 0 .02 0 .04.01L36 8.91 52.53.16c.31-.16.69-.15.99.03.3.18.48.5.48.85v40.97c0 .37-.21.71-.53.88zM18 31.46c-.25.05-.51.08-.75.15-.09.02-.17.03-.26.03-.44 0-.85-.3-.96-.74a.997.997 0 0 1 .71-1.23c.41-.1.83-.19 1.26-.27V2.43L2 7.76v40.86l16-5.33V31.46zm17 2.34c-.84-.03-1.7-.11-2.58-.29-.54-.1-.9-.63-.79-1.17.1-.54.62-.89 1.17-.79.76.15 1.49.23 2.2.26V10.64L20 2.7v26.45c.3-.02.61-.04.92-.04h.02c.54 0 .99.43 1 .98.01.55-.43 1-.98 1.02-.33 0-.64.04-.96.07v12.16l15 6.17V33.8zM52 2.7l-15 7.94V31.9c.32.14.56.44.59.82.03.43-.22.81-.59.97v15.65l15-7.93V2.7zM39.97 30.86c1.03-.53 1.95-1.29 2.73-2.26.35-.43.98-.49 1.41-.15.43.34.5.97.15 1.4-.95 1.19-2.09 2.13-3.38 2.79-.15.07-.3.11-.46.11-.36 0-.71-.2-.89-.55a.99.99 0 0 1 .44-1.34zm4.53-5.46c.43-1.08.77-2.31 1.02-3.66.1-.54.62-.89 1.17-.8.54.1.9.63.8 1.17-.28 1.47-.65 2.82-1.12 4.02-.16.39-.54.63-.94.63-.12 0-.24-.02-.36-.06-.51-.21-.77-.79-.57-1.3zm2.42-6.44a.996.996 0 0 1-.93-1.06c.06-.92.09-1.89.09-2.89 0-.34-.01-.68-.01-1.02-.01-.55.43-1.01.98-1.02.53.01 1.01.43 1.02.98 0 .36.01.71.01 1.06 0 1.04-.03 2.06-.1 3.02-.03.53-.47.93-.99.93h-.07zM25.08 29.4c1.02.15 2.09.37 3.17.65.07.02.14.05.2.08.02.01.28.14.72.32.51.21.75.8.54 1.31-.16.38-.54.61-.93.61-.12 0-.26-.02-.38-.07-.36-.15-.62-.27-.75-.34-.98-.25-1.95-.44-2.88-.59a.99.99 0 0 1-.83-1.14.99.99 0 0 1 1.14-.83zM11 8.04a5 5 0 0 1 5 4.99c0 2.42-1.72 4.43-4 4.9v2.1c0 .55-.45 1-1 1s-1-.45-1-1v-2.1c-2.28-.47-4-2.48-4-4.9a5 5 0 0 1 5-4.99zm0 7.99c1.65 0 3-1.34 3-3a3 3 0 0 0-6 0c0 1.66 1.35 3 3 3zM8.63 37.29c.5.23.72.82.49 1.33-.9 1.93-1.13 3.51-1.13 3.53a1 1 0 0 1-.99.86c-.04 0-.09-.01-.14-.01-.54-.08-.93-.58-.85-1.13.01-.07.26-1.87 1.29-4.09.23-.5.82-.72 1.33-.49zm5.08-9.56c-.2.19-.45.29-.71.29-.26 0-.51-.1-.71-.29L11 26.44l-1.29 1.29c-.2.19-.45.29-.71.29-.26 0-.51-.1-.71-.29a.996.996 0 0 1 0-1.41l1.3-1.3-1.3-1.29a.996.996 0 0 1 0-1.41c.39-.39 1.03-.39 1.42 0L11 23.61l1.29-1.29c.39-.39 1.03-.39 1.42 0 .39.39.39 1.02 0 1.41l-1.3 1.29 1.3 1.3c.39.39.39 1.02 0 1.41zm-.91 3.63c.47-.29 1.09-.15 1.38.32a.99.99 0 0 1-.31 1.37c-1.03.65-1.97 1.46-2.77 2.42a1.013 1.013 0 0 1-1.41.12 1 1 0 0 1-.12-1.41c.94-1.12 2.03-2.06 3.23-2.82z" fill="#4159BF"/>
</svg>
