<svg xmlns="http://www.w3.org/2000/svg" width="59" height="60" viewBox="0 0 59 60">
    <path d="M58.78 38.05a1.002 1.002 0 0 1-1.24.68c-.53-.16-.83-.71-.68-1.24.1-.32.14-.65.14-.99.01-.19-.01-.37-.04-.55a.998.998 0 1 1 1.97-.32c.05.29.07.59.07.88 0 .52-.07 1.04-.22 1.54zm-10.5-13.54l-6.45-7.29c-3.47-3.92-3.47-10.3 0-14.22 1.71-1.93 4-3 6.45-3 2.44 0 4.73 1.07 6.45 3 3.47 3.92 3.47 10.3 0 14.22l-6.45 7.29zm4.95-20.18C51.9 2.83 50.14 2 48.28 2c-1.87 0-3.63.83-4.96 2.33-2.82 3.19-2.82 8.38 0 11.56l4.96 5.6 4.95-5.6c2.83-3.18 2.83-8.37 0-11.56zM48.52 15c-3.02 0-5.48-2.47-5.48-5.5S45.5 4 48.52 4c3.03 0 5.49 2.47 5.49 5.5S51.55 15 48.52 15zm0-9c-1.92 0-3.49 1.57-3.49 3.5S46.6 13 48.52 13c1.93 0 3.5-1.57 3.5-3.5S50.45 6 48.52 6zM37.91 33h-2c-.55 0-1-.45-1-1s.45-1 1-1h2c.55 0 .99.45.99 1s-.44 1-.99 1zm-.86-9h-2c-.55 0-.99-.45-.99-1s.44-1 .99-1h2c.55 0 1 .45 1 1s-.45 1-1 1zm-4.93 20.84c-.09.48-.51.81-.98.81-.06 0-.12 0-.19-.02-.54-.1-.89-.63-.79-1.17.16-.81.49-1.55.97-2.22.33-.44.95-.54 1.4-.21.44.33.54.95.21 1.4-.31.42-.52.89-.62 1.41zM31.92 33h-.36c-.67 0-1.33-.12-1.96-.36-.51-.2-.77-.78-.57-1.29a.99.99 0 0 1 1.29-.58c.39.15.81.23 1.24.23h.36c.55 0 1 .45 1 1s-.45 1-1 1zm-.75-8.98c-.52.06-1.01.23-1.45.5a.91.91 0 0 1-.52.16c-.34 0-.66-.17-.85-.48a.993.993 0 0 1 .32-1.37c.69-.44 1.46-.71 2.28-.8.56-.05 1.05.34 1.11.89a1 1 0 0 1-.89 1.1zm-2.93 4.57a.988.988 0 0 1-.95 1.31c-.41 0-.8-.26-.94-.68-.18-.56-.28-1.13-.28-1.72.01-.24.02-.47.05-.7.07-.54.55-.93 1.11-.86.55.07.94.57.87 1.11-.02.15-.03.3-.03.45 0 .37.06.74.17 1.09zM23.65 60h-1.99c-.56 0-1-.45-1-1s.44-1 1-1h1.99c.55 0 1 .45 1 1s-.45 1-1 1zm-11.54-2.49L3.6 47.88c-4.6-5.22-4.6-13.69 0-18.9C5.86 26.41 8.88 25 12.11 25c3.22 0 6.24 1.41 8.51 3.98 4.6 5.21 4.6 13.68-.01 18.9l-8.5 9.63zm7.01-27.21c-1.88-2.13-4.37-3.3-7.01-3.3-2.64 0-5.14 1.17-7.02 3.3-3.95 4.48-3.95 11.77 0 16.25l7.02 7.94 7.01-7.94c3.96-4.48 3.96-11.77 0-16.25zM12.11 43c-3.31 0-5.99-2.69-5.99-6s2.68-6 5.99-6c3.3 0 5.98 2.69 5.98 6s-2.68 6-5.98 6zm0-10c-2.2 0-3.99 1.79-3.99 4s1.79 4 3.99 4 3.99-1.79 3.99-4-1.79-4-3.99-4zm3.56 25h1.99c.56 0 1 .45 1 1s-.44 1-1 1h-1.99c-.55 0-1-.45-1-1s.45-1 1-1zm11.97 0h2c.55 0 1 .45 1 1s-.45 1-1 1h-2c-.55 0-1-.45-1-1s.45-1 1-1zm5.24-10.25c.33.4.75.72 1.22.93.5.23.72.83.49 1.33-.16.37-.52.58-.9.58-.14 0-.28-.03-.42-.09-.73-.33-1.4-.84-1.92-1.46a1 1 0 1 1 1.53-1.29zM33.63 58h1.99c.55 0 1 .45 1 1s-.44 1-1 1h-1.99c-.55 0-1-.45-1-1s.45-1 1-1zm1.75-16h-.04a1 1 0 0 1-1-.95.998.998 0 0 1 .96-1.04c.08-.01.17-.01.25-.01h1.78c.56 0 1 .45 1 1s-.44 1-1 1h-1.95zm2.24 7h2c.55 0 .99.45.99 1s-.44 1-.99 1h-2c-.55 0-1-.45-1-1s.45-1 1-1zm2 9h1.99c.55 0 1 .45 1 1s-.45 1-1 1h-1.99c-.56 0-1-.45-1-1s.44-1 1-1zm5.27-26c0 .55-.45 1-1 1H41.9c-.55 0-1-.45-1-1s.45-1 1-1h1.99c.55 0 1 .45 1 1zm-3.56 8h1.99c.55 0 1 .45 1 1s-.45 1-1 1h-1.99c-.56 0-1-.45-1-1s.44-1 1-1zm-.29-18h2c.55 0 .99.45.99 1s-.44 1-.99 1h-2c-.55 0-1-.45-1-1s.45-1 1-1zm2.57 27h1.99c.55 0 1 .45 1 1s-.45 1-1 1h-1.99c-.55 0-1-.45-1-1s.45-1 1-1zm1.99 9h1.93c.55 0 1.03.45 1.03 1s-.41 1-.96 1v-1l-.03 1H45.6c-.55 0-1-.45-1-1s.45-1 1-1zm3.71-18c.55 0 .99.45.99 1s-.44 1-.99 1h-2c-.55 0-1-.45-1-1s.45-1 1-1h2zm-1.43-9h2c.55 0 1 .45 1 1s-.45 1-1 1h-2c-.55 0-.99-.45-.99-1s.44-1 .99-1zm.75 19.02c.24-.49.84-.69 1.33-.45.73.36 1.38.89 1.88 1.53.34.43.27 1.06-.17 1.4-.18.15-.4.22-.61.22-.3 0-.59-.13-.79-.38-.32-.41-.73-.75-1.19-.98-.5-.24-.7-.84-.45-1.34zm2.3 5.25a1 1 0 0 1 1.95.44 5.61 5.61 0 0 1-1.04 2.19.999.999 0 0 1-1.4.17c-.43-.34-.51-.97-.17-1.41.33-.41.55-.88.66-1.39zM52.3 41c0-.55.45-1 1-1h.21c.47 0 .92-.09 1.35-.27a.995.995 0 0 1 1.31.53c.21.51-.03 1.1-.54 1.31-.67.29-1.38.43-2.12.43h-.21c-.55 0-1-.45-1-1zm2.96-7.53c-.45-.27-.95-.42-1.47-.46a1 1 0 0 1-.92-1.08c.05-.55.53-.95 1.08-.91.82.06 1.6.3 2.31.72.48.28.64.89.36 1.36a.99.99 0 0 1-.86.5c-.17 0-.34-.04-.5-.13z" fill="#4159BF"/>
</svg>
