<svg xmlns="http://www.w3.org/2000/svg" width="52" height="59" viewBox="0 0 52 59">
    <path d="M51.01 17.1c-.19.71-.64 1.29-1.27 1.66l-4.72 2.72c-.32.19-.67.31-1.03.35 1 2.38 1.56 5 1.56 7.74s-.56 5.36-1.56 7.74c.36.05.71.16 1.03.35l4.72 2.72c.63.37 1.08.95 1.27 1.66.19.7.09 1.44-.27 2.07-.5.87-1.42 1.36-2.37 1.36-.46 0-.93-.12-1.35-.37l-4.73-2.72c-.33-.19-.6-.44-.82-.73a20.005 20.005 0 0 1-13.41 7.75c.14.33.22.69.22 1.07v5.45a2.725 2.725 0 0 1-5.45 0v-5.45c0-.38.07-.74.21-1.07-5.45-.69-10.23-3.58-13.41-7.75-.21.29-.49.54-.82.73L4.09 45.1c-.42.25-.89.37-1.36.37a2.703 2.703 0 0 1-2.36-1.36c-.76-1.31-.31-2.98.99-3.73l4.73-2.72c.32-.19.68-.3 1.03-.35-1.01-2.38-1.56-5-1.56-7.74s.55-5.36 1.56-7.74c-.35-.04-.71-.16-1.03-.35l-4.73-2.72a2.716 2.716 0 0 1-.99-3.72c.36-.64.95-1.09 1.65-1.27.7-.19 1.44-.1 2.07.27l4.72 2.72c.33.19.61.44.82.73 3.18-4.17 7.96-7.06 13.41-7.75a2.71 2.71 0 0 1-.21-1.06V3.22a2.725 2.725 0 1 1 5.45 0v5.46c0 .37-.08.73-.22 1.06 5.46.69 10.24 3.58 13.41 7.75.22-.29.49-.54.82-.73l4.73-2.72a2.72 2.72 0 0 1 3.72 1c.36.63.46 1.36.27 2.06zM43.2 40.8l4.72 2.73a.925.925 0 0 0 1.25-.33c.12-.21.15-.46.09-.69a.916.916 0 0 0-.43-.55l-4.72-2.73a.892.892 0 0 0-.45-.12.893.893 0 0 0-.79.45c-.25.44-.1.99.33 1.24zM24.64 55.92c0 .5.41.9.91.9s.91-.4.91-.9v-5.46c0-.5-.41-.9-.91-.9s-.91.4-.91.9v5.46zM7 39.23l-4.73 2.73a.91.91 0 0 0-.33 1.24c.12.21.32.36.55.42.24.06.48.03.69-.09L7.9 40.8c.21-.12.36-.31.43-.55.06-.23.03-.48-.09-.69a.887.887 0 0 0-.56-.42.852.852 0 0 0-.23-.03c-.16 0-.32.04-.45.12zm1.33-20.34a.916.916 0 0 0-.43-.55l-4.72-2.73a.892.892 0 0 0-.45-.12.893.893 0 0 0-.79.45c-.25.44-.1.99.33 1.24L7 19.91a.9.9 0 0 0 .68.09c.24-.06.44-.21.56-.42.12-.21.15-.46.09-.69zM26.46 3.22c0-.5-.41-.9-.91-.9s-.91.4-.91.9v5.46c0 .5.41.9.91.9s.91-.4.91-.9V3.22zm-.91 8.18c-10.02 0-18.17 8.15-18.17 18.17 0 10.02 8.15 18.17 18.17 18.17 10.03 0 18.18-8.15 18.18-18.17 0-10.02-8.15-18.17-18.18-18.17zm23.62 4.54a.913.913 0 0 0-.79-.45.93.93 0 0 0-.46.12l-4.72 2.73a.91.91 0 0 0-.33 1.24c.12.21.32.36.55.42.24.06.48.03.69-.09l4.72-2.73c.21-.12.36-.31.43-.55.06-.23.03-.48-.09-.69zm-9.42 21.74c-.01.03-.02.05-.03.07-.01.02-.02.03-.04.05-2.84 4.86-8.11 8.12-14.13 8.12-3.85 0-7.6-1.36-10.54-3.85a.914.914 0 0 1-.11-1.28c.32-.38.9-.43 1.28-.1 2.39 2.01 5.36 3.19 8.46 3.39v-2.86a2.721 2.721 0 0 1-1.81-2.56v-3.34c-.31-.15-.61-.32-.89-.52l-2.89 1.67c-.42.25-.89.37-1.36.37-.24 0-.48-.03-.71-.09-.4-.11-.76-.31-1.07-.57l-2.47 1.43c.11.17.23.34.35.51a.902.902 0 0 1-.73 1.44c-.28 0-.56-.13-.74-.37a16.268 16.268 0 0 1-3.13-9.62c0-2.95.79-5.72 2.16-8.11.01-.03.02-.05.04-.07.01-.02.03-.05.05-.07 2.84-4.84 8.1-8.1 14.11-8.1 2.69 0 5.35.66 7.71 1.92a.909.909 0 0 1-.86 1.6c-1.83-.97-3.86-1.55-5.94-1.68v2.86a2.72 2.72 0 0 1 1.82 2.57v3.34c.31.14.6.32.88.51l2.9-1.67a2.68 2.68 0 0 1 2.07-.27c.4.1.76.3 1.06.56l3.29-1.9c.43-.25.99-.1 1.24.33.05.09.08.17.1.26.07.06.12.14.17.23 1.26 2.35 1.92 5.01 1.92 7.69 0 2.95-.78 5.72-2.16 8.11zm-13.29 6.4c4.67-.29 8.75-2.79 11.2-6.47l-2.47-1.43c-.3.26-.66.46-1.06.57-.24.06-.47.09-.71.09-.47 0-.94-.12-1.36-.37l-2.9-1.67c-.28.2-.57.37-.88.52v3.34c0 1.18-.76 2.19-1.82 2.56v2.86zm7.42-10.75l-2.42-1.4c-.23.57-.54 1.1-.91 1.57l2.42 1.4c.21.12.45.15.69.09.23-.06.43-.21.55-.42a.91.91 0 0 0-.33-1.24zm-9.24 5.33c0 .5.41.9.91.9s.91-.4.91-.9v-2.8c-.3.05-.6.07-.91.07-.31 0-.61-.02-.91-.07v2.8zm-7.75-4.09c.26.43.81.58 1.25.33l2.42-1.4c-.38-.47-.68-1-.91-1.57l-2.42 1.4c-.44.25-.59.8-.34 1.24zm3.67-8.93l-2.42-1.4a.924.924 0 0 0-1.25.33c-.25.44-.1.99.34 1.25l2.42 1.39c.23-.57.53-1.1.91-1.57zm-9.55 3.93c0 2.28.52 4.47 1.52 6.47L15 34.61c-.07-.39-.06-.8.05-1.2.19-.71.64-1.29 1.27-1.66l2.89-1.67c-.01-.17-.02-.34-.02-.51 0-.17.01-.34.02-.51l-2.89-1.67c-.63-.37-1.08-.95-1.27-1.66-.11-.4-.12-.81-.05-1.2l-2.47-1.43a14.5 14.5 0 0 0-1.52 6.47zm13.63-14.51c-4.67.29-8.75 2.8-11.2 6.47l2.47 1.43c.31-.26.67-.46 1.07-.56.7-.19 1.43-.1 2.07.27l2.89 1.67c.28-.19.58-.37.89-.51v-3.34c0-1.19.76-2.2 1.81-2.57v-2.86zm1.82 5.43c0-.51-.41-.91-.91-.91s-.91.4-.91.91v2.79c.3-.05.6-.07.91-.07.31 0 .61.02.91.07v-2.79zm-.91 4.54a4.55 4.55 0 0 0-4.54 4.54 4.545 4.545 0 0 0 9.09 0c0-2.5-2.04-4.54-4.55-4.54zm8.66-.46a.893.893 0 0 0-.55-.42.92.92 0 0 0-.69.09l-2.42 1.4c.37.47.68 1 .91 1.57l2.42-1.39c.43-.26.58-.81.33-1.25zm4.37-1.47l-2.48 1.43c.21 1.1-.29 2.27-1.31 2.86l-2.9 1.67c.02.17.02.34.02.51 0 .17 0 .34-.02.51l2.9 1.67c1.02.59 1.52 1.76 1.31 2.86l2.47 1.43c.98-1.95 1.52-4.15 1.52-6.47 0-2.24-.52-4.47-1.51-6.47zm-1.21-2.57a.9.9 0 0 1-.7-.33c-.53-.63-1.12-1.21-1.75-1.75a.914.914 0 0 1-.11-1.28c.33-.38.9-.43 1.28-.1a15.2 15.2 0 0 1 1.97 1.96c.33.39.28.96-.11 1.28a.86.86 0 0 1-.58.22z" fill="#E4BC41"/>
</svg>
