<svg xmlns="http://www.w3.org/2000/svg" width="19" height="24" viewBox="0 0 19 24">
    <path d="M3.37 22.22c1.18.86 2.32 1.29 3.43 1.29.28 0 .55-.02.82-.08 1.93-.38 2.95-2.01 2.95-2.03l5.71-7.74a.72.72 0 0 0-.15-1.01.728.728 0 0 0-1.01.16L9.37 20.6c0 .01-.74 1.16-2.03 1.42-.94.19-1.99-.14-3.11-.96-3.29-2.4-1.57-4.95-1.37-5.23l9.45-12.82s.4-.55 1.13-.68c.67-.11 1.44.14 2.31.78.33.23 1.24 1.03 1.39 1.9.07.43-.04.84-.35 1.25L8.36 17.7c-.01.01-.38.51-.94.6-.35.06-.71-.05-1.11-.35-1.19-.86-.57-1.92-.45-2.1l4.7-6.37c.24-.32.17-.78-.16-1.01a.72.72 0 0 0-1.01.15l-4.71 6.39c-.66.95-.99 2.82.77 4.11.72.52 1.46.73 2.21.61 1.14-.19 1.81-1.1 1.87-1.19l8.43-11.43c.54-.73.75-1.52.6-2.34-.28-1.67-1.92-2.8-1.97-2.84-1.18-.86-2.32-1.2-3.39-1.02-1.34.23-2.02 1.19-2.08 1.28L1.7 14.97c-.05.07-1.15 1.56-.85 3.52.21 1.41 1.06 2.66 2.52 3.73z" fill="#E5BD41"/>
</svg>
