<svg xmlns="http://www.w3.org/2000/svg" width="56" height="57" viewBox="0 0 56 57">
    <path d="M55.01 17.12h-6.95c-.55 0-.99-.45-.99-1 0-.56.44-1.01.99-1.01h6.95a1.005 1.005 0 0 1 0 2.01zm-8.23-6.33c-.2.19-.45.29-.7.29-.26 0-.51-.1-.71-.29a1.04 1.04 0 0 1 0-1.43l4.92-4.98c.39-.4 1.02-.4 1.4 0 .39.39.39 1.03 0 1.42l-4.91 4.99zM-.01 52.72L30.7 21.58l9.35-9.48 4.21 4.27L4.2 56.99l-4.21-4.27zm34.22-29l7.24-7.35-1.4-1.42-7.24 7.34 1.4 1.43zm-2.81 0l-28.6 29 1.4 1.42 28.6-29-1.4-1.42zm8.72-14.65c-.55 0-.99-.45-.99-1.01V1.01c0-.56.44-1.01.99-1.01s.99.45.99 1.01v7.05c0 .56-.44 1.01-.99 1.01zm-5.96 2.01c-.25 0-.51-.1-.7-.29L28.54 5.8c-.38-.39-.38-1.03 0-1.42.39-.4 1.02-.4 1.41 0l4.91 4.98c.39.4.39 1.03 0 1.43-.19.19-.44.29-.7.29zm-.99 5.04a1 1 0 0 1-.99 1h-6.95a1.005 1.005 0 0 1 0-2.01h6.95c.54 0 .99.45.99 1.01zm6.95 7.04c.55 0 .99.45.99 1.01v7.05c0 .55-.44 1.01-.99 1.01s-.99-.46-.99-1.01v-7.05c0-.56.44-1.01.99-1.01zm6.66-1.72l4.91 4.99c.39.39.39 1.03 0 1.42a.97.97 0 0 1-1.4 0l-4.92-4.98a1.04 1.04 0 0 1 0-1.43.996.996 0 0 1 1.41 0z" fill="#4159BF"/>
</svg>
