<svg xmlns="http://www.w3.org/2000/svg" width="49" height="56" viewBox="0 0 49 56">
    <path d="M43.49 55.29H5.27c-2.34 0-4.55-2.21-4.55-4.55V8.91c0-2.34 2.21-4.55 4.55-4.55h5.46c.5 0 .91.41.91.91s-.41.91-.91.91H5.27c-1.32 0-2.73 1.4-2.73 2.73v41.83c0 1.33 1.41 2.73 2.73 2.73h38.22c1.32 0 2.73-1.4 2.73-2.73V8.91c0-1.33-1.41-2.73-2.73-2.73h-5.46c-.5 0-.91-.41-.91-.91s.41-.91.91-.91h5.46c2.34 0 4.55 2.21 4.55 4.55v41.83c0 2.34-2.21 4.55-4.55 4.55zm-4.28-17.92c.35-.36.93-.36 1.28 0 .36.35.36.93 0 1.28l-1.17 1.18L40.49 41c.36.36.36.93 0 1.29-.18.18-.41.27-.64.27-.23 0-.47-.09-.64-.27l-1.18-1.18-1.18 1.18c-.18.18-.41.27-.64.27-.23 0-.47-.09-.64-.27a.905.905 0 0 1 0-1.29l1.17-1.17-1.17-1.18a.894.894 0 0 1 0-1.28c.35-.36.93-.36 1.28 0l1.18 1.17 1.18-1.17zm-4.82-16.64c-.23 0-.47-.09-.64-.27l-2.09-2.08v5.08c0 .5-.41.91-.91.91s-.91-.41-.91-.91v-5.08l-2.09 2.08c-.35.36-.93.36-1.28 0a.894.894 0 0 1 0-1.28l3.64-3.64c.08-.08.18-.15.29-.2.22-.09.47-.09.7 0 .11.05.21.12.29.2l3.64 3.64c.36.35.36.93 0 1.28-.18.18-.41.27-.64.27zm0-9.09H14.37c-.5 0-.91-.41-.91-.91V5.27c0-.5.41-.91.91-.91h4.86A5.493 5.493 0 0 1 24.38.72c2.33 0 4.39 1.5 5.15 3.64h4.86c.5 0 .91.41.91.91v5.46c0 .5-.41.91-.91.91zm-.91-5.46h-4.64a.9.9 0 0 1-.89-.73 3.668 3.668 0 0 0-3.57-2.91c-1.72 0-3.22 1.23-3.57 2.91a.9.9 0 0 1-.89.73h-4.64v3.64h18.2V6.18zm-9.1-1.82c1 0 1.82.82 1.82 1.82S25.38 8 24.38 8s-1.82-.82-1.82-1.82.82-1.82 1.82-1.82zM8 28.92c0-1.51 1.23-2.73 2.73-2.73a2.725 2.725 0 1 1 0 5.45c-1.5 0-2.73-1.22-2.73-2.72zm3.64 0c0-.51-.41-.91-.91-.91s-.91.4-.91.91c0 .5.41.9.91.9s.91-.4.91-.9zM21.92 43.2l-9.1-9.09a.905.905 0 0 1 0-1.29c.35-.36.93-.36 1.28 0l9.1 9.09c.36.36.36.93 0 1.29-.17.18-.41.27-.64.27-.23 0-.47-.09-.64-.27zm-5.73-13.38a.905.905 0 1 1 0-1.81h9.1a.905.905 0 1 1 0 1.81h-9.1zm14.56-3.63c1.5 0 2.73 1.22 2.73 2.73 0 1.5-1.23 2.72-2.73 2.72a2.725 2.725 0 1 1 0-5.45zm0 3.63a.905.905 0 1 0 0-1.81.905.905 0 1 0 0 1.81zm-5.46 20.01c-1.51 0-2.73-1.22-2.73-2.73 0-1.5 1.22-2.73 2.73-2.73 1.5 0 2.73 1.23 2.73 2.73 0 1.51-1.23 2.73-2.73 2.73zm0-3.64c-.5 0-.91.41-.91.91s.41.91.91.91.91-.41.91-.91-.41-.91-.91-.91zm-9.74-28.83c.35-.36.93-.36 1.28 0 .36.36.36.93 0 1.29l-1.17 1.17L16.83 21c.36.35.36.93 0 1.28-.17.18-.41.27-.64.27-.23 0-.46-.09-.64-.27l-1.18-1.17-1.18 1.17c-.17.18-.41.27-.64.27-.23 0-.46-.09-.64-.27a.894.894 0 0 1 0-1.28l1.17-1.18-1.17-1.17a.905.905 0 0 1 0-1.29c.35-.36.93-.36 1.28 0l1.18 1.18 1.18-1.18z" fill="#475DC1"/>
</svg>
