<svg xmlns="http://www.w3.org/2000/svg" width="21" height="21" viewBox="0 0 21 21">
    <path d="M19.52 11.57a.8.8 0 0 1-.44-.15.76.76 0 0 1-.33-.66c0-.17 0-.33-.01-.5a.792.792 0 0 1 1.58-.06c.01.2.01.4 0 .6a.79.79 0 0 1-.8.77zm-.19-3.08a.774.774 0 0 1-1-.5c-.05-.15-.11-.31-.17-.47-.17-.4.03-.86.44-1.02.4-.17.86.03 1.02.44.08.18.14.37.21.56.13.41-.09.86-.5.99zm-1.96-3.71l-2.68.24c-.3.03-.4-.15-.23-.4l.62-.89c-2.87-1.92-6.54-1.79-9.25.07-.01.01-.01.02-.02.02-.77.54-1.46 1.21-2.03 2.02-2.61 3.71-1.72 8.85 1.99 11.47.26.18.52.34.79.49a6.33 6.33 0 0 0 .47.24c.64.3 1.32.51 2.02.64.43.08.72.49.64.92-.08.43-.49.71-.92.63a9.705 9.705 0 0 1-5.16-2.68c-.01 0-.01-.01-.01-.01l-.01-.01a9.748 9.748 0 0 1-2.74-5.28c-.04-.2-.07-.39-.09-.59v-.04c-.03-.2-.04-.4-.05-.6V11c-.09-2.02.44-4.01 1.55-5.73.01-.02.02-.03.03-.04.06-.11.13-.21.21-.31.04-.06.08-.12.13-.18.01-.02.02-.03.03-.05a9.74 9.74 0 0 1 5.4-3.61c.01 0 .01-.01.02-.01h.01c.24-.06.49-.12.75-.16 2.5-.43 5.03.1 7.14 1.52l.61-.89c.18-.25.38-.22.46.07l.72 2.59c.08.29-.1.55-.4.58zM12 18.67c.17-.03.33-.06.49-.1.43-.11.86.15.96.57.11.43-.15.85-.57.96-.2.05-.39.09-.59.13a.828.828 0 0 1-.6-.13.836.836 0 0 1-.32-.51c-.08-.42.21-.84.63-.92zm3.5-4.39c-.1 0-.2-.02-.29-.07L9.39 11.2V4.84c0-.35.29-.64.64-.64.35 0 .64.29.64.64v5.58l5.12 2.65c.32.17.44.55.28.86-.12.22-.34.35-.57.35zm-.87 3.43c.15-.09.29-.18.43-.27.36-.24.85-.14 1.09.23.24.36.14.85-.22 1.09-.17.11-.34.21-.51.31a.77.77 0 0 1-.85-.04.697.697 0 0 1-.23-.25.776.776 0 0 1 .29-1.07zm2.47-2.19c.26-.34.75-.42 1.1-.15.35.26.42.75.16 1.1-.12.16-.25.32-.38.47-.26.31-.72.37-1.05.13-.02-.01-.04-.03-.06-.04a.79.79 0 0 1-.09-1.11c.11-.13.22-.26.32-.4zm1.11-2.01c.06-.16.11-.32.16-.48a.791.791 0 0 1 1.51.47c-.06.19-.13.38-.2.57-.15.4-.61.61-1.02.45a.78.78 0 0 1-.45-1.01z" fill="#FFF"/>
</svg>
