<?xml version="1.0" encoding="utf-8"?>
<svg xmlns="http://www.w3.org/2000/svg"
	xmlns:xlink="http://www.w3.org/1999/xlink"
	width="23px" height="13px" viewBox="0 0 23 13">
<path fillRule="evenodd" d="M 11.06 0.25C 11.06 0.25 0.27 11.05 0.27 11.05 0.02 11.3 0.02 11.71 0.27 11.96 0.53 12.21 0.93 12.21 1.19 11.96 1.19 11.96 11.52 1.63 11.52 1.63 11.52 1.63 21.84 11.96 21.84 11.96 22.1 12.21 22.5 12.21 22.76 11.96 22.88 11.84 22.95 11.67 22.95 11.51 22.95 11.34 22.89 11.17 22.76 11.05 22.76 11.05 11.97 0.26 11.97 0.26 11.72 0 11.31 0 11.06 0.25Z" fill="rgb(255,255,255)"/></svg>