<svg xmlns="http://www.w3.org/2000/svg" width="60" height="60" viewBox="0 0 60 60">
    <path d="M59.49 41.48v-.04-.01-.06-.04c0-.02-.01-.03-.01-.05 0-.02 0-.03-.01-.04 0-.02-.01-.03-.01-.05 0-.01-.01-.03-.01-.05-.01-.01-.01-.02-.02-.03 0-.02-.01-.04-.02-.06v-.01L49.24 18.68v-2.93h.07c1.09 0 1.98-.89 1.98-1.99v-.15c0-.98-.7-1.8-1.67-1.96L32.84 8.94V7.22a3.99 3.99 0 0 0 1.03-2.68c0-2.23-1.81-4.04-4.04-4.04s-4.04 1.81-4.04 4.04c0 1.03.39 1.97 1.03 2.68v1.63l-16.79 2.8c-.96.16-1.66.98-1.66 1.96v.15c0 1.1.89 1.99 1.98 1.99h.07v2.93L.25 41.04v.01c-.01.02-.02.04-.02.06-.01.01-.01.02-.02.03 0 .02-.01.04-.01.05 0 .02-.01.03-.01.05 0 .01-.01.02-.01.04s-.01.03-.01.05v.18c.06 3.96 4.96 7.04 11.21 7.04 6.25 0 11.15-3.08 11.21-7.04v-.03-.04-.01-.06c0-.02 0-.03-.01-.04v-.05c-.01-.02-.01-.03-.01-.04 0-.02-.01-.03-.01-.05-.01-.01-.01-.03-.02-.05 0-.01-.01-.02-.01-.03-.01-.02-.01-.04-.02-.06l-.01-.01-10.16-22.36v-2.93h14.48v20.88c-.61.34-1.03.99-1.03 1.73v14.16l-6.08 1.9c-1.27.4-2.12 1.55-2.12 2.88v1.57c0 .53.43.96.96.96h22.56c.53 0 .96-.43.96-.96V57.3c0-1.33-.85-2.48-2.12-2.88l-6.08-1.9V38.36c0-.74-.42-1.39-1.03-1.73V15.75h14.48v2.93L37.16 41.04l-.01.01c-.01.02-.01.04-.02.06 0 .01-.01.02-.01.03-.01.02-.01.04-.02.05 0 .02 0 .03-.01.05 0 .01 0 .02-.01.04v.05c0 .01-.01.03-.01.04V41.51c.06 3.96 4.96 7.04 11.21 7.04 6.25 0 11.15-3.08 11.21-7.04v-.03zM11.38 21.21l8.76 19.27H2.62l8.76-19.27zm0 25.42c-4.45 0-8.29-1.86-9.12-4.23H20.5c-.83 2.37-4.67 4.23-9.12 4.23zm20.56-8.27v13.91h-4.22V38.36c0-.03.02-.06.06-.06h4.1c.04 0 .06.03.06.06zm-3.2-1.98V8.42c.35.1.71.15 1.09.15.38 0 .74-.05 1.09-.15v27.96h-2.18zm1.09-33.96c1.17 0 2.11.95 2.11 2.12a2.11 2.11 0 0 1-4.22 0c0-1.17.94-2.12 2.11-2.12zM10.35 13.83c-.03 0-.06-.03-.06-.07v-.15c0-.04.02-.06.05-.07l16.48-2.74v3.03H10.35zm29.8 43.47v.61H19.52v-.61c0-.48.3-.9.76-1.04l6.62-2.07h5.86l6.62 2.07c.46.14.77.56.77 1.04zm-7.31-46.41l16.48 2.66c.03 0 .05.03.05.06v.15c0 .04-.03.07-.06.07H32.84v-2.94zm15.44 10.32l8.76 19.27H39.52l8.76-19.27zm0 25.42c-4.45 0-8.29-1.86-9.12-4.23H57.4c-.83 2.37-4.67 4.23-9.12 4.23z" fill="#4159BF"/>
</svg>
