<?xml version="1.0" encoding="utf-8"?>
<svg xmlns="http://www.w3.org/2000/svg"
	xmlns:xlink="http://www.w3.org/1999/xlink"
	width="60px" height="60px" viewBox="0 0 60 60">
<path fillRule="evenodd" d="M 59.49 41.48C 59.49 41.47 59.49 41.45 59.49 41.44 59.49 41.44 59.49 41.43 59.49 41.43 59.49 41.41 59.49 41.39 59.49 41.37 59.49 41.35 59.49 41.34 59.49 41.33 59.49 41.31 59.48 41.3 59.48 41.28 59.48 41.26 59.48 41.25 59.47 41.24 59.47 41.22 59.46 41.21 59.46 41.19 59.46 41.18 59.45 41.16 59.45 41.14 59.44 41.13 59.44 41.12 59.43 41.11 59.43 41.09 59.42 41.07 59.41 41.05 59.41 41.05 59.41 41.05 59.41 41.04 59.41 41.04 49.24 18.68 49.24 18.68 49.24 18.68 49.24 15.75 49.24 15.75 49.24 15.75 49.31 15.75 49.31 15.75 50.4 15.75 51.29 14.86 51.29 13.76 51.29 13.76 51.29 13.61 51.29 13.61 51.29 12.63 50.59 11.81 49.62 11.65 49.62 11.65 32.84 8.94 32.84 8.94 32.84 8.94 32.84 7.22 32.84 7.22 33.48 6.51 33.87 5.57 33.87 4.54 33.87 2.31 32.06 0.5 29.83 0.5 27.6 0.5 25.79 2.31 25.79 4.54 25.79 5.57 26.18 6.51 26.82 7.22 26.82 7.22 26.82 8.85 26.82 8.85 26.82 8.85 10.03 11.65 10.03 11.65 9.07 11.81 8.37 12.63 8.37 13.61 8.37 13.61 8.37 13.76 8.37 13.76 8.37 14.86 9.26 15.75 10.35 15.75 10.35 15.75 10.42 15.75 10.42 15.75 10.42 15.75 10.42 18.68 10.42 18.68 10.42 18.68 0.25 41.04 0.25 41.04 0.25 41.05 0.25 41.05 0.25 41.05 0.24 41.07 0.23 41.09 0.23 41.11 0.22 41.12 0.22 41.13 0.21 41.14 0.21 41.16 0.2 41.18 0.2 41.19 0.2 41.21 0.19 41.22 0.19 41.24 0.19 41.25 0.18 41.26 0.18 41.28 0.18 41.3 0.17 41.31 0.17 41.33 0.17 41.34 0.17 41.35 0.17 41.37 0.17 41.39 0.17 41.41 0.17 41.43 0.17 41.43 0.17 41.44 0.17 41.44 0.17 41.45 0.17 41.47 0.17 41.48 0.17 41.49 0.17 41.5 0.17 41.51 0.23 45.47 5.13 48.55 11.38 48.55 17.63 48.55 22.53 45.47 22.59 41.51 22.59 41.5 22.59 41.49 22.59 41.48 22.59 41.47 22.59 41.45 22.59 41.44 22.59 41.44 22.59 41.43 22.59 41.43 22.59 41.41 22.59 41.39 22.59 41.37 22.59 41.35 22.59 41.34 22.58 41.33 22.58 41.31 22.58 41.3 22.58 41.28 22.57 41.26 22.57 41.25 22.57 41.24 22.57 41.22 22.56 41.21 22.56 41.19 22.55 41.18 22.55 41.16 22.54 41.14 22.54 41.13 22.53 41.12 22.53 41.11 22.52 41.09 22.52 41.07 22.51 41.05 22.51 41.05 22.51 41.05 22.5 41.04 22.5 41.04 12.34 18.68 12.34 18.68 12.34 18.68 12.34 15.75 12.34 15.75 12.34 15.75 26.82 15.75 26.82 15.75 26.82 15.75 26.82 36.63 26.82 36.63 26.21 36.97 25.79 37.62 25.79 38.36 25.79 38.36 25.79 52.52 25.79 52.52 25.79 52.52 19.71 54.42 19.71 54.42 18.44 54.82 17.59 55.97 17.59 57.3 17.59 57.3 17.59 58.87 17.59 58.87 17.59 59.4 18.02 59.83 18.55 59.83 18.55 59.83 41.11 59.83 41.11 59.83 41.64 59.83 42.07 59.4 42.07 58.87 42.07 58.87 42.07 57.3 42.07 57.3 42.07 55.97 41.22 54.82 39.95 54.42 39.95 54.42 33.87 52.52 33.87 52.52 33.87 52.52 33.87 38.36 33.87 38.36 33.87 37.62 33.45 36.97 32.84 36.63 32.84 36.63 32.84 15.75 32.84 15.75 32.84 15.75 47.32 15.75 47.32 15.75 47.32 15.75 47.32 18.68 47.32 18.68 47.32 18.68 37.16 41.04 37.16 41.04 37.15 41.05 37.15 41.05 37.15 41.05 37.14 41.07 37.14 41.09 37.13 41.11 37.13 41.12 37.12 41.13 37.12 41.14 37.11 41.16 37.11 41.18 37.1 41.19 37.1 41.21 37.1 41.22 37.09 41.24 37.09 41.25 37.09 41.26 37.08 41.28 37.08 41.3 37.08 41.31 37.08 41.33 37.08 41.34 37.07 41.36 37.07 41.37 37.07 41.39 37.07 41.41 37.07 41.43 37.07 41.43 37.07 41.44 37.07 41.44 37.07 41.45 37.07 41.47 37.07 41.48 37.07 41.49 37.07 41.5 37.07 41.51 37.13 45.47 42.03 48.55 48.28 48.55 54.53 48.55 59.43 45.47 59.49 41.51 59.49 41.5 59.49 41.49 59.49 41.48ZM 11.38 21.21C 11.38 21.21 20.14 40.48 20.14 40.48 20.14 40.48 2.62 40.48 2.62 40.48 2.62 40.48 11.38 21.21 11.38 21.21ZM 11.38 46.63C 6.93 46.63 3.09 44.77 2.26 42.4 2.26 42.4 20.5 42.4 20.5 42.4 19.67 44.77 15.83 46.63 11.38 46.63ZM 31.94 38.36C 31.94 38.36 31.94 52.27 31.94 52.27 31.94 52.27 27.72 52.27 27.72 52.27 27.72 52.27 27.72 38.36 27.72 38.36 27.72 38.33 27.74 38.3 27.78 38.3 27.78 38.3 31.88 38.3 31.88 38.3 31.92 38.3 31.94 38.33 31.94 38.36ZM 28.74 36.38C 28.74 36.38 28.74 8.42 28.74 8.42 29.09 8.52 29.45 8.57 29.83 8.57 30.21 8.57 30.57 8.52 30.92 8.42 30.92 8.42 30.92 36.38 30.92 36.38 30.92 36.38 28.74 36.38 28.74 36.38ZM 29.83 2.42C 31 2.42 31.94 3.37 31.94 4.54 31.94 5.7 31 6.65 29.83 6.65 28.66 6.65 27.72 5.7 27.72 4.54 27.72 3.37 28.66 2.42 29.83 2.42ZM 10.35 13.83C 10.32 13.83 10.29 13.8 10.29 13.76 10.29 13.76 10.29 13.61 10.29 13.61 10.29 13.57 10.31 13.55 10.34 13.54 10.34 13.54 26.82 10.8 26.82 10.8 26.82 10.8 26.82 13.83 26.82 13.83 26.82 13.83 10.35 13.83 10.35 13.83ZM 40.15 57.3C 40.15 57.3 40.15 57.91 40.15 57.91 40.15 57.91 19.52 57.91 19.52 57.91 19.52 57.91 19.52 57.3 19.52 57.3 19.52 56.82 19.82 56.4 20.28 56.26 20.28 56.26 26.9 54.19 26.9 54.19 26.9 54.19 32.76 54.19 32.76 54.19 32.76 54.19 39.38 56.26 39.38 56.26 39.84 56.4 40.15 56.82 40.15 57.3ZM 32.84 10.89C 32.84 10.89 49.32 13.55 49.32 13.55 49.35 13.55 49.37 13.58 49.37 13.61 49.37 13.61 49.37 13.76 49.37 13.76 49.37 13.8 49.34 13.83 49.31 13.83 49.31 13.83 32.84 13.83 32.84 13.83 32.84 13.83 32.84 10.89 32.84 10.89ZM 48.28 21.21C 48.28 21.21 57.04 40.48 57.04 40.48 57.04 40.48 39.52 40.48 39.52 40.48 39.52 40.48 48.28 21.21 48.28 21.21ZM 48.28 46.63C 43.83 46.63 39.99 44.77 39.16 42.4 39.16 42.4 57.4 42.4 57.4 42.4 56.57 44.77 52.73 46.63 48.28 46.63Z" fill="rgb(65,89,191)"/></svg>