<?xml version="1.0" encoding="utf-8"?>
<svg xmlns="http://www.w3.org/2000/svg"
	xmlns:xlink="http://www.w3.org/1999/xlink"
	width="21px" height="27px" viewBox="0 0 21 27">
<path fillRule="evenodd" d="M 11.05 26.18C 10.91 26.33 10.72 26.41 10.51 26.41 10.31 26.41 10.12 26.33 9.98 26.18 9.59 25.77 0.45 16.03 0.45 10.65 0.45 5.1 4.97 0.59 10.51 0.59 16.06 0.59 20.58 5.1 20.58 10.65 20.58 16.03 11.44 25.77 11.05 26.18ZM 10.51 2.06C 5.78 2.06 1.93 5.91 1.93 10.65 1.93 14.37 7.7 21.49 10.51 24.59 13.33 21.48 19.1 14.37 19.1 10.65 19.1 5.91 15.25 2.06 10.51 2.06ZM 10.51 13.79C 8.17 13.79 6.26 11.89 6.26 9.54 6.26 7.19 8.17 5.28 10.51 5.28 12.86 5.28 14.77 7.19 14.77 9.54 14.77 11.89 12.86 13.79 10.51 13.79ZM 10.51 6.76C 8.98 6.76 7.73 8.01 7.73 9.54 7.73 11.07 8.98 12.32 10.51 12.32 12.05 12.32 13.29 11.07 13.29 9.54 13.29 8.01 12.05 6.76 10.51 6.76Z" fill="rgb(255,255,255)"/></svg>