<?xml version="1.0" encoding="utf-8"?>
<svg xmlns="http://www.w3.org/2000/svg"
	xmlns:xlink="http://www.w3.org/1999/xlink"
	width="60px" height="60px" viewBox="0 0 60 60">
<path fillRule="evenodd" d="M 50.76 59.5C 50.76 59.5 8.89 59.5 8.89 59.5 4.17 59.5 0.33 55.66 0.33 50.94 0.33 50.94 0.33 9.06 0.33 9.06 0.33 4.34 4.17 0.5 8.89 0.5 8.89 0.5 50.76 0.5 50.76 0.5 55.49 0.5 59.33 4.34 59.33 9.06 59.33 9.06 59.33 50.94 59.33 50.94 59.33 55.66 55.49 59.5 50.76 59.5ZM 57.43 9.06C 57.43 5.39 54.44 2.4 50.76 2.4 50.76 2.4 8.89 2.4 8.89 2.4 5.22 2.4 2.23 5.39 2.23 9.06 2.23 9.06 2.23 50.94 2.23 50.94 2.23 54.61 5.22 57.6 8.89 57.6 8.89 57.6 50.76 57.6 50.76 57.6 54.44 57.6 57.43 54.61 57.43 50.94 57.43 50.94 57.43 9.06 57.43 9.06ZM 54.57 30.95C 54.57 30.95 30.78 30.95 30.78 30.95 30.78 30.95 30.78 54.74 30.78 54.74 30.78 55.27 30.35 55.69 29.83 55.69 29.3 55.69 28.88 55.27 28.88 54.74 28.88 54.74 28.88 30.95 28.88 30.95 28.88 30.95 5.09 30.95 5.09 30.95 4.56 30.95 4.14 30.53 4.14 30 4.14 29.47 4.56 29.05 5.09 29.05 5.09 29.05 28.88 29.05 28.88 29.05 28.88 29.05 28.88 5.26 28.88 5.26 28.88 4.73 29.3 4.31 29.83 4.31 30.35 4.31 30.78 4.73 30.78 5.26 30.78 5.26 30.78 29.05 30.78 29.05 30.78 29.05 54.57 29.05 54.57 29.05 55.1 29.05 55.52 29.47 55.52 30 55.52 30.53 55.1 30.95 54.57 30.95ZM 51.72 16.68C 51.72 16.68 36.49 16.68 36.49 16.68 35.96 16.68 35.54 16.25 35.54 15.73 35.54 15.2 35.96 14.77 36.49 14.77 36.49 14.77 51.72 14.77 51.72 14.77 52.24 14.77 52.67 15.2 52.67 15.73 52.67 16.25 52.24 16.68 51.72 16.68ZM 23.17 16.68C 23.17 16.68 16.51 16.68 16.51 16.68 16.51 16.68 16.51 23.34 16.51 23.34 16.51 23.86 16.08 24.29 15.55 24.29 15.03 24.29 14.6 23.86 14.6 23.34 14.6 23.34 14.6 16.68 14.6 16.68 14.6 16.68 7.94 16.68 7.94 16.68 7.42 16.68 6.99 16.25 6.99 15.73 6.99 15.2 7.42 14.77 7.94 14.77 7.94 14.77 14.6 14.77 14.6 14.77 14.6 14.77 14.6 8.11 14.6 8.11 14.6 7.59 15.03 7.16 15.55 7.16 16.08 7.16 16.51 7.59 16.51 8.11 16.51 8.11 16.51 14.77 16.51 14.77 16.51 14.77 23.17 14.77 23.17 14.77 23.69 14.77 24.12 15.2 24.12 15.73 24.12 16.25 23.69 16.68 23.17 16.68ZM 9.17 37.89C 9.54 37.52 10.15 37.52 10.52 37.89 10.52 37.89 15.55 42.93 15.55 42.93 15.55 42.93 20.59 37.89 20.59 37.89 20.96 37.52 21.57 37.52 21.94 37.89 22.31 38.26 22.31 38.87 21.94 39.24 21.94 39.24 16.9 44.27 16.9 44.27 16.9 44.27 21.94 49.31 21.94 49.31 22.31 49.68 22.31 50.28 21.94 50.66 21.75 50.84 21.51 50.94 21.26 50.94 21.02 50.94 20.78 50.84 20.59 50.66 20.59 50.66 15.55 45.62 15.55 45.62 15.55 45.62 10.52 50.66 10.52 50.66 10.33 50.84 10.09 50.94 9.85 50.94 9.6 50.94 9.36 50.84 9.17 50.66 8.8 50.28 8.8 49.68 9.17 49.31 9.17 49.31 14.21 44.27 14.21 44.27 14.21 44.27 9.17 39.24 9.17 39.24 8.8 38.87 8.8 38.26 9.17 37.89ZM 41.25 38.56C 41.25 36.99 42.53 35.71 44.1 35.71 45.68 35.71 46.96 36.99 46.96 38.56 46.96 40.14 45.68 41.42 44.1 41.42 42.53 41.42 41.25 40.14 41.25 38.56ZM 45.05 38.56C 45.05 38.04 44.63 37.61 44.1 37.61 43.58 37.61 43.15 38.04 43.15 38.56 43.15 39.09 43.58 39.52 44.1 39.52 44.63 39.52 45.05 39.09 45.05 38.56ZM 36.49 43.32C 36.49 43.32 51.72 43.32 51.72 43.32 52.24 43.32 52.67 43.75 52.67 44.27 52.67 44.8 52.24 45.23 51.72 45.23 51.72 45.23 36.49 45.23 36.49 45.23 35.96 45.23 35.54 44.8 35.54 44.27 35.54 43.75 35.96 43.32 36.49 43.32ZM 44.1 47.13C 45.68 47.13 46.96 48.41 46.96 49.98 46.96 51.56 45.68 52.84 44.1 52.84 42.53 52.84 41.25 51.56 41.25 49.98 41.25 48.41 42.53 47.13 44.1 47.13ZM 44.1 50.94C 44.63 50.94 45.05 50.51 45.05 49.98 45.05 49.46 44.63 49.03 44.1 49.03 43.58 49.03 43.15 49.46 43.15 49.98 43.15 50.51 43.58 50.94 44.1 50.94Z" fill="rgb(228,188,65)"/></svg>