<?xml version="1.0" encoding="utf-8"?>
<svg xmlns="http://www.w3.org/2000/svg"
	xmlns:xlink="http://www.w3.org/1999/xlink"
	width="23px" height="23px" viewBox="0 0 23 23">
<path fillRule="evenodd" d="M 21.63 10.48C 21.6 10.49 21.56 10.49 21.53 10.49 21.22 10.49 20.96 10.28 20.9 9.97 20.54 7.79 19.51 5.81 17.93 4.23 16.35 2.65 14.37 1.62 12.19 1.25 11.84 1.19 11.62 0.87 11.67 0.52 11.73 0.18 12.06-0.05 12.4 0.01 14.83 0.42 17.05 1.57 18.82 3.34 20.58 5.1 21.73 7.32 22.15 9.76 22.21 10.1 21.97 10.43 21.63 10.48ZM 12.22 4.02C 13.7 4.27 15.05 4.97 16.12 6.04 17.19 7.11 17.89 8.46 18.14 9.94 18.2 10.29 17.97 10.62 17.63 10.67 17.59 10.68 17.56 10.68 17.52 10.68 17.22 10.68 16.95 10.47 16.9 10.16 16.69 8.94 16.11 7.82 15.23 6.94 14.34 6.05 13.23 5.47 12 5.26 11.66 5.21 11.43 4.88 11.49 4.54 11.56 4.19 11.88 3.97 12.22 4.02ZM 8.04 8.18C 7.69 8.53 7.34 8.9 6.96 9.25 7.24 9.88 7.63 10.5 8.22 11.24 9.42 12.72 10.68 13.86 12.06 14.74 12.2 14.82 12.35 14.9 12.52 14.99 12.64 15.05 12.76 15.11 12.88 15.18 12.88 15.18 14.36 13.7 14.36 13.7 14.83 13.23 15.38 12.98 15.95 12.98 16.53 12.98 17.08 13.24 17.53 13.71 17.53 13.71 20.1 16.28 20.1 16.28 20.57 16.75 20.82 17.31 20.82 17.88 20.82 18.46 20.57 19.02 20.11 19.5 19.91 19.71 19.7 19.91 19.5 20.1 19.21 20.39 18.93 20.65 18.69 20.95 18.68 20.96 18.67 20.96 18.67 20.97 17.96 21.74 17.05 22.13 15.97 22.13 15.88 22.13 15.78 22.13 15.68 22.12 14.08 22.02 12.64 21.42 11.57 20.91 8.76 19.55 6.3 17.62 4.25 15.18 2.57 13.15 1.44 11.26 0.68 9.22 0.37 8.38-0.03 7.11 0.08 5.75 0.16 4.9 0.5 4.18 1.1 3.58 1.1 3.58 2.68 1.98 2.68 1.98 2.69 1.97 2.69 1.97 2.69 1.97 3.16 1.52 3.71 1.28 4.28 1.28 4.85 1.28 5.39 1.52 5.84 1.97 6.15 2.25 6.44 2.55 6.72 2.84 6.86 2.98 7.01 3.13 7.16 3.28 7.16 3.28 8.43 4.55 8.43 4.55 9.41 5.53 9.41 6.81 8.43 7.79 8.3 7.92 8.17 8.05 8.04 8.18ZM 7.54 5.45C 7.54 5.45 6.27 4.17 6.27 4.17 6.12 4.02 5.97 3.87 5.83 3.72 5.54 3.42 5.27 3.15 4.99 2.88 4.98 2.88 4.98 2.87 4.97 2.87 4.82 2.72 4.58 2.54 4.29 2.54 4.05 2.54 3.81 2.66 3.58 2.87 3.58 2.87 1.99 4.47 1.99 4.47 1.6 4.85 1.39 5.31 1.34 5.85 1.27 6.71 1.43 7.61 1.87 8.78 2.57 10.68 3.64 12.46 5.23 14.38 7.16 16.68 9.48 18.5 12.12 19.78 13.09 20.24 14.38 20.78 15.76 20.87 15.83 20.87 15.91 20.87 15.98 20.87 16.71 20.87 17.26 20.64 17.73 20.13 18.02 19.79 18.33 19.49 18.63 19.2 18.84 19 19.02 18.82 19.2 18.63 19.68 18.13 19.68 17.64 19.2 17.17 19.2 17.17 16.63 14.59 16.63 14.59 16.62 14.59 16.62 14.59 16.62 14.58 16.47 14.42 16.23 14.24 15.94 14.24 15.65 14.24 15.4 14.43 15.24 14.59 15.24 14.59 13.64 16.19 13.64 16.19 13.56 16.27 13.32 16.51 12.93 16.51 12.78 16.51 12.63 16.47 12.47 16.39 12.45 16.38 12.43 16.37 12.41 16.36 12.28 16.28 12.12 16.2 11.95 16.11 11.77 16.02 11.57 15.92 11.38 15.8 9.88 14.85 8.52 13.61 7.23 12.03 7.23 12.03 7.23 12.02 7.23 12.02 6.52 11.12 6.05 10.36 5.72 9.56 5.71 9.55 5.71 9.53 5.7 9.52 5.62 9.25 5.55 8.86 5.95 8.46 5.95 8.45 5.96 8.44 5.97 8.44 6.38 8.07 6.75 7.7 7.14 7.3 7.28 7.16 7.41 7.03 7.54 6.89 8.04 6.4 8.04 5.94 7.54 5.45Z" fill="rgb(255,255,255)"/></svg>