<?xml version="1.0" encoding="utf-8"?>
<svg xmlns="http://www.w3.org/2000/svg"
	xmlns:xlink="http://www.w3.org/1999/xlink"
	width="58px" height="58px" viewBox="0 0 58 58">
<path fillRule="evenodd" d="M 49.15 49.15C 43.76 54.53 36.62 57.5 29 57.5 21.38 57.5 14.24 54.53 8.85 49.15 3.47 43.76 0.5 36.62 0.5 29 0.5 21.38 3.47 14.24 8.85 8.85 14.24 3.47 21.38 0.5 29 0.5 36.62 0.5 43.76 3.47 49.15 8.85 54.53 14.24 57.5 21.38 57.5 29 57.5 36.62 54.53 43.76 49.15 49.15ZM 29 1.9C 14.06 1.9 1.9 14.06 1.9 29 1.9 43.94 14.06 56.1 29 56.1 43.94 56.1 56.1 43.94 56.1 29 56.1 14.06 43.94 1.9 29 1.9ZM 29.49 34.99C 29.21 35.26 28.77 35.26 28.5 34.99 28.5 34.99 19.7 26.2 19.7 26.2 19.56 26.07 19.49 25.88 19.49 25.71 19.49 25.53 19.56 25.36 19.7 25.22 19.98 24.95 20.43 24.95 20.68 25.2 20.68 25.2 28.99 33.51 28.99 33.51 28.99 33.51 37.29 25.2 37.29 25.2 37.57 24.93 38.02 24.93 38.29 25.2 38.55 25.48 38.55 25.93 38.29 26.2 38.29 26.2 29.49 34.99 29.49 34.99Z" fill="rgb(255,255,255)"/></svg>