<?xml version="1.0" encoding="utf-8"?>
<svg xmlns="http://www.w3.org/2000/svg"
	xmlns:xlink="http://www.w3.org/1999/xlink"
	width="36px" height="36px" viewBox="0 0 36 36">
<path fillRule="evenodd" d="M 18 36C 8.07 36-0 27.93-0 18-0 8.07 8.07-0 18-0 27.92-0 36 8.07 36 18 36 27.93 27.92 36 18 36ZM 18 1.38C 8.84 1.38 1.38 8.84 1.38 18 1.38 27.16 8.84 34.62 18 34.62 27.16 34.62 34.62 27.16 34.62 18 34.62 8.84 27.16 1.38 18 1.38ZM 24.72 24.72C 24.58 24.86 24.41 24.92 24.23 24.92 24.05 24.92 23.88 24.86 23.74 24.72 23.74 24.72 18 18.98 18 18.98 18 18.98 12.26 24.72 12.26 24.72 12.12 24.86 11.95 24.92 11.77 24.92 11.59 24.92 11.41 24.86 11.28 24.72 11.01 24.45 11.01 24.01 11.28 23.74 11.28 23.74 17.02 18 17.02 18 17.02 18 11.28 12.26 11.28 12.26 11.01 11.99 11.01 11.55 11.28 11.28 11.55 11.01 11.99 11.01 12.26 11.28 12.26 11.28 18 17.02 18 17.02 18 17.02 23.74 11.28 23.74 11.28 24.01 11.01 24.45 11.01 24.72 11.28 24.99 11.55 24.99 11.99 24.72 12.26 24.72 12.26 18.98 18 18.98 18 18.98 18 24.72 23.74 24.72 23.74 24.99 24.01 24.99 24.45 24.72 24.72Z" fill="rgb(255,255,255)"/></svg>