<?xml version="1.0" encoding="utf-8"?>
<svg xmlns="http://www.w3.org/2000/svg"
	xmlns:xlink="http://www.w3.org/1999/xlink"
	width="60px" height="60px" viewBox="0 0 60 60">
<path fillRule="evenodd" d="M 60 30C 60 13.46 46.54-0 30-0 13.46-0-0 13.46-0 30-0 36.14 1.86 41.86 5.04 46.62 5.04 46.62 5.04 46.64 5.04 46.64 5.04 46.64 5.24 46.94 5.24 46.94 5.42 47.2 5.62 47.45 5.8 47.71 5.88 47.81 5.96 47.92 6.03 48.02 6.27 48.34 6.52 48.65 6.77 48.95 6.84 49.04 6.91 49.13 6.98 49.22 8.14 50.6 9.41 51.87 10.78 53.01 10.86 53.08 10.94 53.15 11.03 53.22 11.32 53.46 11.62 53.7 11.93 53.93 12.06 54.02 12.18 54.11 12.31 54.21 12.6 54.42 12.89 54.63 13.19 54.84 13.35 54.94 13.52 55.05 13.68 55.15 14.09 55.42 14.51 55.68 14.94 55.93 15.24 56.11 15.54 56.28 15.84 56.44 16.03 56.54 16.22 56.63 16.4 56.73 16.73 56.89 17.05 57.06 17.38 57.21 17.55 57.29 17.72 57.36 17.89 57.44 18.27 57.61 18.66 57.77 19.05 57.92 19.17 57.97 19.29 58.02 19.41 58.07 20.48 58.47 21.59 58.82 22.71 59.1 22.76 59.11 22.81 59.12 22.85 59.13 23.35 59.26 23.85 59.36 24.36 59.46 24.5 59.49 24.63 59.51 24.77 59.53 24.79 59.54 24.81 59.54 24.83 59.54 24.83 59.54 24.82 59.56 24.82 59.56 24.82 59.56 25.35 59.64 25.35 59.64 25.47 59.66 25.59 59.67 25.71 59.69 25.71 59.69 25.82 59.7 25.82 59.7 25.84 59.71 25.86 59.71 25.88 59.71 25.94 59.72 25.99 59.72 26.05 59.73 26.21 59.75 26.37 59.77 26.54 59.79 26.93 59.84 27.33 59.88 27.73 59.91 27.82 59.91 27.9 59.92 27.99 59.93 28.08 59.93 28.18 59.94 28.27 59.95 28.85 59.98 29.42 60 30 60 30.58 60 31.15 59.98 31.72 59.95 31.82 59.94 31.92 59.93 32.02 59.93 32.1 59.92 32.19 59.91 32.27 59.9 32.67 59.87 33.07 59.84 33.46 59.79 33.63 59.77 33.79 59.75 33.95 59.73 34.02 59.72 34.08 59.71 34.15 59.71 34.17 59.7 34.19 59.7 34.21 59.7 34.21 59.7 34.31 59.69 34.31 59.69 34.42 59.67 34.54 59.66 34.65 59.64 34.65 59.64 35.21 59.56 35.21 59.56 35.21 59.56 35.21 59.54 35.21 59.54 35.22 59.54 35.22 59.53 35.23 59.53 35.37 59.51 35.5 59.49 35.64 59.46 36.15 59.36 36.65 59.25 37.15 59.13 37.19 59.12 37.24 59.11 37.29 59.1 38.41 58.82 39.52 58.47 40.59 58.06 40.71 58.02 40.83 57.97 40.95 57.92 41.34 57.77 41.73 57.6 42.11 57.44 42.28 57.36 42.45 57.29 42.62 57.21 42.95 57.05 43.27 56.89 43.6 56.73 43.79 56.63 43.97 56.54 44.16 56.44 44.46 56.28 44.76 56.1 45.06 55.93 45.49 55.68 45.91 55.42 46.32 55.15 46.49 55.05 46.65 54.94 46.81 54.83 47.11 54.63 47.4 54.42 47.69 54.21 47.82 54.11 47.95 54.02 48.07 53.93 48.38 53.7 48.68 53.46 48.98 53.22 49.06 53.15 49.14 53.08 49.22 53.01 50.59 51.87 51.86 50.6 53.02 49.21 53.09 49.13 53.16 49.04 53.23 48.95 53.48 48.65 53.73 48.34 53.97 48.02 54.04 47.92 54.12 47.81 54.2 47.71 54.38 47.45 54.58 47.2 54.76 46.94 54.76 46.94 54.96 46.64 54.96 46.64 54.96 46.64 54.96 46.62 54.96 46.62 58.14 41.86 60 36.14 60 30ZM 58 30C 58 34.97 56.69 39.64 54.41 43.69 52.8 38.37 48.08 34.5 42.42 34.05 42.42 34.05 42.39 34 42.39 34 42.39 34 41.31 34 41.31 34 41.31 34 36.53 34 36.53 34 36.53 34 35.37 34 35.37 34 35.16 34 35 33.84 35 33.63 35 33.63 35 32.99 35 32.99 35 32.81 35.15 32.69 35.28 32.64 41.71 30.22 45.73 20.17 44.89 13.15 44.45 9.49 42.64 6.22 40.01 3.85 50.52 7.89 58 18.09 58 30ZM 52.54 46.59C 52.46 46.7 52.38 46.81 52.29 46.91 52.07 47.21 51.85 47.5 51.61 47.78 51.59 47.81 51.56 47.84 51.54 47.87 50.73 48.84 49.86 49.76 48.93 50.61 48.87 50.66 48.82 50.71 48.76 50.76 48.48 51.02 48.2 51.26 47.91 51.5 47.82 51.57 47.73 51.65 47.64 51.72 47.36 51.95 47.08 52.17 46.79 52.39 46.7 52.46 46.6 52.53 46.5 52.6 46.33 52.72 46.17 52.84 46 52.96 46 52.96 46 48 46 48 46 48 44 48 44 48 44 48 44 54.23 44 54.23 43.96 54.26 43.92 54.28 43.88 54.3 43.63 54.45 43.37 54.59 43.11 54.73 42.94 54.82 42.76 54.91 42.58 55 42.27 55.16 41.97 55.3 41.66 55.44 41.51 55.51 41.36 55.58 41.21 55.65 40.83 55.82 40.44 55.98 40.05 56.13 39.97 56.16 39.89 56.19 39.81 56.22 38.81 56.6 37.78 56.91 36.74 57.17 36.67 57.19 36.59 57.21 36.52 57.22 36.09 57.33 35.65 57.42 35.21 57.5 35.11 57.52 35.01 57.54 34.91 57.56 34.91 57.56 33.16 46 33.16 46 33.16 46 34 46 34 46 34 46 34 43.53 34 43.53 34 43.53 38.47 46.51 38.47 46.51 38.47 46.51 42.64 36.08 42.64 36.08 47.92 36.68 52.17 40.76 52.89 46.09 52.77 46.26 52.66 46.43 52.54 46.59ZM 23.48 57.23C 23.41 57.21 23.33 57.19 23.26 57.17 22.22 56.91 21.19 56.6 20.19 56.22 20.11 56.19 20.03 56.16 19.95 56.13 19.56 55.98 19.17 55.82 18.79 55.65 18.64 55.58 18.49 55.51 18.34 55.45 18.03 55.3 17.72 55.16 17.42 55.01 17.24 54.91 17.06 54.82 16.89 54.73 16.63 54.59 16.37 54.45 16.12 54.3 16.08 54.28 16.04 54.26 16 54.23 16 54.23 16 48 16 48 16 48 14 48 14 48 14 48 14 52.96 14 52.96 13.83 52.84 13.66 52.72 13.5 52.6 13.4 52.53 13.3 52.46 13.2 52.39 12.92 52.17 12.64 51.95 12.36 51.72 12.27 51.65 12.17 51.57 12.08 51.5 11.8 51.26 11.51 51.02 11.24 50.77 11.18 50.71 11.13 50.66 11.07 50.61 10.14 49.76 9.27 48.84 8.46 47.87 8.44 47.84 8.41 47.81 8.39 47.78 8.15 47.5 7.93 47.21 7.7 46.91 7.62 46.81 7.54 46.7 7.46 46.59 7.34 46.43 7.23 46.26 7.11 46.09 7.83 40.76 12.08 36.68 17.36 36.08 17.36 36.08 21.53 46.51 21.53 46.51 21.53 46.51 26 43.53 26 43.53 26 43.53 26 46 26 46 26 46 26.84 46 26.84 46 26.84 46 25.12 57.57 25.12 57.57 25.01 57.55 24.9 57.53 24.78 57.51 24.35 57.42 23.91 57.33 23.48 57.23ZM 25.49 30.79C 20.71 29.02 17 20.85 17 15 17 14.87 17.01 14.75 17.02 14.62 17.02 14.62 17.75 13.72 17.75 13.72 19.4 11.75 22.22 11.19 24.76 12.32 25.78 12.77 26.87 13 28 13 30.97 13 33.64 11.38 35.03 8.82 38.21 9.86 41.05 11.83 42.97 14.31 43.26 20.41 39.68 28.85 34.57 30.77 33.62 31.13 33 32 33 32.99 33 32.99 33 33.63 33 33.63 33 34.78 33.82 35.74 34.9 35.95 34.9 35.95 33.2 38 33.2 38 33.2 38 26.8 38 26.8 38 26.8 38 25.1 35.95 25.1 35.95 26.18 35.74 27 34.78 27 33.63 27 33.63 27 33 27 33 27 32.01 26.39 31.13 25.49 30.79ZM 30.04 2C 30.05 2 30.06 2 30.07 2 30.56 2 31.04 2.03 31.5 2.08 36.46 2.64 40.63 6.09 42.25 10.67 40.14 8.83 37.55 7.41 34.76 6.65 34.76 6.65 33.9 6.41 33.9 6.41 33.9 6.41 33.56 7.24 33.56 7.24 32.64 9.52 30.46 11 28 11 27.15 11 26.34 10.83 25.57 10.49 22.81 9.26 19.79 9.6 17.56 11.22 18.17 9.19 19.28 7.34 20.82 5.8 23.27 3.35 26.53 2 30.04 2ZM 34 40.16C 34 40.16 37.47 36 37.47 36 37.47 36 40.52 36 40.52 36 40.52 36 37.53 43.48 37.53 43.48 37.53 43.48 34 41.13 34 41.13 34 41.13 34 40.16 34 40.16ZM 32.36 57.89C 32.09 57.91 31.82 57.94 31.56 57.95 31.04 57.98 30.52 58 30.01 58 29.97 58 29.94 58 29.9 58 29.42 57.99 28.93 57.98 28.45 57.95 28.19 57.94 27.92 57.91 27.66 57.89 27.47 57.87 27.29 57.86 27.1 57.84 27.1 57.84 28.86 46 28.86 46 28.86 46 31.14 46 31.14 46 31.14 46 32.92 57.84 32.92 57.84 32.74 57.86 32.55 57.87 32.36 57.89ZM 32 44C 32 44 28 44 28 44 28 44 28 42.2 28 42.2 28 42.2 28 40 28 40 28 40 32 40 32 40 32 40 32 42.2 32 42.2 32 42.2 32 44 32 44ZM 26 40.16C 26 40.16 26 41.13 26 41.13 26 41.13 22.47 43.48 22.47 43.48 22.47 43.48 19.48 36 19.48 36 19.48 36 22.53 36 22.53 36 22.53 36 26 40.16 26 40.16ZM 19.98 3.86C 19.79 4.03 19.59 4.2 19.4 4.38 16.56 7.22 15 10.99 15 15 15 21.63 19.19 30.59 24.8 32.67 24.92 32.71 25 32.85 25 33 25 33 25 33.63 25 33.63 25 33.84 24.84 34 24.63 34 24.63 34 23.47 34 23.47 34 23.47 34 18.69 34 18.69 34 18.69 34 18.14 34 18.14 34 18.05 34 17.95 34.01 17.86 34.04 12.08 34.38 7.23 38.28 5.59 43.69 3.31 39.64 2 34.97 2 30 2 18.09 9.48 7.9 19.98 3.86Z" fill="rgb(65,89,191)"/></svg>