<?xml version="1.0" encoding="utf-8"?>
<svg xmlns="http://www.w3.org/2000/svg"
	xmlns:xlink="http://www.w3.org/1999/xlink"
	width="55px" height="58px" viewBox="0 0 55 58">
<path fillRule="evenodd" d="M 55 35C 55 37.44 53.24 39.48 50.93 39.91 51.6 40.76 52 41.84 52 43 52 45.44 50.24 47.48 47.93 47.91 48.6 48.76 49 49.84 49 51 49 53.76 46.76 56 44 56 44 56 16 56 16 56 16 56 16 58 16 58 16 58-0 58-0 58-0 58-0 20-0 20-0 20 16 20 16 20 16 20 16 22 16 22 16 22 17 22 17 22 17.09 21.98 18.67 21.99 20.32 20.36 22 18.69 24 15.02 24 7 24 0.91 26.68-0 28.27-0 28.27-0 28.51-0 28.51-0 31.87-0 34.96 3.91 35.48 7.4 35.7 8.87 36.34 14.04 35.36 18.59 35.36 18.59 34.63 22 34.63 22 34.63 22 49 22 49 22 51.76 22 54 24.24 54 27 54 28.5 53.33 29.85 52.28 30.77 53.62 31.34 55 32.5 55 35ZM 14 22C 14 22 2 22 2 22 2 22 2 56 2 56 2 56 14 56 14 56 14 56 14 22 14 22ZM 49 24C 49 24 32.16 24 32.16 24 32.16 24 33.41 18.17 33.41 18.17 34.31 13.95 33.71 9.08 33.5 7.69 33.12 5.13 30.74 2 28.51 2 28.51 2 28.27 2 28.27 2 26.29 2 26 5.13 26 7 26 14.06 24.54 19.06 21.65 21.85 19.39 24.05 17.07 24.02 16.97 24 16.97 24 16 24 16 24 16 24 16 54 16 54 16 54 44 54 44 54 45.65 54 47 52.65 47 51 47 49.35 45.65 48 44 48 44 48 37 48 37 48 36.45 48 36 47.55 36 47 36 46.45 36.45 46 37 46 37 46 44 46 44 46 44 46 45 46 45 46 45 46 47 46 47 46 48.65 46 50 44.65 50 43 50 41.35 48.65 40 47 40 47 40 39 40 39 40 38.45 40 38 39.55 38 39 38 38.45 38.45 38 39 38 39 38 47 38 47 38 47 38 50 38 50 38 51.65 38 53 36.65 53 35 53 33.59 52.46 32.58 49.85 32.19 48.82 32.04 46.88 32 46 32 46 32 39 32 39 32 38.45 32 38 31.55 38 31 38 30.45 38.45 30 39 30 39 30 46 30 46 30 46 30 47 30 47 30 47 30 49 30 49 30 50.65 30 52 28.65 52 27 52 25.35 50.65 24 49 24ZM 8 43C 10.76 43 13 45.24 13 48 13 50.76 10.76 53 8 53 5.24 53 3 50.76 3 48 3 45.24 5.24 43 8 43ZM 8 51C 9.65 51 11 49.65 11 48 11 46.35 9.65 45 8 45 6.35 45 5 46.35 5 48 5 49.65 6.35 51 8 51Z" fill="rgb(65,89,191)"/></svg>