<?xml version="1.0" encoding="utf-8"?>
<svg xmlns="http://www.w3.org/2000/svg"
	xmlns:xlink="http://www.w3.org/1999/xlink"
	width="48px" height="60px" viewBox="0 0 48 60">
<path fillRule="evenodd" d="M 5 60C 5 60 5 55 5 55 5 55-0 55-0 55-0 55-0-0-0-0-0-0 43-0 43-0 43-0 43 14.59 43 14.59 43 14.59 48 19.59 48 19.59 48 19.59 48 60 48 60 48 60 5 60 5 60ZM 41 2C 41 2 2 2 2 2 2 2 2 53 2 53 2 53 5 53 5 53 5 53 5 5 5 5 5 5 33.41 5 33.41 5 33.41 5 41 12.59 41 12.59 41 12.59 41 2 41 2ZM 43 17.41C 43 17.41 34 8.41 34 8.41 34 8.41 34 19 34 19 34 19 44.59 19 44.59 19 44.59 19 43 17.41 43 17.41ZM 46 21C 46 21 32 21 32 21 32 21 32 7 32 7 32 7 7 7 7 7 7 7 7 55 7 55 7 55 7 58 7 58 7 58 46 58 46 58 46 58 46 21 46 21ZM 14 17C 14 17 24 17 24 17 24.55 17 25 17.45 25 18 25 18.55 24.55 19 24 19 24 19 14 19 14 19 13.45 19 13 18.55 13 18 13 17.45 13.45 17 14 17ZM 14 25C 14 25 39 25 39 25 39.55 25 40 25.45 40 26 40 26.55 39.55 27 39 27 39 27 14 27 14 27 13.45 27 13 26.55 13 26 13 25.45 13.45 25 14 25ZM 14 33C 14 33 39 33 39 33 39.55 33 40 33.45 40 34 40 34.55 39.55 35 39 35 39 35 14 35 14 35 13.45 35 13 34.55 13 34 13 33.45 13.45 33 14 33ZM 14 41C 14 41 39 41 39 41 39.55 41 40 41.45 40 42 40 42.55 39.55 43 39 43 39 43 14 43 14 43 13.45 43 13 42.55 13 42 13 41.45 13.45 41 14 41ZM 14 49C 14 49 39 49 39 49 39.55 49 40 49.45 40 50 40 50.55 39.55 51 39 51 39 51 14 51 14 51 13.45 51 13 50.55 13 50 13 49.45 13.45 49 14 49Z" fill="rgb(65,89,191)"/></svg>