<?xml version="1.0" encoding="utf-8"?>
<svg xmlns="http://www.w3.org/2000/svg"
	xmlns:xlink="http://www.w3.org/1999/xlink"
	width="21px" height="21px" viewBox="0 0 21 21">
<path fillRule="evenodd" d="M 17.75 3.26C 15.82 1.33 13.25 0.27 10.51 0.27 7.78 0.27 5.21 1.33 3.28 3.26 1.35 5.2 0.28 7.77 0.28 10.5 0.28 13.23 1.35 15.8 3.28 17.74 5.21 19.67 7.78 20.73 10.51 20.73 11.9 20.73 13.24 20.46 14.5 19.93 14.5 19.93 14.01 18.76 14.01 18.76 12.9 19.23 11.73 19.47 10.51 19.47 5.57 19.47 1.55 15.44 1.55 10.5 1.55 5.55 5.57 1.53 10.51 1.53 15.46 1.53 19.48 5.55 19.48 10.5 19.48 12.67 18.15 13.65 16.92 13.65 15.68 13.65 14.35 12.67 14.35 10.5 14.35 8.39 12.63 6.67 10.51 6.67 8.4 6.67 6.68 8.39 6.68 10.5 6.68 12.61 8.4 14.33 10.51 14.33 11.77 14.33 12.88 13.73 13.58 12.8 13.76 13.16 13.98 13.49 14.26 13.77 14.96 14.51 15.9 14.92 16.92 14.92 17.93 14.92 18.87 14.51 19.57 13.77 20.34 12.97 20.75 11.83 20.75 10.5 20.75 7.77 19.68 5.2 17.75 3.26ZM 10.51 13.07C 9.1 13.07 7.95 11.91 7.95 10.5 7.95 9.08 9.1 7.93 10.51 7.93 11.93 7.93 13.08 9.08 13.08 10.5 13.08 11.91 11.93 13.07 10.51 13.07Z" fill="rgb(255,255,255)"/></svg>