<?xml version="1.0" encoding="UTF-8" standalone="no"?>
<svg xmlns:dc="http://purl.org/dc/elements/1.1/" xmlns:cc="http://creativecommons.org/ns#" xmlns:rdf="http://www.w3.org/1999/02/22-rdf-syntax-ns#" xmlns:svg="http://www.w3.org/2000/svg" xmlns="http://www.w3.org/2000/svg" viewBox="0 0 53 53" height="53" width="53" xml:space="preserve" id="svg2" version="1.1">
    <metadata id="metadata8">
        <rdf:RDF>
            <cc:Work rdf:about="">
                <dc:format>image/svg+xml</dc:format>
                <dc:type rdf:resource="http://purl.org/dc/dcmitype/StillImage" />
            </cc:Work>
        </rdf:RDF>
    </metadata>
    <defs id="defs6" />
    <g id="g10">
        <g transform="scale(0.09)" id="g12">
            <path id="path14" style="fill:#e8bd16;fill-opacity:1;fill-rule:evenodd;stroke:none" d="M 195.176,204.805 30.4727,40.0977 v 87.4183 c 0,6.363 -5.1602,11.523 -11.5235,11.523 -6.3633,0 -11.52342,-5.16 -11.52342,-11.523 V 12.2813 C 7.42578,5.91797 12.5859,0.757813 18.9492,0.757813 H 134.184 c 6.363,0 11.527,5.160157 11.527,11.523487 0,6.3632 -5.164,11.5234 -11.527,11.5234 H 46.7656 L 211.473,188.508 c 4.418,4.578 4.297,11.875 -0.282,16.297 -4.464,4.312 -11.55,4.312 -16.015,0 v 0" />
            <path id="path16" style="fill:#e8bd16;fill-opacity:1;fill-rule:evenodd;stroke:none" d="M 525.98,530.836 H 410.746 c -6.363,0 -11.527,-5.16 -11.527,-11.523 0,-6.364 5.164,-11.524 11.527,-11.524 h 87.418 L 333.457,343.086 c -4.574,-4.422 -4.703,-11.719 -0.285,-16.297 4.426,-4.574 11.719,-4.703 16.297,-0.281 0.097,0.09 0.191,0.187 0.285,0.281 l 164.703,164.707 v -87.418 c 0,-6.363 5.16,-11.527 11.523,-11.527 6.364,0 11.524,5.164 11.524,11.527 v 115.235 c 0,6.363 -5.16,11.523 -11.524,11.523" />
            <path id="path18" style="fill:#e8bd16;fill-opacity:1;fill-rule:evenodd;stroke:none" d="m 46.7656,507.789 h 87.4184 c 6.363,0 11.527,5.16 11.527,11.524 0,6.363 -5.164,11.523 -11.527,11.523 H 18.9492 c -6.3633,0 -11.52342,-5.16 -11.52342,-11.523 V 404.078 c 0,-6.363 5.16012,-11.527 11.52342,-11.527 6.3633,0 11.5235,5.164 11.5235,11.527 v 87.418 L 195.176,326.789 c 4.578,-4.422 11.875,-4.293 16.297,0.285 4.312,4.465 4.312,11.547 0,16.012 L 46.7656,507.789" />
            <path id="path20" style="fill:#e8bd16;fill-opacity:1;fill-rule:evenodd;stroke:none" d="m 525.98,139.039 c -6.363,0 -11.523,-5.16 -11.523,-11.523 V 40.0977 L 349.754,204.805 c -4.578,4.422 -11.871,4.293 -16.297,-0.285 -4.312,-4.461 -4.312,-11.547 0,-16.012 L 498.164,23.8047 h -87.418 c -6.363,0 -11.527,-5.1602 -11.527,-11.5234 0,-6.36333 5.164,-11.523487 11.527,-11.523487 H 525.98 c 6.364,0 11.524,5.160157 11.524,11.523487 V 127.516 c 0,6.363 -5.16,11.523 -11.524,11.523" />
        </g>
    </g>
</svg>
