<?xml version="1.0" encoding="utf-8"?>
<svg xmlns="http://www.w3.org/2000/svg"
	xmlns:xlink="http://www.w3.org/1999/xlink"
	width="52px" height="59px" viewBox="0 0 52 59">
<path fillRule="evenodd" d="M 10 47C 10 47.55 9.55 48 9 48 9 48 9 53 9 53 9 53.55 8.55 54 8 54 7.45 54 7 53.55 7 53 7 53 7 48 7 48 6.45 48 6 47.55 6 47 6 46.45 6.45 46 7 46 7 46 7 38 7 38 6.45 38 6 37.55 6 37 6 36.45 6.45 36 7 36 7 36 7 28 7 28 6.45 28 6 27.55 6 27 6 26.45 6.45 26 7 26 7 26 7 18 7 18 6.45 18 6 17.55 6 17 6 16.45 6.45 16 7 16 7 16 7 12 7 12 7 11.45 7.45 11 8 11 8.55 11 9 11.45 9 12 9 12 9 16 9 16 9.55 16 10 16.45 10 17 10 17.55 9.55 18 9 18 9 18 9 26 9 26 9.55 26 10 26.45 10 27 10 27.55 9.55 28 9 28 9 28 9 36 9 36 9.55 36 10 36.45 10 37 10 37.55 9.55 38 9 38 9 38 9 46 9 46 9.55 46 10 46.45 10 47ZM 15 48C 15 48 13 48 13 48 12.45 48 12 47.55 12 47 12 46.45 12.45 46 13 46 13 46 15 46 15 46 15.55 46 16 46.45 16 47 16 47.55 15.55 48 15 48ZM 15 38C 15 38 13 38 13 38 12.45 38 12 37.55 12 37 12 36.45 12.45 36 13 36 13 36 15 36 15 36 15.55 36 16 36.45 16 37 16 37.55 15.55 38 15 38ZM 15 18C 15 18 13 18 13 18 12.45 18 12 17.55 12 17 12 16.45 12.45 16 13 16 13 16 15 16 15 16 15.55 16 16 16.45 16 17 16 17.55 15.55 18 15 18ZM 15 28C 15 28 13 28 13 28 12.45 28 12 27.55 12 27 12 26.45 12.45 26 13 26 13 26 15 26 15 26 15.55 26 16 26.45 16 27 16 27.55 15.55 28 15 28ZM 43 16C 43 16 45 16 45 16 45.55 16 46 16.45 46 17 46 17.55 45.55 18 45 18 45 18 43 18 43 18 42.45 18 42 17.55 42 17 42 16.45 42.45 16 43 16ZM 43 36C 43 36 45 36 45 36 45.55 36 46 36.45 46 37 46 37.55 45.55 38 45 38 45 38 43 38 43 38 42.45 38 42 37.55 42 37 42 36.45 42.45 36 43 36ZM 43 26C 43 26 45 26 45 26 45.55 26 46 26.45 46 27 46 27.55 45.55 28 45 28 45 28 43 28 43 28 42.45 28 42 27.55 42 27 42 26.45 42.45 26 43 26ZM 37 16C 37 16 39 16 39 16 39.55 16 40 16.45 40 17 40 17.55 39.55 18 39 18 39 18 37 18 37 18 36.45 18 36 17.55 36 17 36 16.45 36.45 16 37 16ZM 37 36C 37 36 39 36 39 36 39.55 36 40 36.45 40 37 40 37.55 39.55 38 39 38 39 38 37 38 37 38 36.45 38 36 37.55 36 37 36 36.45 36.45 36 37 36ZM 37 26C 37 26 39 26 39 26 39.55 26 40 26.45 40 27 40 27.55 39.55 28 39 28 39 28 37 28 37 28 36.45 28 36 27.55 36 27 36 26.45 36.45 26 37 26ZM 39.41 59C 39.41 59 38 59 38 59 38 59-0 59-0 59-0 59-0 4-0 4-0 4 12.1 4 12.1 4 12.57 1.72 14.59-0 17-0 19.76-0 22 2.24 22 5 22 7.76 19.76 10 17 10 16.45 10 16 9.55 16 9 16 8.45 16.45 8 17 8 18.65 8 20 6.65 20 5 20 3.35 18.65 2 17 2 15.7 2 14.6 2.84 14.18 4 14.18 4 16 4 16 4 16.55 4 17 4.45 17 5 17 5.55 16.55 6 16 6 16 6 13 6 13 6 13 6 2 6 2 6 2 6 2 16 2 16 2 16 3 16 3 16 3.55 16 4 16.45 4 17 4 17.55 3.55 18 3 18 3 18 2 18 2 18 2 18 2 26 2 26 2 26 3 26 3 26 3.55 26 4 26.45 4 27 4 27.55 3.55 28 3 28 3 28 2 28 2 28 2 28 2 36 2 36 2 36 3 36 3 36 3.55 36 4 36.45 4 37 4 37.55 3.55 38 3 38 3 38 2 38 2 38 2 38 2 46 2 46 2 46 3 46 3 46 3.55 46 4 46.45 4 47 4 47.55 3.55 48 3 48 3 48 2 48 2 48 2 48 2 57 2 57 2 57 38 57 38 57 38 57 38 45 38 45 38 45 50 45 50 45 50 45 50 38 50 38 50 38 49 38 49 38 48.45 38 48 37.55 48 37 48 36.45 48.45 36 49 36 49 36 50 36 50 36 50 36 50 28 50 28 50 28 49 28 49 28 48.45 28 48 27.55 48 27 48 26.45 48.45 26 49 26 49 26 50 26 50 26 50 26 50 18 50 18 50 18 49 18 49 18 48.45 18 48 17.55 48 17 48 16.45 48.45 16 49 16 49 16 50 16 50 16 50 16 50 6 50 6 50 6 39.9 6 39.9 6 39.43 8.28 37.41 10 35 10 34.45 10 34 9.55 34 9 34 8.45 34.45 8 35 8 36.65 8 38 6.65 38 5 38 3.35 36.65 2 35 2 34.45 2 34 1.55 34 1 34 0.45 34.45-0 35-0 37.41-0 39.43 1.72 39.9 4 39.9 4 52 4 52 4 52 4 52 45 52 45 52 45 52 46.41 52 46.41 52 46.41 52 59 52 59 52 59 39.41 59 39.41 59ZM 40 47C 40 47 40 55.59 40 55.59 40 55.59 48.59 47 48.59 47 48.59 47 40 47 40 47ZM 50 48.41C 50 48.41 41.41 57 41.41 57 41.41 57 50 57 50 57 50 57 50 48.41 50 48.41ZM 31 16C 31 16 33 16 33 16 33.55 16 34 16.45 34 17 34 17.55 33.55 18 33 18 33 18 31 18 31 18 30.45 18 30 17.55 30 17 30 16.45 30.45 16 31 16ZM 31 26C 31 26 33 26 33 26 33.55 26 34 26.45 34 27 34 27.55 33.55 28 33 28 33 28 31 28 31 28 30.45 28 30 27.55 30 27 30 26.45 30.45 26 31 26ZM 31 46C 31 46 33 46 33 46 33.55 46 34 46.45 34 47 34 47.55 33.55 48 33 48 33 48 31 48 31 48 30.45 48 30 47.55 30 47 30 46.45 30.45 46 31 46ZM 31 36C 31 36 33 36 33 36 33.55 36 34 36.45 34 37 34 37.55 33.55 38 33 38 33 38 31 38 31 38 30.45 38 30 37.55 30 37 30 36.45 30.45 36 31 36ZM 29 10C 28.45 10 28 9.55 28 9 28 8.45 28.45 8 29 8 30.65 8 32 6.65 32 5 32 3.35 30.65 2 29 2 28.45 2 28 1.55 28 1 28 0.45 28.45-0 29-0 31.76-0 34 2.24 34 5 34 7.76 31.76 10 29 10ZM 25 16C 25 16 27 16 27 16 27.55 16 28 16.45 28 17 28 17.55 27.55 18 27 18 27 18 25 18 25 18 24.45 18 24 17.55 24 17 24 16.45 24.45 16 25 16ZM 25 26C 25 26 27 26 27 26 27.55 26 28 26.45 28 27 28 27.55 27.55 28 27 28 27 28 25 28 25 28 24.45 28 24 27.55 24 27 24 26.45 24.45 26 25 26ZM 25 46C 25 46 27 46 27 46 27.55 46 28 46.45 28 47 28 47.55 27.55 48 27 48 27 48 25 48 25 48 24.45 48 24 47.55 24 47 24 46.45 24.45 46 25 46ZM 25 36C 25 36 27 36 27 36 27.55 36 28 36.45 28 37 28 37.55 27.55 38 27 38 27 38 25 38 25 38 24.45 38 24 37.55 24 37 24 36.45 24.45 36 25 36ZM 19 16C 19 16 21 16 21 16 21.55 16 22 16.45 22 17 22 17.55 21.55 18 21 18 21 18 19 18 19 18 18.45 18 18 17.55 18 17 18 16.45 18.45 16 19 16ZM 19 26C 19 26 21 26 21 26 21.55 26 22 26.45 22 27 22 27.55 21.55 28 21 28 21 28 19 28 19 28 18.45 28 18 27.55 18 27 18 26.45 18.45 26 19 26ZM 19 46C 19 46 21 46 21 46 21.55 46 22 46.45 22 47 22 47.55 21.55 48 21 48 21 48 19 48 19 48 18.45 48 18 47.55 18 47 18 46.45 18.45 46 19 46ZM 19 36C 19 36 21 36 21 36 21.55 36 22 36.45 22 37 22 37.55 21.55 38 21 38 21 38 19 38 19 38 18.45 38 18 37.55 18 37 18 36.45 18.45 36 19 36ZM 23 10C 22.45 10 22 9.55 22 9 22 8.45 22.45 8 23 8 24.65 8 26 6.65 26 5 26 3.35 24.65 2 23 2 22.45 2 22 1.55 22 1 22 0.45 22.45-0 23-0 25.76-0 28 2.24 28 5 28 7.76 25.76 10 23 10Z" fill="rgb(65,89,191)"/></svg>