<?xml version="1.0" encoding="utf-8"?>
<svg xmlns="http://www.w3.org/2000/svg"
	xmlns:xlink="http://www.w3.org/1999/xlink"
	width="60px" height="44px" viewBox="0 0 60 44">
<path fillRule="evenodd" d="M 55.78 44C 55.78 44 4.22 44 4.22 44 1.89 44-0 42.11-0 39.78-0 39.78-0 4.22-0 4.22-0 1.89 1.89-0 4.22-0 4.22-0 55.78-0 55.78-0 58.11-0 60 1.89 60 4.22 60 4.22 60 39.78 60 39.78 60 42.11 58.11 44 55.78 44ZM 58 4.22C 58 2.99 57.01 2 55.78 2 55.78 2 4.22 2 4.22 2 2.99 2 2 2.99 2 4.22 2 4.22 2 39.78 2 39.78 2 41.01 2.99 42 4.22 42 4.22 42 55.78 42 55.78 42 57.01 42 58 41.01 58 39.78 58 39.78 58 4.22 58 4.22ZM 52 32C 51.74 32 51.48 31.89 51.29 31.71 51.11 31.52 51 31.26 51 31 51 30.74 51.11 30.48 51.29 30.29 51.66 29.92 52.33 29.92 52.71 30.29 52.89 30.48 53 30.74 53 31 53 31.26 52.89 31.52 52.71 31.71 52.52 31.89 52.26 32 52 32ZM 52 27C 52 27 30 27 30 27 29.45 27 29 26.55 29 26 29 25.45 29.45 25 30 25 30 25 52 25 52 25 52.55 25 53 25.45 53 26 53 26.55 52.55 27 52 27ZM 52 21C 52 21 30 21 30 21 29.45 21 29 20.55 29 20 29 19.45 29.45 19 30 19 30 19 52 19 52 19 52.55 19 53 19.45 53 20 53 20.55 52.55 21 52 21ZM 45 15C 45 15 44 15 44 15 43.45 15 43 14.55 43 14 43 13.45 43.45 13 44 13 44 13 45 13 45 13 45.55 13 46 13.45 46 14 46 14.55 45.55 15 45 15ZM 40 15C 40 15 30 15 30 15 29.45 15 29 14.55 29 14 29 13.45 29.45 13 30 13 30 13 40 13 40 13 40.55 13 41 13.45 41 14 41 14.55 40.55 15 40 15ZM 15 36C 5 36 5 34.12 5 33.32 5 33.32 5 31.99 5 31.99 5 30.42 5.85 28.98 7.23 28.23 7.23 28.23 11 26.38 11 26.38 11 26.38 11 26 11 26 9.37 25.11 8.23 23.65 7.59 21.64 6.62 21.12 6 20.12 6 19 6 19 6 18 6 18 6 17.08 6.42 16.23 7.13 15.66 7.27 14.72 7.5 13.83 7.83 13.02 7.98 12.65 8.11 12.38 8.21 12.16 8.48 11.58 8.48 11.58 8.29 10.61 8.19 10.13 8.13 9.69 8.09 9.32 8.03 8.78 8.32 8.28 8.82 8.07 9.32 7.87 9.89 8.02 10.22 8.45 10.42 8.69 10.73 8.96 11.14 9.24 12.23 9.97 13.5 10.05 14.36 9.98 14.57 9.96 14.78 9.95 15 9.95 19.59 9.95 22.22 11.87 22.85 15.65 23.57 16.21 24 17.07 24 18 24 18 24 19 24 19 24 20.12 23.38 21.12 22.41 21.64 21.77 23.65 20.63 25.11 19 26 19 26 19 26.39 19 26.39 19 26.39 22.64 28.25 22.64 28.25 24.09 28.98 25 30.44 25 32.07 25 32.07 25 33.32 25 33.32 25 34.12 25 36 15 36ZM 23 32.07C 23 31.2 22.52 30.42 21.74 30.03 21.74 30.03 17.96 28.1 17.96 28.1 17.37 27.8 17 27.2 17 26.53 17 26.53 17 24.72 17 24.72 17 24.72 17.6 24.46 17.6 24.46 19.12 23.8 20.11 22.56 20.62 20.64 20.62 20.64 20.76 20.11 20.76 20.11 20.76 20.11 21.29 19.95 21.29 19.95 21.71 19.82 22 19.43 22 19 22 19 22 18 22 18 22 17.64 21.79 17.3 21.46 17.12 21.46 17.12 20.99 16.87 20.99 16.87 20.99 16.87 20.93 16.35 20.93 16.35 20.57 13.31 18.74 11.95 15 11.95 14.84 11.95 14.68 11.96 14.52 11.97 12.99 12.09 11.58 11.8 10.4 11.13 10.49 11.9 10.36 12.28 10.02 13.01 9.93 13.21 9.82 13.45 9.69 13.77 9.37 14.54 9.16 15.41 9.06 16.34 9.06 16.34 9.01 16.87 9.01 16.87 9.01 16.87 8.54 17.12 8.54 17.12 8.21 17.3 8 17.64 8 18 8 18 8 19 8 19 8 19.43 8.29 19.82 8.71 19.95 8.71 19.95 9.24 20.11 9.24 20.11 9.24 20.11 9.38 20.64 9.38 20.64 9.89 22.56 10.88 23.8 12.39 24.46 12.39 24.46 13 24.72 13 24.72 13 24.72 13 26.52 13 26.52 13 27.19 12.61 27.82 12.01 28.11 12.01 28.11 8.15 30.01 8.15 30.01 7.45 30.39 7 31.16 7 31.99 7 31.99 7 33.09 7 33.09 7.62 33.47 10.16 34 15 34 19.84 34 22.38 33.47 23 33.09 23 33.09 23 32.07 23 32.07ZM 30 30C 30 30 31 30 31 30 31.55 30 32 30.45 32 31 32 31.55 31.55 32 31 32 31 32 30 32 30 32 29.45 32 29 31.55 29 31 29 30.45 29.45 30 30 30ZM 35 30C 35 30 37 30 37 30 37.55 30 38 30.45 38 31 38 31.55 37.55 32 37 32 37 32 35 32 35 32 34.45 32 34 31.55 34 31 34 30.45 34.45 30 35 30ZM 41 30C 41 30 42 30 42 30 42.55 30 43 30.45 43 31 43 31.55 42.55 32 42 32 42 32 41 32 41 32 40.45 32 40 31.55 40 31 40 30.45 40.45 30 41 30ZM 46 30C 46 30 48 30 48 30 48.55 30 49 30.45 49 31 49 31.55 48.55 32 48 32 48 32 46 32 46 32 45.45 32 45 31.55 45 31 45 30.45 45.45 30 46 30Z" fill="rgb(65,89,191)"/></svg>