<?xml version="1.0" encoding="utf-8"?>
<svg xmlns="http://www.w3.org/2000/svg"
	xmlns:xlink="http://www.w3.org/1999/xlink"
	width="191px" height="9px" viewBox="0 0 191 9">
<path fillRule="evenodd" d="M 180.01 9C 180.01 9 181.92 4.5 181.92 4.5 181.92 4.5 180.01 0 180.01 0 180.01 0 190.66 4.5 190.66 4.5 190.66 4.5 180.01 9 180.01 9Z" fill="rgb(65,89,191)"/><path fillRule="evenodd" d="M 33.6 6C 33.6 6 33.6 5 33.6 5 33.6 5 33.57 6 33.57 6 33.57 6 31.6 6 31.6 6 31.05 6 30.6 5.55 30.6 5 30.6 4.45 31.05 4 31.6 4 31.6 4 33.53 4 33.53 4 34.08 4 34.56 4.45 34.56 5 34.56 5.55 34.15 6 33.6 6ZM 27.61 6C 27.61 6 25.62 6 25.62 6 25.06 6 24.62 5.55 24.62 5 24.62 4.45 25.06 4 25.62 4 25.62 4 27.61 4 27.61 4 28.16 4 28.61 4.45 28.61 5 28.61 5.55 28.16 6 27.61 6ZM 21.62 6C 21.62 6 19.63 6 19.63 6 19.08 6 18.63 5.55 18.63 5 18.63 4.45 19.08 4 19.63 4 19.63 4 21.62 4 21.62 4 22.17 4 22.62 4.45 22.62 5 22.62 5.55 22.18 6 21.62 6ZM 15.64 6C 15.64 6 13.64 6 13.64 6 13.09 6 12.64 5.55 12.64 5 12.64 4.45 13.09 4 13.64 4 13.64 4 15.64 4 15.64 4 16.19 4 16.64 4.45 16.64 5 16.64 5.55 16.19 6 15.64 6ZM 9.65 6C 9.65 6 7.66 6 7.66 6 7.1 6 6.66 5.55 6.66 5 6.66 4.45 7.1 4 7.66 4 7.66 4 9.65 4 9.65 4 10.2 4 10.65 4.45 10.65 5 10.65 5.55 10.2 6 9.65 6ZM 3.66 6C 3.66 6 1.67 6 1.67 6 1.12 6 0.67 5.55 0.67 5 0.67 4.45 1.12 4 1.67 4 1.67 4 3.66 4 3.66 4 4.22 4 4.66 4.45 4.66 5 4.66 5.55 4.22 6 3.66 6Z" fill="rgb(65,89,191)"/><path fillRule="evenodd" d="M 69.6 6C 69.6 6 69.6 5 69.6 5 69.6 5 69.57 6 69.57 6 69.57 6 67.6 6 67.6 6 67.05 6 66.6 5.55 66.6 5 66.6 4.45 67.05 4 67.6 4 67.6 4 69.53 4 69.53 4 70.08 4 70.56 4.45 70.56 5 70.56 5.55 70.15 6 69.6 6ZM 63.61 6C 63.61 6 61.62 6 61.62 6 61.06 6 60.62 5.55 60.62 5 60.62 4.45 61.06 4 61.62 4 61.62 4 63.61 4 63.61 4 64.16 4 64.61 4.45 64.61 5 64.61 5.55 64.16 6 63.61 6ZM 57.62 6C 57.62 6 55.63 6 55.63 6 55.08 6 54.63 5.55 54.63 5 54.63 4.45 55.08 4 55.63 4 55.63 4 57.62 4 57.62 4 58.17 4 58.62 4.45 58.62 5 58.62 5.55 58.18 6 57.62 6ZM 51.64 6C 51.64 6 49.64 6 49.64 6 49.09 6 48.64 5.55 48.64 5 48.64 4.45 49.09 4 49.64 4 49.64 4 51.64 4 51.64 4 52.19 4 52.64 4.45 52.64 5 52.64 5.55 52.19 6 51.64 6ZM 45.65 6C 45.65 6 43.66 6 43.66 6 43.1 6 42.66 5.55 42.66 5 42.66 4.45 43.1 4 43.66 4 43.66 4 45.65 4 45.65 4 46.2 4 46.65 4.45 46.65 5 46.65 5.55 46.2 6 45.65 6ZM 39.66 6C 39.66 6 37.67 6 37.67 6 37.12 6 36.67 5.55 36.67 5 36.67 4.45 37.12 4 37.67 4 37.67 4 39.66 4 39.66 4 40.22 4 40.66 4.45 40.66 5 40.66 5.55 40.22 6 39.66 6Z" fill="rgb(65,89,191)"/><path fillRule="evenodd" d="M 105.6 6C 105.6 6 105.6 5 105.6 5 105.6 5 105.57 6 105.57 6 105.57 6 103.6 6 103.6 6 103.05 6 102.6 5.55 102.6 5 102.6 4.45 103.05 4 103.6 4 103.6 4 105.53 4 105.53 4 106.08 4 106.56 4.45 106.56 5 106.56 5.55 106.15 6 105.6 6ZM 99.61 6C 99.61 6 97.61 6 97.61 6 97.06 6 96.62 5.55 96.62 5 96.62 4.45 97.06 4 97.61 4 97.61 4 99.61 4 99.61 4 100.16 4 100.61 4.45 100.61 5 100.61 5.55 100.16 6 99.61 6ZM 93.62 6C 93.62 6 91.63 6 91.63 6 91.08 6 90.63 5.55 90.63 5 90.63 4.45 91.08 4 91.63 4 91.63 4 93.62 4 93.62 4 94.17 4 94.62 4.45 94.62 5 94.62 5.55 94.18 6 93.62 6ZM 87.64 6C 87.64 6 85.64 6 85.64 6 85.09 6 84.64 5.55 84.64 5 84.64 4.45 85.09 4 85.64 4 85.64 4 87.64 4 87.64 4 88.19 4 88.64 4.45 88.64 5 88.64 5.55 88.19 6 87.64 6ZM 81.65 6C 81.65 6 79.66 6 79.66 6 79.1 6 78.66 5.55 78.66 5 78.66 4.45 79.1 4 79.66 4 79.66 4 81.65 4 81.65 4 82.2 4 82.65 4.45 82.65 5 82.65 5.55 82.2 6 81.65 6ZM 75.66 6C 75.66 6 73.67 6 73.67 6 73.12 6 72.67 5.55 72.67 5 72.67 4.45 73.12 4 73.67 4 73.67 4 75.66 4 75.66 4 76.22 4 76.66 4.45 76.66 5 76.66 5.55 76.22 6 75.66 6Z" fill="rgb(65,89,191)"/><path fillRule="evenodd" d="M 141.6 6C 141.6 6 141.6 5 141.6 5 141.6 5 141.57 6 141.57 6 141.57 6 139.6 6 139.6 6 139.05 6 138.6 5.55 138.6 5 138.6 4.45 139.05 4 139.6 4 139.6 4 141.53 4 141.53 4 142.08 4 142.56 4.45 142.56 5 142.56 5.55 142.15 6 141.6 6ZM 135.61 6C 135.61 6 133.61 6 133.61 6 133.06 6 132.62 5.55 132.62 5 132.62 4.45 133.06 4 133.61 4 133.61 4 135.61 4 135.61 4 136.16 4 136.61 4.45 136.61 5 136.61 5.55 136.16 6 135.61 6ZM 129.62 6C 129.62 6 127.63 6 127.63 6 127.08 6 126.63 5.55 126.63 5 126.63 4.45 127.08 4 127.63 4 127.63 4 129.62 4 129.62 4 130.17 4 130.62 4.45 130.62 5 130.62 5.55 130.18 6 129.62 6ZM 123.64 6C 123.64 6 121.64 6 121.64 6 121.09 6 120.64 5.55 120.64 5 120.64 4.45 121.09 4 121.64 4 121.64 4 123.64 4 123.64 4 124.19 4 124.64 4.45 124.64 5 124.64 5.55 124.19 6 123.64 6ZM 117.65 6C 117.65 6 115.66 6 115.66 6 115.1 6 114.66 5.55 114.66 5 114.66 4.45 115.1 4 115.66 4 115.66 4 117.65 4 117.65 4 118.2 4 118.65 4.45 118.65 5 118.65 5.55 118.2 6 117.65 6ZM 111.66 6C 111.66 6 109.67 6 109.67 6 109.12 6 108.67 5.55 108.67 5 108.67 4.45 109.12 4 109.67 4 109.67 4 111.66 4 111.66 4 112.22 4 112.66 4.45 112.66 5 112.66 5.55 112.22 6 111.66 6Z" fill="rgb(65,89,191)"/><path fillRule="evenodd" d="M 177.6 6C 177.6 6 177.6 5 177.6 5 177.6 5 177.57 6 177.57 6 177.57 6 175.6 6 175.6 6 175.05 6 174.6 5.55 174.6 5 174.6 4.45 175.05 4 175.6 4 175.6 4 177.53 4 177.53 4 178.08 4 178.56 4.45 178.56 5 178.56 5.55 178.15 6 177.6 6ZM 171.61 6C 171.61 6 169.61 6 169.61 6 169.06 6 168.62 5.55 168.62 5 168.62 4.45 169.06 4 169.61 4 169.61 4 171.61 4 171.61 4 172.16 4 172.61 4.45 172.61 5 172.61 5.55 172.16 6 171.61 6ZM 165.62 6C 165.62 6 163.63 6 163.63 6 163.08 6 162.63 5.55 162.63 5 162.63 4.45 163.08 4 163.63 4 163.63 4 165.62 4 165.62 4 166.17 4 166.62 4.45 166.62 5 166.62 5.55 166.18 6 165.62 6ZM 159.64 6C 159.64 6 157.64 6 157.64 6 157.09 6 156.64 5.55 156.64 5 156.64 4.45 157.09 4 157.64 4 157.64 4 159.64 4 159.64 4 160.19 4 160.64 4.45 160.64 5 160.64 5.55 160.19 6 159.64 6ZM 153.65 6C 153.65 6 151.66 6 151.66 6 151.1 6 150.66 5.55 150.66 5 150.66 4.45 151.1 4 151.66 4 151.66 4 153.65 4 153.65 4 154.2 4 154.65 4.45 154.65 5 154.65 5.55 154.2 6 153.65 6ZM 147.66 6C 147.66 6 145.67 6 145.67 6 145.12 6 144.67 5.55 144.67 5 144.67 4.45 145.12 4 145.67 4 145.67 4 147.66 4 147.66 4 148.22 4 148.66 4.45 148.66 5 148.66 5.55 148.22 6 147.66 6Z" fill="rgb(65,89,191)"/></svg>