<?xml version="1.0" encoding="utf-8"?>
<svg xmlns="http://www.w3.org/2000/svg"
	xmlns:xlink="http://www.w3.org/1999/xlink"
	width="50px" height="61px" viewBox="0 0 50 61">
<path fillRule="evenodd" d="M 33.43 48.21C 33.43 48.21 33.43 52.54 33.43 52.54 33.43 54.84 31.77 56.76 29.59 57.16 29.19 59.35 27.27 61.01 24.97 61.01 22.67 61.01 20.75 59.35 20.35 57.16 18.16 56.76 16.51 54.84 16.51 52.54 16.51 52.54 16.51 48.21 16.51 48.21 6.92 44.68 0.52 35.54 0.52 25.26 0.52 11.77 11.49 0.8 24.97 0.8 38.45 0.8 49.42 11.77 49.42 25.26 49.42 35.54 43.02 44.68 33.43 48.21ZM 24.97 59.12C 26.19 59.12 27.24 58.34 27.63 57.24 27.63 57.24 22.31 57.24 22.31 57.24 22.7 58.34 23.74 59.12 24.97 59.12ZM 24.97 2.68C 12.53 2.68 2.4 12.81 2.4 25.26 2.4 34.96 8.57 43.56 17.75 46.66 17.9 46.71 18.02 46.79 18.12 46.9 18.12 46.9 26.85 46.9 26.85 46.9 27.37 46.9 27.79 47.32 27.79 47.84 27.79 48.36 27.37 48.78 26.85 48.78 26.85 48.78 18.39 48.78 18.39 48.78 18.39 48.78 18.39 52.54 18.39 52.54 18.39 54.1 19.65 55.36 21.21 55.36 21.21 55.36 28.73 55.36 28.73 55.36 30.29 55.36 31.55 54.1 31.55 52.54 31.55 52.54 31.55 48.78 31.55 48.78 31.55 48.78 30.61 48.78 30.61 48.78 30.09 48.78 29.67 48.36 29.67 47.84 29.67 47.32 30.09 46.9 30.61 46.9 30.61 46.9 31.81 46.9 31.81 46.9 31.91 46.79 32.04 46.71 32.19 46.66 41.37 43.56 47.53 34.96 47.53 25.26 47.53 12.81 37.41 2.68 24.97 2.68ZM 43.9 19.56C 43.8 19.6 43.69 19.61 43.59 19.61 43.2 19.61 42.84 19.37 42.7 18.99 41.78 16.36 40.24 13.93 38.26 11.95 36.29 9.98 33.86 8.44 31.23 7.51 30.75 7.34 30.49 6.8 30.66 6.31 30.83 5.82 31.37 5.57 31.86 5.74 34.75 6.76 37.42 8.45 39.59 10.62 41.77 12.8 43.46 15.47 44.48 18.36 44.65 18.85 44.39 19.39 43.9 19.56ZM 33.96 18.66C 34.23 19.42 34.37 20.22 34.37 21.03 34.37 22.58 33.11 23.85 31.55 23.85 29.99 23.85 28.73 22.58 28.73 21.03 28.73 20.87 28.7 20.72 28.65 20.57 28.26 19.49 26.68 18.67 24.97 18.67 23.19 18.67 21.21 19.68 21.21 21.03 21.21 22.37 23.19 23.38 24.97 23.38 30.15 23.38 34.37 26.96 34.37 31.37 34.37 33.22 33.61 35.03 32.23 36.45 31.05 37.66 29.48 38.55 27.73 39.01 27.46 40.29 26.32 41.25 24.97 41.25 23.61 41.25 22.48 40.29 22.21 39.01 20.46 38.55 18.88 37.66 17.71 36.45 16.33 35.03 15.57 33.22 15.57 31.37 15.57 29.82 16.83 28.55 18.39 28.55 19.94 28.55 21.21 29.82 21.21 31.37 21.21 32.72 23.19 33.73 24.97 33.73 26.74 33.73 28.73 32.72 28.73 31.37 28.73 30.03 26.74 29.02 24.97 29.02 19.78 29.02 15.57 25.43 15.57 21.03 15.57 19.17 16.33 17.37 17.71 15.94 18.88 14.74 20.46 13.84 22.21 13.39 22.48 12.11 23.61 11.15 24.97 11.15 26.33 11.15 27.46 12.11 27.73 13.39 30.73 14.16 33.03 16.09 33.96 18.66ZM 26.68 15.09C 26.23 15 25.91 14.62 25.91 14.16 25.91 14.16 25.91 13.97 25.91 13.97 25.91 13.45 25.49 13.03 24.97 13.03 24.45 13.03 24.03 13.45 24.03 13.97 24.03 13.97 24.03 14.15 24.03 14.15 24.03 14.6 23.71 14.99 23.26 15.08 19.89 15.72 17.45 18.22 17.45 21.03 17.45 24.4 20.82 27.14 24.97 27.14 28.08 27.14 30.61 29.04 30.61 31.37 30.61 33.71 28.08 35.61 24.97 35.61 21.86 35.61 19.33 33.71 19.33 31.37 19.33 30.85 18.91 30.43 18.39 30.43 17.87 30.43 17.45 30.85 17.45 31.37 17.45 34.18 19.89 36.68 23.26 37.32 23.71 37.41 24.03 37.8 24.03 38.25 24.03 38.25 24.03 38.43 24.03 38.43 24.03 38.95 24.45 39.37 24.97 39.37 25.49 39.37 25.91 38.95 25.91 38.43 25.91 38.43 25.91 38.25 25.91 38.25 25.91 37.8 26.23 37.41 26.67 37.32 30.04 36.68 32.49 34.18 32.49 31.37 32.49 28 29.12 25.26 24.97 25.26 21.86 25.26 19.33 23.36 19.33 21.03 19.33 18.69 21.86 16.79 24.97 16.79 27.51 16.79 29.75 18.08 30.42 19.93 30.55 20.29 30.61 20.65 30.61 21.03 30.61 21.54 31.03 21.97 31.55 21.97 32.07 21.97 32.49 21.54 32.49 21.03 32.49 20.44 32.39 19.85 32.19 19.29 31.43 17.19 29.32 15.58 26.68 15.09Z" fill="rgb(228,188,65)"/></svg>