<?xml version="1.0" encoding="utf-8"?>
<svg xmlns="http://www.w3.org/2000/svg"
	xmlns:xlink="http://www.w3.org/1999/xlink"
	width="57px" height="57px" viewBox="0 0 57 57">
<path fillRule="evenodd" d="M 56.5 28.71C 56.5 29.99 56.14 31.25 55.46 32.33 54.83 33.31 54.61 34.47 54.82 35.57 55.06 36.87 54.92 38.21 54.42 39.43 53.93 40.62 53.11 41.64 52.07 42.38 51.13 43.04 50.47 44.04 50.22 45.19 49.95 46.46 49.31 47.62 48.39 48.55 47.49 49.44 46.37 50.06 45.15 50.35 43.97 50.63 42.97 51.29 42.34 52.21 41.6 53.3 40.56 54.15 39.33 54.66 38.14 55.15 36.85 55.29 35.59 55.08 34.44 54.88 33.29 55.11 32.34 55.73 31.24 56.45 29.95 56.84 28.63 56.84 27.34 56.84 26.09 56.48 25.01 55.79 24.02 55.17 22.87 54.94 21.76 55.15 20.46 55.4 19.13 55.26 17.9 54.75 16.71 54.26 15.7 53.45 14.96 52.4 14.29 51.46 13.29 50.81 12.14 50.56 10.87 50.28 9.71 49.65 8.79 48.72 7.9 47.83 7.27 46.71 6.98 45.49 6.7 44.3 6.04 43.31 5.13 42.68 4.03 41.93 3.19 40.89 2.68 39.67 2.19 38.48 2.04 37.19 2.26 35.92 2.46 34.78 2.22 33.62 1.61 32.68 0.88 31.57 0.5 30.29 0.5 28.96 0.5 27.68 0.86 26.43 1.54 25.34 2.17 24.36 2.39 23.2 2.18 22.1 1.94 20.8 2.08 19.46 2.58 18.24 3.07 17.05 3.89 16.03 4.93 15.29 5.87 14.63 6.53 13.63 6.78 12.48 7.05 11.21 7.69 10.05 8.61 9.13 9.51 8.23 10.63 7.61 11.85 7.32 13.03 7.04 14.03 6.38 14.66 5.46 15.4 4.37 16.44 3.52 17.67 3.02 18.86 2.52 20.15 2.38 21.41 2.59 22.56 2.79 23.71 2.56 24.66 1.94 25.76 1.22 27.05 0.84 28.37 0.84 29.66 0.84 30.91 1.2 31.99 1.88 32.98 2.5 34.13 2.73 35.24 2.52 36.54 2.27 37.87 2.41 39.1 2.92 40.29 3.41 41.3 4.22 42.04 5.27 42.71 6.21 43.71 6.86 44.86 7.11 46.13 7.39 47.29 8.02 48.21 8.95 49.1 9.84 49.73 10.96 50.02 12.19 50.3 13.37 50.96 14.37 51.87 14.99 52.97 15.74 53.81 16.78 54.32 18 54.81 19.19 54.96 20.49 54.74 21.75 54.54 22.9 54.77 24.05 55.39 24.99 56.12 26.1 56.5 27.38 56.5 28.71ZM 53.53 26.21C 52.6 24.8 52.25 23.08 52.54 21.37 52.69 20.52 52.59 19.66 52.26 18.86 51.92 18.03 51.35 17.34 50.62 16.84 49.24 15.9 48.25 14.43 47.85 12.7 47.65 11.88 47.23 11.13 46.63 10.52 46.01 9.9 45.23 9.48 44.38 9.29 42.69 8.92 41.21 7.95 40.22 6.56 39.73 5.85 39.04 5.31 38.24 4.98 37.42 4.64 36.53 4.55 35.65 4.71 33.99 5.03 32.27 4.69 30.8 3.77 30.08 3.31 29.24 3.07 28.37 3.07 27.48 3.07 26.62 3.32 25.88 3.81 24.46 4.74 22.74 5.09 21.03 4.79 20.19 4.65 19.32 4.75 18.52 5.08 17.7 5.42 17 5.99 16.5 6.72 15.56 8.1 14.09 9.08 12.36 9.49 11.54 9.68 10.79 10.1 10.19 10.7 9.57 11.32 9.14 12.1 8.96 12.95 8.59 14.65 7.62 16.13 6.22 17.11 5.52 17.61 4.97 18.29 4.64 19.09 4.3 19.91 4.21 20.81 4.37 21.68 4.69 23.35 4.35 25.07 3.43 26.53 2.97 27.26 2.73 28.1 2.73 28.96 2.73 29.85 2.99 30.72 3.47 31.46 4.4 32.87 4.75 34.59 4.46 36.3 4.31 37.15 4.41 38.02 4.74 38.81 5.08 39.64 5.65 40.34 6.38 40.84 7.76 41.78 8.75 43.25 9.15 44.97 9.35 45.79 9.77 46.55 10.37 47.15 10.99 47.77 11.77 48.19 12.62 48.38 14.31 48.75 15.79 49.72 16.78 51.12 17.27 51.82 17.96 52.36 18.75 52.69 19.58 53.03 20.47 53.13 21.35 52.96 21.75 52.88 22.16 52.85 22.57 52.85 23.84 52.85 25.09 53.21 26.2 53.91 26.92 54.36 27.76 54.6 28.63 54.6 29.52 54.6 30.38 54.35 31.12 53.86 32.54 52.93 34.26 52.58 35.97 52.88 36.81 53.02 37.68 52.93 38.48 52.59 39.3 52.25 40 51.69 40.5 50.95 41.44 49.57 42.91 48.59 44.64 48.18 45.46 47.99 46.21 47.57 46.81 46.97 47.43 46.35 47.86 45.57 48.04 44.72 48.41 43.02 49.38 41.54 50.78 40.56 51.48 40.06 52.03 39.38 52.36 38.58 52.7 37.76 52.79 36.86 52.62 35.99 52.31 34.33 52.65 32.6 53.57 31.14 54.03 30.41 54.27 29.57 54.27 28.71 54.27 27.82 54.01 26.96 53.53 26.21ZM 35.73 41.66C 33.21 41.66 31.28 40.55 31.28 37.58 31.28 37.58 31.28 32.4 31.28 32.4 31.28 29.43 33.21 28.32 35.73 28.32 38.22 28.32 40.19 29.43 40.19 32.4 40.19 32.4 40.19 37.58 40.19 37.58 40.19 40.55 38.22 41.66 35.73 41.66ZM 38.12 32.4C 38.12 30.88 37.22 30.15 35.73 30.15 34.25 30.15 33.35 30.88 33.35 32.4 33.35 32.4 33.35 37.58 33.35 37.58 33.35 39.1 34.25 39.83 35.73 39.83 37.22 39.83 38.12 39.1 38.12 37.58 38.12 37.58 38.12 32.4 38.12 32.4ZM 22.84 42.04C 22.67 42.42 22.29 42.59 21.88 42.59 21.26 42.59 20.77 42.11 20.77 41.55 20.77 41.41 20.81 41.24 20.88 41.1 20.88 41.1 33.83 15.47 33.83 15.47 34.01 15.12 34.35 14.95 34.7 14.95 35.25 14.95 35.87 15.43 35.87 16.09 35.87 16.26 35.84 16.4 35.77 16.57 35.77 16.57 22.84 42.04 22.84 42.04ZM 20.7 29.63C 18.18 29.63 16.25 28.53 16.25 25.56 16.25 25.56 16.25 20.37 16.25 20.37 16.25 17.4 18.18 16.3 20.7 16.3 23.19 16.3 25.16 17.4 25.16 20.37 25.16 20.37 25.16 25.56 25.16 25.56 25.16 28.53 23.19 29.63 20.7 29.63ZM 23.09 20.37C 23.09 18.85 22.19 18.13 20.7 18.13 19.22 18.13 18.32 18.85 18.32 20.37 18.32 20.37 18.32 25.56 18.32 25.56 18.32 27.08 19.22 27.8 20.7 27.8 22.19 27.8 23.09 27.08 23.09 25.56 23.09 25.56 23.09 20.37 23.09 20.37Z" fill="rgb(247,247,249)"/></svg>