<?xml version="1.0" encoding="utf-8"?>
<svg xmlns="http://www.w3.org/2000/svg"
	xmlns:xlink="http://www.w3.org/1999/xlink"
	width="49px" height="60px" viewBox="0 0 49 60">
<path fillRule="evenodd" d="M-0 60C-0 60-0 2-0 2-0 2 13 2 13 2 13 2 19 2 19 2 19 2 19 1 19 1 19 0.45 19.45-0 20-0 20-0 29-0 29-0 29.55-0 30 0.45 30 1 30 1 30 2 30 2 30 2 36 2 36 2 36 2 49 2 49 2 49 2 49 60 49 60 49 60-0 60-0 60ZM 28 3C 28 3 28 2 28 2 28 2 21 2 21 2 21 2 21 3 21 3 21 3 21 5 21 5 21 5 28 5 28 5 28 5 28 3 28 3ZM 35 5C 35 5 35 4 35 4 35 4 30 4 30 4 30 4 30 6 30 6 30 6 30 7 30 7 30 7 29 7 29 7 29 7 20 7 20 7 20 7 19 7 19 7 19 7 19 6 19 6 19 6 19 4 19 4 19 4 14 4 14 4 14 4 14 5 14 5 14 5 14 8 14 8 14 8 35 8 35 8 35 8 35 5 35 5ZM 13 10C 13 10 12 10 12 10 12 10 12 9 12 9 12 9 12 7 12 7 12 7 5 7 5 7 5 7 5 55 5 55 5 55 44 55 44 55 44 55 44 7 44 7 44 7 37 7 37 7 37 7 37 9 37 9 37 9 37 10 37 10 37 10 36 10 36 10 36 10 13 10 13 10ZM 47 4C 47 4 37 4 37 4 37 4 37 5 37 5 37 5 46 5 46 5 46 5 46 57 46 57 46 57 3 57 3 57 3 57 3 5 3 5 3 5 12 5 12 5 12 5 12 4 12 4 12 4 2 4 2 4 2 4 2 58 2 58 2 58 47 58 47 58 47 58 47 4 47 4ZM 40 22C 40 22.55 39.55 23 39 23 39 23 10 23 10 23 9.45 23 9 22.55 9 22 9 21.45 9.45 21 10 21 10 21 39 21 39 21 39.55 21 40 21.45 40 22ZM 23 17C 23 17 10 17 10 17 9.45 17 9 16.55 9 16 9 15.45 9.45 15 10 15 10 15 23 15 23 15 23.55 15 24 15.45 24 16 24 16.55 23.55 17 23 17ZM 10 27C 10 27 24 27 24 27 24.55 27 25 27.45 25 28 25 28.55 24.55 29 24 29 24 29 10 29 10 29 9.45 29 9 28.55 9 28 9 27.45 9.45 27 10 27ZM 27.29 28.71C 27.11 28.52 27 28.26 27 28 27 27.73 27.1 27.48 27.29 27.29 27.67 26.91 28.33 26.92 28.71 27.29 28.9 27.48 29 27.73 29 28 29 28.27 28.89 28.52 28.71 28.71 28.52 28.89 28.27 29 28 29 27.73 29 27.48 28.9 27.29 28.71ZM 39 29C 39 29 32 29 32 29 31.45 29 31 28.55 31 28 31 27.45 31.45 27 32 27 32 27 39 27 39 27 39.55 27 40 27.45 40 28 40 28.55 39.55 29 39 29ZM 10 33C 10 33 39 33 39 33 39.55 33 40 33.45 40 34 40 34.55 39.55 35 39 35 39 35 10 35 10 35 9.45 35 9 34.55 9 34 9 33.45 9.45 33 10 33ZM 10 40C 10 40 39 40 39 40 39.55 40 40 40.45 40 41 40 41.55 39.55 42 39 42 39 42 10 42 10 42 9.45 42 9 41.55 9 41 9 40.45 9.45 40 10 40ZM 10 46C 10 46 23 46 23 46 23.55 46 24 46.45 24 47 24 47.55 23.55 48 23 48 23 48 10 48 10 48 9.45 48 9 47.55 9 47 9 46.45 9.45 46 10 46Z" fill="rgb(65,89,191)"/></svg>