<?xml version="1.0" encoding="utf-8"?>
<svg xmlns="http://www.w3.org/2000/svg"
	xmlns:xlink="http://www.w3.org/1999/xlink"
	width="21px" height="21px" viewBox="0 0 21 21">
<path fillRule="evenodd" d="M 0.15 17.81C 0.15 17.81 0.57 18.26 0.57 18.26 0.79 18.51 2.84 20.68 4.66 20.85 4.77 20.86 4.88 20.86 4.99 20.86 7.43 20.86 11.34 18.53 14.94 14.93 16.76 13.11 18.28 11.19 19.35 9.37 20.11 8.05 21 6.17 20.86 4.64 20.69 2.82 18.52 0.78 18.27 0.55 18.27 0.55 17.83 0.14 17.83 0.14 17.83 0.14 12.27 5.69 12.27 5.69 12.27 5.69 14.14 7.56 14.14 7.56 14.14 7.56 7.57 14.12 7.57 14.12 7.57 14.12 5.71 12.26 5.71 12.26 5.71 12.26 0.15 17.81 0.15 17.81ZM 1.93 17.83C 1.93 17.83 5.71 14.05 5.71 14.05 5.71 14.05 7.57 15.91 7.57 15.91 7.57 15.91 15.93 7.56 15.93 7.56 15.93 7.56 14.07 5.69 14.07 5.69 14.07 5.69 17.85 1.91 17.85 1.91 18.53 2.63 19.52 3.85 19.6 4.76 19.69 5.69 19.21 7.1 18.25 8.73 17.24 10.46 15.78 12.29 14.05 14.03 10.77 17.31 7.05 19.59 4.99 19.59 4.92 19.59 4.84 19.59 4.78 19.58 3.87 19.5 2.64 18.5 1.93 17.83Z" fill="rgb(255,255,255)"/></svg>