<?xml version="1.0" encoding="utf-8"?>
<svg xmlns="http://www.w3.org/2000/svg"
	xmlns:xlink="http://www.w3.org/1999/xlink"
	width="60px" height="60px" viewBox="0 0 60 60">
<path fillRule="evenodd" d="M 59 31C 59 31 56.97 31 56.97 31 56.46 45.09 45.09 56.46 31 56.97 31 56.97 31 59 31 59 31 59.55 30.55 60 30 60 29.45 60 29 59.55 29 59 29 59 29 56.97 29 56.97 14.91 56.46 3.54 45.09 3.02 31 3.02 31 1 31 1 31 0.45 31-0 30.55-0 30-0 29.45 0.45 29 1 29 1 29 3.02 29 3.02 29 3.54 14.91 14.91 3.54 29 3.02 29 3.02 29 1 29 1 29 0.45 29.45-0 30-0 30.55-0 31 0.45 31 1 31 1 31 3.02 31 3.02 45.09 3.54 56.46 14.91 56.97 29 56.97 29 59 29 59 29 59.55 29 60 29.45 60 30 60 30.55 59.55 31 59 31ZM 53 29C 53 29 54.97 29 54.97 29 54.46 16.01 43.99 5.54 31 5.02 31 5.02 31 7 31 7 31 7.55 30.55 8 30 8 29.45 8 29 7.55 29 7 29 7 29 5.02 29 5.02 16.01 5.54 5.54 16.01 5.02 29 5.02 29 7 29 7 29 7.55 29 8 29.45 8 30 8 30.55 7.55 31 7 31 7 31 5.02 31 5.02 31 5.54 43.99 16.01 54.46 29 54.97 29 54.97 29 53 29 53 29 52.45 29.45 52 30 52 30.55 52 31 52.45 31 53 31 53 31 54.97 31 54.97 43.99 54.46 54.46 43.99 54.97 31 54.97 31 53 31 53 31 52.45 31 52 30.55 52 30 52 29.45 52.45 29 53 29ZM 42 31C 42 31 36.92 31 36.92 31 36.48 34.06 34.06 36.48 31 36.92 31 36.92 31 42 31 42 31 42.55 30.55 43 30 43 29.45 43 29 42.55 29 42 29 42 29 36.92 29 36.92 25.94 36.48 23.52 34.06 23.08 31 23.08 31 18 31 18 31 17.45 31 17 30.55 17 30 17 29.45 17.45 29 18 29 18 29 23.08 29 23.08 29 23.52 25.94 25.94 23.52 29 23.08 29 23.08 29 18 29 18 29 17.45 29.45 17 30 17 30.55 17 31 17.45 31 18 31 18 31 23.08 31 23.08 34.06 23.52 36.48 25.94 36.92 29 36.92 29 42 29 42 29 42.55 29 43 29.45 43 30 43 30.55 42.55 31 42 31ZM 30 25C 27.24 25 25 27.24 25 30 25 32.76 27.24 35 30 35 32.76 35 35 32.76 35 30 35 27.24 32.76 25 30 25Z" fill="rgb(65,89,191)"/></svg>