<?xml version="1.0" encoding="UTF-8"?>
<!DOCTYPE svg PUBLIC "-//W3C//DTD SVG 1.1//EN" "http://www.w3.org/Graphics/SVG/1.1/DTD/svg11.dtd">
<!-- Creator: CorelDRAW X8 -->
<svg xmlns="http://www.w3.org/2000/svg" xml:space="preserve" width="586.829mm" height="94.136mm" version="1.1" style="shape-rendering:geometricPrecision; text-rendering:geometricPrecision; image-rendering:optimizeQuality; fill-rule:evenodd; clip-rule:evenodd"
viewBox="0 0 58683 9414"
 xmlns:xlink="http://www.w3.org/1999/xlink">
 <defs>
  <style type="text/css">
   <![CDATA[
    .fil0 {fill:#D9DADA}
    .fil2 {fill:#FEFEFE;fill-rule:nonzero}
    .fil1 {fill:#2B2A29;fill-rule:nonzero}
   ]]>
  </style>
 </defs>
 <g id="Слой_x0020_1">
  <metadata id="CorelCorpID_0Corel-Layer"/>
  <g id="_2761531559952">
   <polygon class="fil0" points="19345,1 58681,1 58681,9415 19345,9415 "/>
   <path id="Бухгалтерия" class="fil1" d="M2891 5595l-1002 0c-2,72 -9,140 -20,207 -10,67 -30,127 -57,181 -27,61 -69,108 -122,144 -54,35 -127,52 -217,54 -91,-2 -164,-20 -216,-57 -55,-36 -96,-83 -123,-141 -29,-59 -54,-140 -72,-242 -17,-103 -31,-219 -39,-352 -10,-132 -16,-273 -19,-421 -3,-149 -4,-300 -4,-453 0,-152 1,-303 4,-452 3,-150 9,-290 19,-421 8,-133 22,-250 39,-352 18,-102 43,-183 72,-242 27,-58 68,-105 123,-141 52,-37 125,-55 216,-57 90,0 163,17 217,51 53,33 95,79 122,140 27,53 47,114 57,181 11,66 18,135 20,207l1002 0c-12,-241 -56,-458 -135,-648 -79,-192 -185,-349 -317,-474 -125,-120 -265,-210 -422,-270 -156,-60 -337,-90 -544,-90 -180,1 -340,24 -476,70 -138,44 -258,104 -360,181 -101,76 -191,162 -265,257 -115,143 -200,313 -254,511 -53,197 -87,424 -101,682 -14,256 -21,545 -19,867 -2,323 5,612 19,868 14,258 48,485 101,682 54,198 139,367 254,511 74,95 164,181 265,257 102,77 222,137 360,181 136,45 296,69 476,70 207,0 388,-31 544,-91 157,-60 297,-149 422,-269 132,-125 238,-285 317,-478 79,-192 123,-410 135,-651zm3429 -1990c1,-245 -21,-467 -68,-664 -46,-196 -122,-365 -229,-505 -109,-139 -253,-245 -436,-321 -181,-74 -408,-110 -678,-111l-1418 0 0 5023 1002 0 0 -1820 416 0c270,-1 497,-39 678,-113 183,-74 327,-181 436,-320 107,-140 183,-308 229,-504 47,-198 69,-419 68,-665zm-1002 0c1,80 -2,161 -9,244 -7,81 -24,156 -48,224 -26,70 -66,125 -122,166 -54,42 -129,64 -223,65l-423 0 0 -1397 423 0c94,1 169,22 223,64 56,42 96,97 122,166 24,69 41,144 48,225 7,82 10,162 9,243zm3923 3422l0 -903 -1312 0 0 -1178 1129 0 0 -903 -1129 0 0 -1136 1312 0 0 -903 -2314 0 0 5023 2314 0zm4198 1016l0 -1919 -444 0 0 -4120 -2689 0 0 1707c0,335 -17,645 -51,927 -34,282 -81,545 -144,790 -62,245 -136,476 -221,696l-339 0 0 1919 946 0 0 -1016 1997 0 0 1016 945 0zm-1446 -1919l-1080 0c71,-196 134,-402 187,-618 54,-217 97,-450 127,-699 30,-249 46,-523 46,-821l0 -1079 720 0 0 3217zm5228 903l-1291 -5023 -988 0 -1291 5023 1044 0 162 -783 1157 0 163 783 1044 0zm-1397 -1686l-776 0 388 -1863 388 1863zm2632 1686l0 -522 -523 0 0 522 523 0zm4819 -1446c-2,-293 -65,-548 -190,-764 -124,-216 -300,-384 -527,-501 -225,-119 -492,-180 -800,-182l-1475 0 0 -1792 2681 0 0 -338 -3062 0 0 5023 1856 0c308,-1 575,-62 800,-181 227,-119 403,-286 527,-501 125,-216 188,-471 190,-764zm-381 0c0,236 -48,436 -139,601 -93,164 -226,290 -401,376 -175,87 -388,131 -639,131l-1432 0 0 -2216 1432 0c251,0 464,44 639,131 175,86 308,211 401,376 91,165 139,365 139,601zm3802 -1955l-395 0 -1023 2978 -1023 -2978 -395 0 1242 3401 -275 755c-39,113 -81,204 -128,272 -47,68 -110,117 -186,148 -78,32 -179,47 -307,46l-134 0 0 317 169 0c77,0 152,-7 229,-21 77,-14 151,-36 222,-68 70,-33 134,-75 191,-129 46,-39 88,-92 127,-158 39,-67 74,-146 106,-237l1580 -4326zm3063 3401l-1150 -1735 1100 -1666 -437 0 -847 1369 -861 -1369 -437 0 1101 1666 -1151 1735 438 0 910 -1432 896 1432 438 0zm3111 -3083l0 -318 -2117 0 0 3401 360 0 0 -3083 1757 0zm3112 3083l0 -2328c1,-359 -107,-633 -324,-824 -217,-192 -549,-288 -996,-291 -182,-1 -347,14 -491,46 -145,32 -276,86 -391,162 -116,77 -222,181 -317,314l261 226c69,-103 146,-186 230,-249 85,-64 185,-110 299,-139 114,-28 250,-44 409,-42 229,0 415,31 556,95 142,63 244,156 308,280 65,123 97,276 96,457l0 381 -1101 0c-248,1 -460,39 -636,117 -176,76 -313,188 -407,334 -94,145 -141,322 -142,530 1,128 22,250 66,366 42,115 103,215 181,297 71,75 154,135 245,181 92,46 199,79 323,99 123,21 268,31 434,31 158,0 297,-11 417,-35 121,-23 231,-63 329,-119 99,-56 195,-132 291,-227l0 338 360 0zm-360 -1185c0,159 -16,292 -47,399 -32,107 -80,190 -144,250 -80,76 -166,134 -257,172 -91,37 -186,62 -285,73 -99,11 -201,17 -304,16 -306,1 -531,-53 -675,-162 -144,-108 -216,-275 -214,-501 0,-226 70,-396 214,-512 143,-115 361,-173 653,-173l1059 0 0 438zm2039 -2216l0 1489c-1,297 -18,542 -51,739 -33,197 -77,354 -133,470 -55,118 -117,205 -185,262 -67,58 -137,96 -207,113 -71,19 -137,26 -200,25l-106 0 0 303 155 0c149,1 289,-24 419,-80 130,-54 244,-148 343,-280 99,-132 176,-314 232,-545 56,-231 84,-522 86,-873l0 -1319 1340 0 0 3097 360 0 0 -3401 -2053 0zm5553 318l0 -318 -2745 0 0 318 1228 0 0 3083 359 0 0 -3083 1158 0zm3280 1460l0 -162c-1,-349 -55,-647 -163,-893 -108,-247 -264,-437 -466,-567 -202,-131 -447,-197 -732,-198 -286,1 -530,71 -733,207 -202,138 -357,335 -466,595 -108,259 -162,573 -163,941 1,569 126,1002 371,1297 246,295 605,444 1075,446 187,0 351,-20 493,-59 141,-39 272,-97 388,-174 118,-78 234,-174 347,-290l-268 -211c-95,96 -189,174 -282,235 -93,60 -193,105 -299,132 -106,28 -225,42 -358,42 -364,-1 -639,-116 -826,-345 -187,-228 -280,-560 -281,-996l2363 0zm-359 -289l-2004 0c6,-106 13,-195 20,-266 7,-70 17,-134 33,-190 14,-58 36,-120 67,-186 83,-179 201,-317 354,-418 152,-100 328,-152 528,-153 132,0 256,23 371,68 115,45 217,110 304,195 88,85 156,188 207,308 30,66 52,128 67,186 15,56 25,120 33,190 7,71 14,160 20,266zm4162 212c1,-180 -10,-359 -36,-536 -26,-178 -71,-345 -134,-501 -64,-157 -153,-293 -267,-410 -90,-89 -205,-161 -347,-214 -142,-54 -305,-81 -486,-82 -129,-1 -251,11 -367,37 -115,25 -225,74 -331,143 -106,69 -210,169 -311,300l0 -438 -359 0 0 5024 359 0 0 -2060c101,130 205,230 311,300 106,69 216,117 331,143 116,26 238,38 367,37 181,-2 344,-29 486,-83 142,-53 257,-124 347,-214 114,-116 203,-253 267,-409 63,-156 108,-323 134,-501 26,-177 37,-356 36,-536l0 0zm-360 0c2,179 -9,351 -32,521 -24,168 -69,320 -135,456 -67,136 -163,245 -291,325 -127,80 -294,121 -501,123 -207,-2 -374,-43 -501,-123 -128,-80 -225,-189 -292,-325 -66,-136 -110,-288 -134,-456 -23,-170 -34,-342 -33,-521 -1,-179 10,-352 33,-521 24,-168 68,-320 134,-456 67,-137 164,-245 292,-325 127,-81 294,-122 501,-123 207,1 374,42 501,123 128,80 224,188 291,325 66,136 111,288 135,456 23,169 34,342 32,521l0 0zm4206 1700l0 -3401 -360 0 -1955 2879 0 -2879 -359 0 0 3401 359 0 1955 -2878 0 2878 360 0zm3697 0l0 -3401 -1510 0c-213,2 -398,43 -555,125 -157,82 -279,199 -365,348 -87,150 -130,326 -131,529 1,180 36,340 105,481 70,141 167,257 294,346 128,89 279,148 454,175l-832 1397 423 0 804 -1383 953 0 0 1383 360 0zm-360 -1686l-1080 0c-244,-1 -431,-62 -559,-183 -130,-122 -194,-296 -196,-523 2,-227 66,-401 196,-522 128,-121 315,-182 559,-183l1080 0 0 1411z"/>
   <path id="Среда" class="fil2" d="M2891 5595l-1002 0c-2,72 -9,140 -20,207 -10,67 -30,127 -57,181 -27,61 -69,108 -122,144 -54,35 -127,52 -217,54 -91,-2 -164,-20 -216,-57 -55,-36 -96,-83 -123,-141 -29,-59 -54,-140 -72,-242 -17,-103 -31,-219 -39,-352 -21,-290 -23,-582 -23,-874 0,-291 2,-583 23,-873 8,-133 22,-250 39,-352 18,-102 43,-183 72,-242 27,-58 68,-105 123,-141 52,-37 125,-55 216,-57 90,0 163,17 217,51 53,33 95,79 122,140 27,53 47,114 57,181 11,66 18,135 20,207l1002 0c-12,-241 -56,-458 -135,-648 -79,-192 -185,-349 -317,-474 -125,-120 -265,-210 -422,-270 -156,-60 -337,-90 -544,-90 -180,1 -340,24 -476,70 -138,44 -258,104 -360,181 -101,76 -191,162 -265,257 -115,143 -200,313 -254,511 -53,197 -87,424 -101,682 -14,256 -21,545 -19,867 -2,323 5,612 19,868 14,258 48,485 101,682 87,318 257,571 519,768 102,77 222,137 360,181 136,45 296,69 476,70 374,0 693,-99 966,-360 132,-125 238,-285 317,-478 79,-192 123,-410 135,-651zm3429 -1990c1,-245 -21,-467 -68,-664 -46,-196 -122,-365 -229,-505 -109,-139 -253,-245 -436,-321 -181,-74 -408,-110 -678,-111l-1418 0 0 5023 1002 0 0 -1820 416 0c270,-1 497,-39 678,-113 183,-74 327,-181 436,-320 107,-140 183,-308 229,-504 47,-198 69,-419 68,-665zm-1002 0c1,80 -2,161 -9,244 -7,81 -24,156 -48,224 -26,70 -66,125 -122,166 -54,42 -129,64 -223,65l-423 0 0 -1397 423 0c94,1 169,22 223,64 56,42 96,97 122,166 24,69 41,144 48,225 7,82 10,162 9,243zm3923 3422l0 -903 -1312 0 0 -1178 1129 0 0 -903 -1129 0 0 -1136 1312 0 0 -903 -2314 0 0 5023 2314 0zm4198 1016l0 -1919 -444 0 0 -4120 -2689 0 0 1707c0,335 -17,645 -51,927 -34,282 -81,545 -144,790 -62,245 -136,476 -221,696l-339 0 0 1919 946 0 0 -1016 1997 0 0 1016 945 0zm-1446 -1919l-1080 0c71,-196 134,-402 187,-618 124,-497 173,-1009 173,-1520l0 -1079 720 0 0 3217zm5228 903l-1291 -5023 -988 0 -1291 5023 1044 0 162 -783 1157 0 163 783 1044 0zm-1397 -1686l-776 0 388 -1863 388 1863zm2632 1686l0 -522 -523 0 0 522 523 0zm12920 -3083l34 0c-11,-4 -22,-8 -34,-12l0 12zm8338 -298l0 -20 -15 0c5,7 10,13 15,20z"/>
  </g>
 </g>
</svg>
