<?xml version="1.0" encoding="utf-8"?>
<svg xmlns="http://www.w3.org/2000/svg"
	xmlns:xlink="http://www.w3.org/1999/xlink"
	width="54px" height="52px" viewBox="0 0 54 52">
<path fillRule="evenodd" d="M 53.47 42.89C 53.47 42.89 36.47 51.88 36.47 51.88 36.43 51.9 36.39 51.92 36.35 51.93 36.32 51.94 36.29 51.95 36.27 51.96 36.18 51.99 36.09 52 36 52 35.88 52 35.77 51.97 35.66 51.93 35.65 51.93 35.63 51.93 35.62 51.93 35.62 51.93 18.96 45.07 18.96 45.07 18.96 45.07 1.32 50.95 1.32 50.95 1.21 50.98 1.11 51 1 51 0.79 51 0.59 50.94 0.42 50.81 0.15 50.62-0 50.32-0 50-0 50-0 7.04-0 7.04-0 6.61 0.27 6.23 0.68 6.09 0.68 6.09 18.68 0.1 18.68 0.1 18.69 0.09 18.7 0.09 18.7 0.09 18.73 0.08 18.76 0.08 18.79 0.07 18.85 0.06 18.9 0.05 18.95 0.05 18.98 0.05 19 0.05 19.03 0.05 19.09 0.05 19.14 0.06 19.2 0.07 19.22 0.07 19.25 0.08 19.28 0.09 19.33 0.11 19.38 0.12 19.43 0.15 19.44 0.15 19.45 0.15 19.47 0.16 19.47 0.16 36 8.91 36 8.91 36 8.91 52.53 0.16 52.53 0.16 52.84-0 53.22 0.01 53.52 0.19 53.82 0.37 54 0.69 54 1.04 54 1.04 54 42.01 54 42.01 54 42.38 53.79 42.72 53.47 42.89ZM 18 31.46C 17.75 31.51 17.49 31.54 17.25 31.61 17.16 31.63 17.08 31.64 16.99 31.64 16.55 31.64 16.14 31.34 16.03 30.9 15.88 30.36 16.2 29.82 16.74 29.67 17.15 29.57 17.57 29.48 18 29.4 18 29.4 18 2.43 18 2.43 18 2.43 2 7.76 2 7.76 2 7.76 2 48.62 2 48.62 2 48.62 18 43.29 18 43.29 18 43.29 18 31.46 18 31.46ZM 35 33.8C 34.16 33.77 33.3 33.69 32.42 33.51 31.88 33.41 31.52 32.88 31.63 32.34 31.73 31.8 32.25 31.45 32.8 31.55 33.56 31.7 34.29 31.78 35 31.81 35 31.81 35 10.64 35 10.64 35 10.64 20 2.7 20 2.7 20 2.7 20 29.15 20 29.15 20.3 29.13 20.61 29.11 20.92 29.11 20.92 29.11 20.93 29.11 20.94 29.11 21.48 29.11 21.93 29.54 21.94 30.09 21.95 30.64 21.51 31.09 20.96 31.11 20.63 31.11 20.32 31.15 20 31.18 20 31.18 20 43.34 20 43.34 20 43.34 35 49.51 35 49.51 35 49.51 35 33.8 35 33.8ZM 52 2.7C 52 2.7 37 10.64 37 10.64 37 10.64 37 31.9 37 31.9 37.32 32.04 37.56 32.34 37.59 32.72 37.62 33.15 37.37 33.53 37 33.69 37 33.69 37 49.34 37 49.34 37 49.34 52 41.41 52 41.41 52 41.41 52 2.7 52 2.7ZM 39.97 30.86C 41 30.33 41.92 29.57 42.7 28.6 43.05 28.17 43.68 28.11 44.11 28.45 44.54 28.79 44.61 29.42 44.26 29.85 43.31 31.04 42.17 31.98 40.88 32.64 40.73 32.71 40.58 32.75 40.42 32.75 40.06 32.75 39.71 32.55 39.53 32.2 39.28 31.71 39.47 31.11 39.97 30.86ZM 44.5 25.4C 44.93 24.32 45.27 23.09 45.52 21.74 45.62 21.2 46.14 20.85 46.69 20.94 47.23 21.04 47.59 21.57 47.49 22.11 47.21 23.58 46.84 24.93 46.37 26.13 46.21 26.52 45.83 26.76 45.43 26.76 45.31 26.76 45.19 26.74 45.07 26.7 44.56 26.49 44.3 25.91 44.5 25.4ZM 46.92 18.96C 46.37 18.92 45.95 18.45 45.99 17.9 46.05 16.98 46.08 16.01 46.08 15.01 46.08 14.67 46.07 14.33 46.07 13.99 46.06 13.44 46.5 12.98 47.05 12.97 47.58 12.98 48.06 13.4 48.07 13.95 48.07 14.31 48.08 14.66 48.08 15.01 48.08 16.05 48.05 17.07 47.98 18.03 47.95 18.56 47.51 18.96 46.99 18.96 46.97 18.96 46.94 18.96 46.92 18.96ZM 25.08 29.4C 26.1 29.55 27.17 29.77 28.25 30.05 28.32 30.07 28.39 30.1 28.45 30.13 28.47 30.14 28.73 30.27 29.17 30.45 29.68 30.66 29.92 31.25 29.71 31.76 29.55 32.14 29.17 32.37 28.78 32.37 28.66 32.37 28.52 32.35 28.4 32.3 28.04 32.15 27.78 32.03 27.65 31.96 26.67 31.71 25.7 31.52 24.77 31.37 24.23 31.29 23.85 30.78 23.94 30.23 24.02 29.69 24.53 29.31 25.08 29.4ZM 11 8.04C 13.76 8.04 16 10.28 16 13.03 16 15.45 14.28 17.46 12 17.93 12 17.93 12 20.03 12 20.03 12 20.58 11.55 21.03 11 21.03 10.45 21.03 10 20.58 10 20.03 10 20.03 10 17.93 10 17.93 7.72 17.46 6 15.45 6 13.03 6 10.28 8.24 8.04 11 8.04ZM 11 16.03C 12.65 16.03 14 14.69 14 13.03 14 11.38 12.65 10.04 11 10.04 9.35 10.04 8 11.38 8 13.03 8 14.69 9.35 16.03 11 16.03ZM 8.63 37.29C 9.13 37.52 9.35 38.11 9.12 38.62 8.22 40.55 7.99 42.13 7.99 42.15 7.92 42.65 7.49 43.01 7 43.01 6.96 43.01 6.91 43 6.86 43 6.32 42.92 5.93 42.42 6.01 41.87 6.02 41.8 6.27 40 7.3 37.78 7.53 37.28 8.12 37.06 8.63 37.29ZM 13.71 27.73C 13.51 27.92 13.26 28.02 13 28.02 12.74 28.02 12.49 27.92 12.29 27.73 12.29 27.73 11 26.44 11 26.44 11 26.44 9.71 27.73 9.71 27.73 9.51 27.92 9.26 28.02 9 28.02 8.74 28.02 8.49 27.92 8.29 27.73 7.9 27.34 7.9 26.71 8.29 26.32 8.29 26.32 9.59 25.02 9.59 25.02 9.59 25.02 8.29 23.73 8.29 23.73 7.9 23.34 7.9 22.71 8.29 22.32 8.68 21.93 9.32 21.93 9.71 22.32 9.71 22.32 11 23.61 11 23.61 11 23.61 12.29 22.32 12.29 22.32 12.68 21.93 13.32 21.93 13.71 22.32 14.1 22.71 14.1 23.34 13.71 23.73 13.71 23.73 12.41 25.02 12.41 25.02 12.41 25.02 13.71 26.32 13.71 26.32 14.1 26.71 14.1 27.34 13.71 27.73ZM 12.8 31.36C 13.27 31.07 13.89 31.21 14.18 31.68 14.48 32.14 14.33 32.76 13.87 33.05 12.84 33.7 11.9 34.51 11.1 35.47 10.9 35.7 10.62 35.82 10.33 35.82 10.11 35.82 9.88 35.74 9.69 35.59 9.27 35.23 9.21 34.6 9.57 34.18 10.51 33.06 11.6 32.12 12.8 31.36Z" fill="rgb(65,89,191)"/></svg>