<?xml version="1.0" encoding="utf-8"?>
<svg xmlns="http://www.w3.org/2000/svg"
	xmlns:xlink="http://www.w3.org/1999/xlink"
	width="59px" height="60px" viewBox="0 0 59 60">
<path fillRule="evenodd" d="M 58.78 38.05C 58.65 38.49 58.25 38.77 57.82 38.77 57.73 38.77 57.63 38.76 57.54 38.73 57.01 38.57 56.71 38.02 56.86 37.49 56.96 37.17 57 36.84 57 36.5 57.01 36.31 56.99 36.13 56.96 35.95 56.87 35.4 57.24 34.89 57.79 34.8 58.33 34.71 58.85 35.09 58.93 35.63 58.98 35.92 59 36.22 59 36.51 59 37.03 58.93 37.55 58.78 38.05ZM 48.28 24.51C 48.28 24.51 41.83 17.22 41.83 17.22 38.36 13.3 38.36 6.92 41.83 3 43.54 1.07 45.83-0 48.28-0 50.72-0 53.01 1.07 54.73 3 58.2 6.92 58.2 13.3 54.73 17.22 54.73 17.22 48.28 24.51 48.28 24.51ZM 53.23 4.33C 51.9 2.83 50.14 2 48.28 2 46.41 2 44.65 2.83 43.32 4.33 40.5 7.52 40.5 12.71 43.32 15.89 43.32 15.89 48.28 21.49 48.28 21.49 48.28 21.49 53.23 15.89 53.23 15.89 56.06 12.71 56.06 7.52 53.23 4.33ZM 48.52 15C 45.5 15 43.04 12.53 43.04 9.5 43.04 6.47 45.5 4 48.52 4 51.55 4 54.01 6.47 54.01 9.5 54.01 12.53 51.55 15 48.52 15ZM 48.52 6C 46.6 6 45.03 7.57 45.03 9.5 45.03 11.43 46.6 13 48.52 13 50.45 13 52.02 11.43 52.02 9.5 52.02 7.57 50.45 6 48.52 6ZM 37.91 33C 37.91 33 35.91 33 35.91 33 35.36 33 34.91 32.55 34.91 32 34.91 31.45 35.36 31 35.91 31 35.91 31 37.91 31 37.91 31 38.46 31 38.9 31.45 38.9 32 38.9 32.55 38.46 33 37.91 33ZM 37.05 24C 37.05 24 35.05 24 35.05 24 34.5 24 34.06 23.55 34.06 23 34.06 22.45 34.5 22 35.05 22 35.05 22 37.05 22 37.05 22 37.6 22 38.05 22.45 38.05 23 38.05 23.55 37.6 24 37.05 24ZM 32.12 44.84C 32.03 45.32 31.61 45.65 31.14 45.65 31.08 45.65 31.02 45.65 30.95 45.63 30.41 45.53 30.06 45 30.16 44.46 30.32 43.65 30.65 42.91 31.13 42.24 31.46 41.8 32.08 41.7 32.53 42.03 32.97 42.36 33.07 42.98 32.74 43.43 32.43 43.85 32.22 44.32 32.12 44.84ZM 31.92 33C 31.92 33 31.56 33 31.56 33 30.89 33 30.23 32.88 29.6 32.64 29.09 32.44 28.83 31.86 29.03 31.35 29.22 30.83 29.8 30.57 30.32 30.77 30.71 30.92 31.13 31 31.56 31 31.56 31 31.92 31 31.92 31 32.47 31 32.92 31.45 32.92 32 32.92 32.55 32.47 33 31.92 33ZM 31.17 24.02C 30.65 24.08 30.16 24.25 29.72 24.52 29.56 24.63 29.38 24.68 29.2 24.68 28.86 24.68 28.54 24.51 28.35 24.2 28.06 23.74 28.2 23.12 28.67 22.83 29.36 22.39 30.13 22.12 30.95 22.03 31.51 21.98 32 22.37 32.06 22.92 32.12 23.47 31.72 23.96 31.17 24.02ZM 28.24 28.59C 28.42 29.12 28.13 29.68 27.61 29.85 27.5 29.89 27.4 29.9 27.29 29.9 26.88 29.9 26.49 29.64 26.35 29.22 26.17 28.66 26.07 28.09 26.07 27.5 26.08 27.26 26.09 27.03 26.12 26.8 26.19 26.26 26.67 25.87 27.23 25.94 27.78 26.01 28.17 26.51 28.1 27.05 28.08 27.2 28.07 27.35 28.07 27.5 28.07 27.87 28.13 28.24 28.24 28.59ZM 23.65 60C 23.65 60 21.66 60 21.66 60 21.1 60 20.66 59.55 20.66 59 20.66 58.45 21.1 58 21.66 58 21.66 58 23.65 58 23.65 58 24.2 58 24.65 58.45 24.65 59 24.65 59.55 24.2 60 23.65 60ZM 12.11 57.51C 12.11 57.51 3.6 47.88 3.6 47.88-1 42.66-1 34.19 3.6 28.98 5.86 26.41 8.88 25 12.11 25 15.33 25 18.35 26.41 20.62 28.98 25.22 34.19 25.22 42.66 20.61 47.88 20.61 47.88 12.11 57.51 12.11 57.51ZM 19.12 30.3C 17.24 28.17 14.75 27 12.11 27 9.47 27 6.97 28.17 5.09 30.3 1.14 34.78 1.14 42.07 5.09 46.55 5.09 46.55 12.11 54.49 12.11 54.49 12.11 54.49 19.12 46.55 19.12 46.55 23.08 42.07 23.08 34.78 19.12 30.3ZM 12.11 43C 8.8 43 6.12 40.31 6.12 37 6.12 33.69 8.8 31 12.11 31 15.41 31 18.09 33.69 18.09 37 18.09 40.31 15.41 43 12.11 43ZM 12.11 33C 9.91 33 8.12 34.79 8.12 37 8.12 39.21 9.91 41 12.11 41 14.31 41 16.1 39.21 16.1 37 16.1 34.79 14.31 33 12.11 33ZM 15.67 58C 15.67 58 17.66 58 17.66 58 18.22 58 18.66 58.45 18.66 59 18.66 59.55 18.22 60 17.66 60 17.66 60 15.67 60 15.67 60 15.12 60 14.67 59.55 14.67 59 14.67 58.45 15.12 58 15.67 58ZM 27.64 58C 27.64 58 29.64 58 29.64 58 30.19 58 30.64 58.45 30.64 59 30.64 59.55 30.19 60 29.64 60 29.64 60 27.64 60 27.64 60 27.09 60 26.64 59.55 26.64 59 26.64 58.45 27.09 58 27.64 58ZM 32.88 47.75C 33.21 48.15 33.63 48.47 34.1 48.68 34.6 48.91 34.82 49.51 34.59 50.01 34.43 50.38 34.07 50.59 33.69 50.59 33.55 50.59 33.41 50.56 33.27 50.5 32.54 50.17 31.87 49.66 31.35 49.04 30.99 48.61 31.05 47.98 31.47 47.63 31.89 47.27 32.52 47.33 32.88 47.75ZM 33.63 58C 33.63 58 35.62 58 35.62 58 36.17 58 36.62 58.45 36.62 59 36.62 59.55 36.18 60 35.62 60 35.62 60 33.63 60 33.63 60 33.08 60 32.63 59.55 32.63 59 32.63 58.45 33.08 58 33.63 58ZM 35.38 42C 35.37 42 35.35 42 35.34 42 34.81 42 34.36 41.58 34.34 41.05 34.32 40.49 34.75 40.03 35.3 40.01 35.38 40 35.47 40 35.55 40 35.55 40 37.33 40 37.33 40 37.89 40 38.33 40.45 38.33 41 38.33 41.55 37.89 42 37.33 42 37.33 42 35.38 42 35.38 42ZM 37.62 49C 37.62 49 39.62 49 39.62 49 40.17 49 40.61 49.45 40.61 50 40.61 50.55 40.17 51 39.62 51 39.62 51 37.62 51 37.62 51 37.07 51 36.62 50.55 36.62 50 36.62 49.45 37.07 49 37.62 49ZM 39.62 58C 39.62 58 41.61 58 41.61 58 42.16 58 42.61 58.45 42.61 59 42.61 59.55 42.16 60 41.61 60 41.61 60 39.62 60 39.62 60 39.06 60 38.62 59.55 38.62 59 38.62 58.45 39.06 58 39.62 58ZM 44.89 32C 44.89 32.55 44.44 33 43.89 33 43.89 33 41.9 33 41.9 33 41.35 33 40.9 32.55 40.9 32 40.9 31.45 41.35 31 41.9 31 41.9 31 43.89 31 43.89 31 44.44 31 44.89 31.45 44.89 32ZM 41.33 40C 41.33 40 43.32 40 43.32 40 43.87 40 44.32 40.45 44.32 41 44.32 41.55 43.87 42 43.32 42 43.32 42 41.33 42 41.33 42 40.77 42 40.33 41.55 40.33 41 40.33 40.45 40.77 40 41.33 40ZM 41.04 22C 41.04 22 43.04 22 43.04 22 43.59 22 44.03 22.45 44.03 23 44.03 23.55 43.59 24 43.04 24 43.04 24 41.04 24 41.04 24 40.49 24 40.04 23.55 40.04 23 40.04 22.45 40.49 22 41.04 22ZM 43.61 49C 43.61 49 45.6 49 45.6 49 46.15 49 46.6 49.45 46.6 50 46.6 50.55 46.15 51 45.6 51 45.6 51 43.61 51 43.61 51 43.06 51 42.61 50.55 42.61 50 42.61 49.45 43.06 49 43.61 49ZM 45.6 58C 45.6 58 47.53 58 47.53 58 48.08 58 48.56 58.45 48.56 59 48.56 59.55 48.15 60 47.6 60 47.6 60 47.6 59 47.6 59 47.6 59 47.57 60 47.57 60 47.57 60 45.6 60 45.6 60 45.05 60 44.6 59.55 44.6 59 44.6 58.45 45.05 58 45.6 58ZM 49.31 40C 49.86 40 50.3 40.45 50.3 41 50.3 41.55 49.86 42 49.31 42 49.31 42 47.31 42 47.31 42 46.76 42 46.31 41.55 46.31 41 46.31 40.45 46.76 40 47.31 40 47.31 40 49.31 40 49.31 40ZM 47.88 31C 47.88 31 49.88 31 49.88 31 50.43 31 50.88 31.45 50.88 32 50.88 32.55 50.43 33 49.88 33 49.88 33 47.88 33 47.88 33 47.33 33 46.89 32.55 46.89 32 46.89 31.45 47.33 31 47.88 31ZM 48.63 50.02C 48.87 49.53 49.47 49.33 49.96 49.57 50.69 49.93 51.34 50.46 51.84 51.1 52.18 51.53 52.11 52.16 51.67 52.5 51.49 52.65 51.27 52.72 51.06 52.72 50.76 52.72 50.47 52.59 50.27 52.34 49.95 51.93 49.54 51.59 49.08 51.36 48.58 51.12 48.38 50.52 48.63 50.02ZM 50.93 55.27C 51.05 54.73 51.59 54.4 52.13 54.52 52.66 54.64 53 55.17 52.88 55.71 52.7 56.5 52.34 57.26 51.84 57.9 51.64 58.15 51.35 58.28 51.06 58.28 50.84 58.28 50.62 58.21 50.44 58.07 50.01 57.73 49.93 57.1 50.27 56.66 50.6 56.25 50.82 55.78 50.93 55.27ZM 52.3 41C 52.3 40.45 52.75 40 53.3 40 53.3 40 53.51 40 53.51 40 53.98 40 54.43 39.91 54.86 39.73 55.37 39.51 55.95 39.75 56.17 40.26 56.38 40.77 56.14 41.36 55.63 41.57 54.96 41.86 54.25 42 53.51 42 53.51 42 53.3 42 53.3 42 52.75 42 52.3 41.55 52.3 41ZM 55.26 33.47C 54.81 33.2 54.31 33.05 53.79 33.01 53.24 32.97 52.83 32.49 52.87 31.93 52.92 31.38 53.4 30.98 53.95 31.02 54.77 31.08 55.55 31.32 56.26 31.74 56.74 32.02 56.9 32.63 56.62 33.1 56.44 33.42 56.1 33.6 55.76 33.6 55.59 33.6 55.42 33.56 55.26 33.47Z" fill="rgb(65,89,191)"/></svg>