<?xml version="1.0" encoding="utf-8"?>
<svg xmlns="http://www.w3.org/2000/svg"
	xmlns:xlink="http://www.w3.org/1999/xlink"
	width="52px" height="59px" viewBox="0 0 52 59">
<path fillRule="evenodd" d="M 51.01 17.1C 50.82 17.81 50.37 18.39 49.74 18.76 49.74 18.76 45.02 21.48 45.02 21.48 44.7 21.67 44.35 21.79 43.99 21.83 44.99 24.21 45.55 26.83 45.55 29.57 45.55 32.31 44.99 34.93 43.99 37.31 44.35 37.36 44.7 37.47 45.02 37.66 45.02 37.66 49.74 40.38 49.74 40.38 50.37 40.75 50.82 41.33 51.01 42.04 51.2 42.74 51.1 43.48 50.74 44.11 50.24 44.98 49.32 45.47 48.37 45.47 47.91 45.47 47.44 45.35 47.02 45.1 47.02 45.1 42.29 42.38 42.29 42.38 41.96 42.19 41.69 41.94 41.47 41.65 38.3 45.82 33.52 48.71 28.06 49.4 28.2 49.73 28.28 50.09 28.28 50.47 28.28 50.47 28.28 55.92 28.28 55.92 28.28 57.42 27.06 58.64 25.55 58.64 24.05 58.64 22.83 57.42 22.83 55.92 22.83 55.92 22.83 50.47 22.83 50.47 22.83 50.09 22.9 49.73 23.04 49.4 17.59 48.71 12.81 45.82 9.63 41.65 9.42 41.94 9.14 42.19 8.81 42.38 8.81 42.38 4.09 45.1 4.09 45.1 3.67 45.35 3.2 45.47 2.73 45.47 2.49 45.47 2.26 45.44 2.02 45.38 1.32 45.19 0.73 44.74 0.37 44.11-0.39 42.8 0.06 41.13 1.36 40.38 1.36 40.38 6.09 37.66 6.09 37.66 6.41 37.47 6.77 37.36 7.12 37.31 6.11 34.93 5.56 32.31 5.56 29.57 5.56 26.83 6.11 24.21 7.12 21.83 6.77 21.79 6.41 21.67 6.09 21.48 6.09 21.48 1.36 18.76 1.36 18.76 0.06 18.01-0.39 16.34 0.37 15.04 0.73 14.4 1.32 13.95 2.02 13.77 2.72 13.58 3.46 13.67 4.09 14.04 4.09 14.04 8.81 16.76 8.81 16.76 9.14 16.95 9.42 17.2 9.63 17.49 12.81 13.32 17.59 10.43 23.04 9.74 22.9 9.41 22.83 9.05 22.83 8.68 22.83 8.68 22.83 3.22 22.83 3.22 22.83 1.72 24.05 0.5 25.55 0.5 27.06 0.5 28.28 1.72 28.28 3.22 28.28 3.22 28.28 8.68 28.28 8.68 28.28 9.05 28.2 9.41 28.06 9.74 33.52 10.43 38.3 13.32 41.47 17.49 41.69 17.2 41.96 16.95 42.29 16.76 42.29 16.76 47.02 14.04 47.02 14.04 48.32 13.29 49.99 13.73 50.74 15.04 51.1 15.67 51.2 16.4 51.01 17.1ZM 43.2 40.8C 43.2 40.8 47.92 43.53 47.92 43.53 48.13 43.65 48.38 43.68 48.61 43.62 48.85 43.56 49.04 43.41 49.17 43.2 49.29 42.99 49.32 42.74 49.26 42.51 49.19 42.27 49.04 42.08 48.83 41.96 48.83 41.96 44.11 39.23 44.11 39.23 43.97 39.15 43.82 39.11 43.66 39.11 43.58 39.11 43.5 39.12 43.42 39.14 43.19 39.2 42.99 39.35 42.87 39.56 42.62 40 42.77 40.55 43.2 40.8ZM 24.64 55.92C 24.64 56.42 25.05 56.82 25.55 56.82 26.05 56.82 26.46 56.42 26.46 55.92 26.46 55.92 26.46 50.46 26.46 50.46 26.46 49.96 26.05 49.56 25.55 49.56 25.05 49.56 24.64 49.96 24.64 50.46 24.64 50.46 24.64 55.92 24.64 55.92ZM 7 39.23C 7 39.23 2.27 41.96 2.27 41.96 1.84 42.21 1.69 42.76 1.94 43.2 2.06 43.41 2.26 43.56 2.49 43.62 2.73 43.68 2.97 43.65 3.18 43.53 3.18 43.53 7.9 40.8 7.9 40.8 8.11 40.68 8.26 40.49 8.33 40.25 8.39 40.02 8.36 39.77 8.24 39.56 8.12 39.35 7.92 39.2 7.68 39.14 7.61 39.12 7.53 39.11 7.45 39.11 7.29 39.11 7.13 39.15 7 39.23ZM 8.33 18.89C 8.26 18.65 8.11 18.46 7.9 18.34 7.9 18.34 3.18 15.61 3.18 15.61 3.04 15.53 2.89 15.49 2.73 15.49 2.65 15.49 2.57 15.5 2.49 15.52 2.26 15.58 2.06 15.73 1.94 15.94 1.69 16.38 1.84 16.93 2.27 17.18 2.27 17.18 7 19.91 7 19.91 7.21 20.03 7.45 20.06 7.68 20 7.92 19.94 8.12 19.79 8.24 19.58 8.36 19.37 8.39 19.12 8.33 18.89ZM 26.46 3.22C 26.46 2.72 26.05 2.32 25.55 2.32 25.05 2.32 24.64 2.72 24.64 3.22 24.64 3.22 24.64 8.68 24.64 8.68 24.64 9.18 25.05 9.58 25.55 9.58 26.05 9.58 26.46 9.18 26.46 8.68 26.46 8.68 26.46 3.22 26.46 3.22ZM 25.55 11.4C 15.53 11.4 7.38 19.55 7.38 29.57 7.38 39.59 15.53 47.74 25.55 47.74 35.58 47.74 43.73 39.59 43.73 29.57 43.73 19.55 35.58 11.4 25.55 11.4ZM 49.17 15.94C 49.04 15.73 48.85 15.58 48.61 15.52 48.54 15.5 48.46 15.49 48.38 15.49 48.22 15.49 48.06 15.53 47.92 15.61 47.92 15.61 43.2 18.34 43.2 18.34 42.77 18.59 42.62 19.14 42.87 19.58 42.99 19.79 43.19 19.94 43.42 20 43.66 20.06 43.9 20.03 44.11 19.91 44.11 19.91 48.83 17.18 48.83 17.18 49.04 17.06 49.19 16.87 49.26 16.63 49.32 16.4 49.29 16.15 49.17 15.94ZM 39.75 37.68C 39.74 37.71 39.73 37.73 39.72 37.75 39.71 37.77 39.7 37.78 39.68 37.8 36.84 42.66 31.57 45.92 25.55 45.92 21.7 45.92 17.95 44.56 15.01 42.07 14.63 41.75 14.58 41.18 14.9 40.79 15.22 40.41 15.8 40.36 16.18 40.69 18.57 42.7 21.54 43.88 24.64 44.08 24.64 44.08 24.64 41.22 24.64 41.22 23.59 40.85 22.83 39.84 22.83 38.66 22.83 38.66 22.83 35.32 22.83 35.32 22.52 35.17 22.22 35 21.94 34.8 21.94 34.8 19.05 36.47 19.05 36.47 18.63 36.72 18.16 36.84 17.69 36.84 17.45 36.84 17.21 36.81 16.98 36.75 16.58 36.64 16.22 36.44 15.91 36.18 15.91 36.18 13.44 37.61 13.44 37.61 13.55 37.78 13.67 37.95 13.79 38.12 14.09 38.53 14 39.09 13.59 39.39 13.43 39.51 13.24 39.56 13.06 39.56 12.78 39.56 12.5 39.43 12.32 39.19 10.28 36.38 9.19 33.06 9.19 29.57 9.19 26.62 9.98 23.85 11.35 21.46 11.36 21.43 11.37 21.41 11.39 21.39 11.4 21.37 11.42 21.34 11.44 21.32 14.28 16.48 19.54 13.22 25.55 13.22 28.24 13.22 30.9 13.88 33.26 15.14 33.7 15.38 33.87 15.93 33.63 16.37 33.39 16.81 32.84 16.98 32.4 16.74 30.57 15.77 28.54 15.19 26.46 15.06 26.46 15.06 26.46 17.92 26.46 17.92 27.52 18.29 28.28 19.3 28.28 20.49 28.28 20.49 28.28 23.83 28.28 23.83 28.59 23.97 28.88 24.15 29.16 24.34 29.16 24.34 32.06 22.67 32.06 22.67 32.69 22.3 33.43 22.21 34.13 22.4 34.53 22.5 34.89 22.7 35.19 22.96 35.19 22.96 38.48 21.06 38.48 21.06 38.91 20.81 39.47 20.96 39.72 21.39 39.77 21.48 39.8 21.56 39.82 21.65 39.89 21.71 39.94 21.79 39.99 21.88 41.25 24.23 41.91 26.89 41.91 29.57 41.91 32.52 41.13 35.29 39.75 37.68ZM 26.46 44.08C 31.13 43.79 35.21 41.29 37.66 37.61 37.66 37.61 35.19 36.18 35.19 36.18 34.89 36.44 34.53 36.64 34.13 36.75 33.89 36.81 33.66 36.84 33.42 36.84 32.95 36.84 32.48 36.72 32.06 36.47 32.06 36.47 29.16 34.8 29.16 34.8 28.88 35 28.59 35.17 28.28 35.32 28.28 35.32 28.28 38.66 28.28 38.66 28.28 39.84 27.52 40.85 26.46 41.22 26.46 41.22 26.46 44.08 26.46 44.08ZM 33.88 33.33C 33.88 33.33 31.46 31.93 31.46 31.93 31.23 32.5 30.92 33.03 30.55 33.5 30.55 33.5 32.97 34.9 32.97 34.9 33.18 35.02 33.42 35.05 33.66 34.99 33.89 34.93 34.09 34.78 34.21 34.57 34.46 34.13 34.31 33.58 33.88 33.33ZM 24.64 38.66C 24.64 39.16 25.05 39.56 25.55 39.56 26.05 39.56 26.46 39.16 26.46 38.66 26.46 38.66 26.46 35.86 26.46 35.86 26.16 35.91 25.86 35.93 25.55 35.93 25.24 35.93 24.94 35.91 24.64 35.86 24.64 35.86 24.64 38.66 24.64 38.66ZM 16.89 34.57C 17.15 35 17.7 35.15 18.14 34.9 18.14 34.9 20.56 33.5 20.56 33.5 20.18 33.03 19.88 32.5 19.65 31.93 19.65 31.93 17.23 33.33 17.23 33.33 16.79 33.58 16.64 34.13 16.89 34.57ZM 20.56 25.64C 20.56 25.64 18.14 24.24 18.14 24.24 17.7 23.99 17.15 24.14 16.89 24.57 16.64 25.01 16.79 25.56 17.23 25.82 17.23 25.82 19.65 27.21 19.65 27.21 19.88 26.64 20.18 26.11 20.56 25.64ZM 11.01 29.57C 11.01 31.85 11.53 34.04 12.53 36.04 12.53 36.04 15 34.61 15 34.61 14.93 34.22 14.94 33.81 15.05 33.41 15.24 32.7 15.69 32.12 16.32 31.75 16.32 31.75 19.21 30.08 19.21 30.08 19.2 29.91 19.19 29.74 19.19 29.57 19.19 29.4 19.2 29.23 19.21 29.06 19.21 29.06 16.32 27.39 16.32 27.39 15.69 27.02 15.24 26.44 15.05 25.73 14.94 25.33 14.93 24.92 15 24.53 15 24.53 12.53 23.1 12.53 23.1 11.56 25.05 11.01 27.25 11.01 29.57ZM 24.64 15.06C 19.97 15.35 15.89 17.86 13.44 21.53 13.44 21.53 15.91 22.96 15.91 22.96 16.22 22.7 16.58 22.5 16.98 22.4 17.68 22.21 18.41 22.3 19.05 22.67 19.05 22.67 21.94 24.34 21.94 24.34 22.22 24.15 22.52 23.97 22.83 23.83 22.83 23.83 22.83 20.49 22.83 20.49 22.83 19.3 23.59 18.29 24.64 17.92 24.64 17.92 24.64 15.06 24.64 15.06ZM 26.46 20.49C 26.46 19.98 26.05 19.58 25.55 19.58 25.05 19.58 24.64 19.98 24.64 20.49 24.64 20.49 24.64 23.28 24.64 23.28 24.94 23.23 25.24 23.21 25.55 23.21 25.86 23.21 26.16 23.23 26.46 23.28 26.46 23.28 26.46 20.49 26.46 20.49ZM 25.55 25.03C 23.05 25.03 21.01 27.07 21.01 29.57 21.01 32.08 23.05 34.11 25.55 34.11 28.06 34.11 30.1 32.08 30.1 29.57 30.1 27.07 28.06 25.03 25.55 25.03ZM 34.21 24.57C 34.09 24.36 33.89 24.21 33.66 24.15 33.42 24.09 33.18 24.12 32.97 24.24 32.97 24.24 30.55 25.64 30.55 25.64 30.92 26.11 31.23 26.64 31.46 27.21 31.46 27.21 33.88 25.82 33.88 25.82 34.31 25.56 34.46 25.01 34.21 24.57ZM 38.58 23.1C 38.58 23.1 36.1 24.53 36.1 24.53 36.31 25.63 35.81 26.8 34.79 27.39 34.79 27.39 31.89 29.06 31.89 29.06 31.91 29.23 31.91 29.4 31.91 29.57 31.91 29.74 31.91 29.91 31.89 30.08 31.89 30.08 34.79 31.75 34.79 31.75 35.81 32.34 36.31 33.51 36.1 34.61 36.1 34.61 38.57 36.04 38.57 36.04 39.55 34.09 40.09 31.89 40.09 29.57 40.09 27.33 39.57 25.1 38.58 23.1ZM 37.37 20.53C 37.11 20.53 36.85 20.42 36.67 20.2 36.14 19.57 35.55 18.99 34.92 18.45 34.54 18.13 34.49 17.56 34.81 17.17 35.14 16.79 35.71 16.74 36.09 17.07 36.8 17.66 37.47 18.32 38.06 19.03 38.39 19.42 38.34 19.99 37.95 20.31 37.78 20.46 37.58 20.53 37.37 20.53Z" fill="rgb(228,188,65)"/></svg>