<?xml version="1.0" encoding="utf-8"?>
<svg xmlns="http://www.w3.org/2000/svg"
	xmlns:xlink="http://www.w3.org/1999/xlink"
	width="19px" height="24px" viewBox="0 0 19 24">
<path fillRule="evenodd" d="M 3.37 22.22C 4.55 23.08 5.69 23.51 6.8 23.51 7.08 23.51 7.35 23.49 7.62 23.43 9.55 23.05 10.57 21.42 10.57 21.4 10.57 21.4 16.28 13.66 16.28 13.66 16.52 13.34 16.45 12.89 16.13 12.65 15.8 12.42 15.35 12.49 15.12 12.81 15.12 12.81 9.37 20.6 9.37 20.6 9.37 20.61 8.63 21.76 7.34 22.02 6.4 22.21 5.35 21.88 4.23 21.06 0.94 18.66 2.66 16.11 2.86 15.83 2.86 15.83 12.31 3.01 12.31 3.01 12.31 3.01 12.71 2.46 13.44 2.33 14.11 2.22 14.88 2.47 15.75 3.11 16.08 3.34 16.99 4.14 17.14 5.01 17.21 5.44 17.1 5.85 16.79 6.26 16.79 6.26 8.36 17.7 8.36 17.7 8.35 17.71 7.98 18.21 7.42 18.3 7.07 18.36 6.71 18.25 6.31 17.95 5.12 17.09 5.74 16.03 5.86 15.85 5.86 15.85 10.56 9.48 10.56 9.48 10.8 9.16 10.73 8.7 10.4 8.47 10.08 8.23 9.63 8.3 9.39 8.62 9.39 8.62 4.68 15.01 4.68 15.01 4.02 15.96 3.69 17.83 5.45 19.12 6.17 19.64 6.91 19.85 7.66 19.73 8.8 19.54 9.47 18.63 9.53 18.54 9.53 18.54 17.96 7.11 17.96 7.11 18.5 6.38 18.71 5.59 18.56 4.77 18.28 3.1 16.64 1.97 16.59 1.93 15.41 1.07 14.27 0.73 13.2 0.91 11.86 1.14 11.18 2.1 11.12 2.19 11.12 2.19 1.7 14.97 1.7 14.97 1.65 15.04 0.55 16.53 0.85 18.49 1.06 19.9 1.91 21.15 3.37 22.22Z" fill="rgb(229,189,65)"/></svg>