<?xml version="1.0" encoding="utf-8"?>
<svg xmlns="http://www.w3.org/2000/svg"
	xmlns:xlink="http://www.w3.org/1999/xlink"
	width="47px" height="33px" viewBox="0 0 47 33">
<path fillRule="evenodd" d="M 15.4 0.56C 16.03-0.1 17.09-0.1 17.75 0.56 18.39 1.2 18.39 2.26 17.75 2.89 17.75 2.89 5.81 14.84 5.81 14.84 5.81 14.84 45.22 14.84 45.22 14.84 46.14 14.84 46.87 15.57 46.87 16.49 46.87 17.41 46.14 18.16 45.22 18.16 45.22 18.16 5.81 18.16 5.81 18.16 5.81 18.16 17.75 30.08 17.75 30.08 18.39 30.74 18.39 31.8 17.75 32.44 17.09 33.1 16.03 33.1 15.4 32.44 15.4 32.44 0.63 17.67 0.63 17.67-0.03 17.03-0.03 15.97 0.63 15.33 0.63 15.33 15.4 0.56 15.4 0.56Z" fill="rgb(167,167,167)"/></svg>