<?xml version="1.0" encoding="utf-8"?>
<svg xmlns="http://www.w3.org/2000/svg"
	xmlns:xlink="http://www.w3.org/1999/xlink"
	width="56px" height="57px" viewBox="0 0 56 57">
<path fillRule="evenodd" d="M 55.01 17.12C 55.01 17.12 48.06 17.12 48.06 17.12 47.51 17.12 47.07 16.67 47.07 16.12 47.07 15.56 47.51 15.11 48.06 15.11 48.06 15.11 55.01 15.11 55.01 15.11 55.56 15.11 56.01 15.56 56.01 16.12 56.01 16.67 55.56 17.12 55.01 17.12ZM 46.78 10.79C 46.58 10.98 46.33 11.08 46.08 11.08 45.82 11.08 45.57 10.98 45.37 10.79 44.99 10.39 44.99 9.76 45.37 9.36 45.37 9.36 50.29 4.38 50.29 4.38 50.68 3.98 51.31 3.98 51.69 4.38 52.08 4.77 52.08 5.41 51.69 5.8 51.69 5.8 46.78 10.79 46.78 10.79ZM-0.01 52.72C-0.01 52.72 30.7 21.58 30.7 21.58 30.7 21.58 30.7 21.58 30.7 21.58 30.7 21.58 30.7 21.58 30.7 21.58 30.7 21.58 40.05 12.1 40.05 12.1 40.05 12.1 44.26 16.37 44.26 16.37 44.26 16.37 4.2 56.99 4.2 56.99 4.2 56.99-0.01 52.72-0.01 52.72ZM 34.21 23.72C 34.21 23.72 41.45 16.37 41.45 16.37 41.45 16.37 40.05 14.95 40.05 14.95 40.05 14.95 32.81 22.29 32.81 22.29 32.81 22.29 34.21 23.72 34.21 23.72ZM 31.4 23.72C 31.4 23.72 2.8 52.72 2.8 52.72 2.8 52.72 4.2 54.14 4.2 54.14 4.2 54.14 32.8 25.14 32.8 25.14 32.8 25.14 31.4 23.72 31.4 23.72ZM 40.12 9.07C 39.57 9.07 39.13 8.62 39.13 8.06 39.13 8.06 39.13 1.01 39.13 1.01 39.13 0.45 39.57 0 40.12 0 40.67 0 41.11 0.45 41.11 1.01 41.11 1.01 41.11 8.06 41.11 8.06 41.11 8.62 40.67 9.07 40.12 9.07ZM 34.16 11.08C 33.91 11.08 33.65 10.98 33.46 10.79 33.46 10.79 28.54 5.8 28.54 5.8 28.16 5.41 28.16 4.77 28.54 4.38 28.93 3.98 29.56 3.98 29.95 4.38 29.95 4.38 34.86 9.36 34.86 9.36 35.25 9.76 35.25 10.39 34.86 10.79 34.67 10.98 34.42 11.08 34.16 11.08ZM 33.17 16.12C 33.17 16.67 32.72 17.12 32.18 17.12 32.18 17.12 25.23 17.12 25.23 17.12 24.68 17.12 24.23 16.67 24.23 16.12 24.23 15.56 24.68 15.11 25.23 15.11 25.23 15.11 32.18 15.11 32.18 15.11 32.72 15.11 33.17 15.56 33.17 16.12ZM 40.12 23.16C 40.67 23.16 41.11 23.61 41.11 24.17 41.11 24.17 41.11 31.22 41.11 31.22 41.11 31.77 40.67 32.23 40.12 32.23 39.57 32.23 39.13 31.77 39.13 31.22 39.13 31.22 39.13 24.17 39.13 24.17 39.13 23.61 39.57 23.16 40.12 23.16ZM 46.78 21.44C 46.78 21.44 51.69 26.43 51.69 26.43 52.08 26.82 52.08 27.46 51.69 27.85 51.5 28.05 51.25 28.15 50.99 28.15 50.74 28.15 50.48 28.05 50.29 27.85 50.29 27.85 45.37 22.87 45.37 22.87 44.99 22.47 44.99 21.84 45.37 21.44 45.76 21.05 46.39 21.05 46.78 21.44Z" fill="rgb(65,89,191)"/></svg>