<?xml version="1.0" encoding="utf-8"?>
<svg xmlns="http://www.w3.org/2000/svg"
	xmlns:xlink="http://www.w3.org/1999/xlink"
	width="49px" height="56px" viewBox="0 0 49 56">
<path fillRule="evenodd" d="M 43.49 55.29C 43.49 55.29 5.27 55.29 5.27 55.29 2.93 55.29 0.72 53.08 0.72 50.74 0.72 50.74 0.72 8.91 0.72 8.91 0.72 6.57 2.93 4.36 5.27 4.36 5.27 4.36 10.73 4.36 10.73 4.36 11.23 4.36 11.64 4.77 11.64 5.27 11.64 5.77 11.23 6.18 10.73 6.18 10.73 6.18 5.27 6.18 5.27 6.18 3.95 6.18 2.54 7.58 2.54 8.91 2.54 8.91 2.54 50.74 2.54 50.74 2.54 52.07 3.95 53.47 5.27 53.47 5.27 53.47 43.49 53.47 43.49 53.47 44.81 53.47 46.22 52.07 46.22 50.74 46.22 50.74 46.22 8.91 46.22 8.91 46.22 7.58 44.81 6.18 43.49 6.18 43.49 6.18 38.03 6.18 38.03 6.18 37.53 6.18 37.12 5.77 37.12 5.27 37.12 4.77 37.53 4.36 38.03 4.36 38.03 4.36 43.49 4.36 43.49 4.36 45.83 4.36 48.04 6.57 48.04 8.91 48.04 8.91 48.04 50.74 48.04 50.74 48.04 53.08 45.83 55.29 43.49 55.29ZM 39.21 37.37C 39.56 37.01 40.14 37.01 40.49 37.37 40.85 37.72 40.85 38.3 40.49 38.65 40.49 38.65 39.32 39.83 39.32 39.83 39.32 39.83 40.49 41 40.49 41 40.85 41.36 40.85 41.93 40.49 42.29 40.31 42.47 40.08 42.56 39.85 42.56 39.62 42.56 39.38 42.47 39.21 42.29 39.21 42.29 38.03 41.11 38.03 41.11 38.03 41.11 36.85 42.29 36.85 42.29 36.67 42.47 36.44 42.56 36.21 42.56 35.98 42.56 35.74 42.47 35.57 42.29 35.21 41.93 35.21 41.36 35.57 41 35.57 41 36.74 39.83 36.74 39.83 36.74 39.83 35.57 38.65 35.57 38.65 35.21 38.3 35.21 37.72 35.57 37.37 35.92 37.01 36.5 37.01 36.85 37.37 36.85 37.37 38.03 38.54 38.03 38.54 38.03 38.54 39.21 37.37 39.21 37.37ZM 34.39 20.73C 34.16 20.73 33.92 20.64 33.75 20.46 33.75 20.46 31.66 18.38 31.66 18.38 31.66 18.38 31.66 23.46 31.66 23.46 31.66 23.96 31.25 24.37 30.75 24.37 30.25 24.37 29.84 23.96 29.84 23.46 29.84 23.46 29.84 18.38 29.84 18.38 29.84 18.38 27.75 20.46 27.75 20.46 27.4 20.82 26.82 20.82 26.47 20.46 26.11 20.11 26.11 19.53 26.47 19.18 26.47 19.18 30.11 15.54 30.11 15.54 30.19 15.46 30.29 15.39 30.4 15.34 30.62 15.25 30.87 15.25 31.1 15.34 31.21 15.39 31.31 15.46 31.39 15.54 31.39 15.54 35.03 19.18 35.03 19.18 35.39 19.53 35.39 20.11 35.03 20.46 34.85 20.64 34.62 20.73 34.39 20.73ZM 34.39 11.64C 34.39 11.64 14.37 11.64 14.37 11.64 13.87 11.64 13.46 11.23 13.46 10.73 13.46 10.73 13.46 5.27 13.46 5.27 13.46 4.77 13.87 4.36 14.37 4.36 14.37 4.36 19.23 4.36 19.23 4.36 19.99 2.22 22.05 0.72 24.38 0.72 26.71 0.72 28.77 2.22 29.53 4.36 29.53 4.36 34.39 4.36 34.39 4.36 34.89 4.36 35.3 4.77 35.3 5.27 35.3 5.27 35.3 10.73 35.3 10.73 35.3 11.23 34.89 11.64 34.39 11.64ZM 33.48 6.18C 33.48 6.18 28.84 6.18 28.84 6.18 28.41 6.18 28.03 5.88 27.95 5.45 27.6 3.77 26.1 2.54 24.38 2.54 22.66 2.54 21.16 3.77 20.81 5.45 20.73 5.88 20.35 6.18 19.92 6.18 19.92 6.18 15.28 6.18 15.28 6.18 15.28 6.18 15.28 9.82 15.28 9.82 15.28 9.82 33.48 9.82 33.48 9.82 33.48 9.82 33.48 6.18 33.48 6.18ZM 24.38 4.36C 25.38 4.36 26.2 5.18 26.2 6.18 26.2 7.18 25.38 8 24.38 8 23.38 8 22.56 7.18 22.56 6.18 22.56 5.18 23.38 4.36 24.38 4.36ZM 8 28.92C 8 27.41 9.23 26.19 10.73 26.19 12.24 26.19 13.46 27.41 13.46 28.92 13.46 30.42 12.24 31.64 10.73 31.64 9.23 31.64 8 30.42 8 28.92ZM 11.64 28.92C 11.64 28.41 11.23 28.01 10.73 28.01 10.23 28.01 9.82 28.41 9.82 28.92 9.82 29.42 10.23 29.82 10.73 29.82 11.23 29.82 11.64 29.42 11.64 28.92ZM 21.92 43.2C 21.92 43.2 12.82 34.11 12.82 34.11 12.46 33.75 12.46 33.17 12.82 32.82 13.17 32.46 13.75 32.46 14.1 32.82 14.1 32.82 23.2 41.91 23.2 41.91 23.56 42.27 23.56 42.84 23.2 43.2 23.03 43.38 22.79 43.47 22.56 43.47 22.33 43.47 22.09 43.38 21.92 43.2ZM 16.19 29.82C 15.69 29.82 15.28 29.42 15.28 28.92 15.28 28.41 15.69 28.01 16.19 28.01 16.19 28.01 25.29 28.01 25.29 28.01 25.79 28.01 26.2 28.41 26.2 28.92 26.2 29.42 25.79 29.82 25.29 29.82 25.29 29.82 16.19 29.82 16.19 29.82ZM 30.75 26.19C 32.25 26.19 33.48 27.41 33.48 28.92 33.48 30.42 32.25 31.64 30.75 31.64 29.24 31.64 28.02 30.42 28.02 28.92 28.02 27.41 29.24 26.19 30.75 26.19ZM 30.75 29.82C 31.25 29.82 31.66 29.42 31.66 28.92 31.66 28.41 31.25 28.01 30.75 28.01 30.25 28.01 29.84 28.41 29.84 28.92 29.84 29.42 30.25 29.82 30.75 29.82ZM 25.29 49.83C 23.78 49.83 22.56 48.61 22.56 47.1 22.56 45.6 23.78 44.37 25.29 44.37 26.79 44.37 28.02 45.6 28.02 47.1 28.02 48.61 26.79 49.83 25.29 49.83ZM 25.29 46.19C 24.79 46.19 24.38 46.6 24.38 47.1 24.38 47.6 24.79 48.01 25.29 48.01 25.79 48.01 26.2 47.6 26.2 47.1 26.2 46.6 25.79 46.19 25.29 46.19ZM 15.55 17.36C 15.9 17 16.48 17 16.83 17.36 17.19 17.72 17.19 18.29 16.83 18.65 16.83 18.65 15.66 19.82 15.66 19.82 15.66 19.82 16.83 21 16.83 21 17.19 21.35 17.19 21.93 16.83 22.28 16.66 22.46 16.42 22.55 16.19 22.55 15.96 22.55 15.73 22.46 15.55 22.28 15.55 22.28 14.37 21.11 14.37 21.11 14.37 21.11 13.19 22.28 13.19 22.28 13.02 22.46 12.78 22.55 12.55 22.55 12.32 22.55 12.09 22.46 11.91 22.28 11.55 21.93 11.55 21.35 11.91 21 11.91 21 13.08 19.82 13.08 19.82 13.08 19.82 11.91 18.65 11.91 18.65 11.55 18.29 11.55 17.72 11.91 17.36 12.26 17 12.84 17 13.19 17.36 13.19 17.36 14.37 18.54 14.37 18.54 14.37 18.54 15.55 17.36 15.55 17.36Z" fill="rgb(71,93,193)"/></svg>