<?xml version="1.0" encoding="utf-8"?>
<svg xmlns="http://www.w3.org/2000/svg"
	xmlns:xlink="http://www.w3.org/1999/xlink"
	width="51px" height="40px" viewBox="0 0 51 40">
<path fillRule="evenodd" d="M 50.21 20.87C 50.21 20.87 3.09 20.87 3.09 20.87 3.09 20.87 21.18 38.7 21.18 38.7 21.49 39 21.49 39.49 21.18 39.78 21.03 39.93 20.83 40.01 20.63 40.01 20.44 40.01 20.24 39.93 20.09 39.78 20.09 39.78 0.68 20.65 0.68 20.65 0.53 20.52 0.44 20.32 0.44 20.11 0.44 20.02 0.47 19.94 0.49 19.87 0.5 19.85 0.5 19.83 0.5 19.82 0.53 19.76 0.57 19.72 0.6 19.67 0.63 19.64 0.64 19.6 0.67 19.57 0.67 19.57 20.09 0.44 20.09 0.44 20.39 0.15 20.88 0.15 21.18 0.44 21.49 0.74 21.49 1.22 21.18 1.52 21.18 1.52 3.09 19.35 3.09 19.35 3.09 19.35 50.21 19.35 50.21 19.35 50.64 19.35 50.99 19.69 50.99 20.11 50.99 20.53 50.64 20.87 50.21 20.87Z" fill="rgb(229,189,65)"/></svg>