<?xml version="1.0" encoding="utf-8"?>
<svg xmlns="http://www.w3.org/2000/svg"
	xmlns:xlink="http://www.w3.org/1999/xlink"
	width="21px" height="21px" viewBox="0 0 21 21">
<path fillRule="evenodd" d="M 19.52 11.57C 19.35 11.56 19.2 11.51 19.08 11.42 18.87 11.28 18.74 11.03 18.75 10.76 18.75 10.59 18.75 10.43 18.74 10.26 18.72 9.82 19.06 9.46 19.5 9.44 19.93 9.42 20.3 9.76 20.32 10.2 20.33 10.4 20.33 10.6 20.32 10.8 20.31 11.23 19.95 11.58 19.52 11.57ZM 19.33 8.49C 19.08 8.58 18.82 8.53 18.62 8.39 18.49 8.3 18.38 8.16 18.33 7.99 18.28 7.84 18.22 7.68 18.16 7.52 17.99 7.12 18.19 6.66 18.6 6.5 19 6.33 19.46 6.53 19.62 6.94 19.7 7.12 19.76 7.31 19.83 7.5 19.96 7.91 19.74 8.36 19.33 8.49ZM 17.37 4.78C 17.37 4.78 14.69 5.02 14.69 5.02 14.39 5.05 14.29 4.87 14.46 4.62 14.46 4.62 15.08 3.73 15.08 3.73 12.21 1.81 8.54 1.94 5.83 3.8 5.82 3.81 5.82 3.82 5.81 3.82 5.04 4.36 4.35 5.03 3.78 5.84 1.17 9.55 2.06 14.69 5.77 17.31 6.03 17.49 6.29 17.65 6.56 17.8 6.56 17.8 6.56 17.8 6.56 17.8 6.7 17.88 6.86 17.96 7.01 18.03 7.01 18.03 7.02 18.03 7.03 18.04 7.67 18.34 8.35 18.55 9.05 18.68 9.48 18.76 9.77 19.17 9.69 19.6 9.61 20.03 9.2 20.31 8.77 20.23 7.36 19.98 6.04 19.43 4.86 18.6 4.41 18.28 3.99 17.93 3.61 17.55 3.6 17.55 3.6 17.54 3.6 17.54 3.6 17.54 3.6 17.54 3.59 17.53 2.16 16.11 1.2 14.28 0.85 12.25 0.81 12.05 0.78 11.86 0.76 11.66 0.76 11.64 0.76 11.63 0.76 11.62 0.73 11.42 0.72 11.22 0.71 11.02 0.71 11.02 0.71 11.01 0.71 11 0.62 8.98 1.15 6.99 2.26 5.27 2.27 5.25 2.28 5.24 2.29 5.23 2.35 5.12 2.42 5.02 2.5 4.92 2.54 4.86 2.58 4.8 2.63 4.74 2.64 4.72 2.65 4.71 2.66 4.69 4.01 2.9 5.89 1.63 8.06 1.08 8.07 1.08 8.07 1.07 8.08 1.07 8.09 1.07 8.09 1.07 8.09 1.07 8.33 1.01 8.58 0.95 8.84 0.91 11.34 0.48 13.87 1.01 15.98 2.43 15.98 2.43 16.59 1.54 16.59 1.54 16.77 1.29 16.97 1.32 17.05 1.61 17.05 1.61 17.77 4.2 17.77 4.2 17.85 4.49 17.67 4.75 17.37 4.78ZM 12 18.67C 12.17 18.64 12.33 18.61 12.49 18.57 12.92 18.46 13.35 18.72 13.45 19.14 13.56 19.57 13.3 19.99 12.88 20.1 12.68 20.15 12.49 20.19 12.29 20.23 12.07 20.27 11.86 20.21 11.69 20.1 11.53 19.98 11.41 19.8 11.37 19.59 11.29 19.17 11.58 18.75 12 18.67ZM 15.5 14.28C 15.4 14.28 15.3 14.26 15.21 14.21 15.21 14.21 9.39 11.2 9.39 11.2 9.39 11.2 9.39 4.84 9.39 4.84 9.39 4.49 9.68 4.2 10.03 4.2 10.38 4.2 10.67 4.49 10.67 4.84 10.67 4.84 10.67 10.42 10.67 10.42 10.67 10.42 15.79 13.07 15.79 13.07 16.11 13.24 16.23 13.62 16.07 13.93 15.95 14.15 15.73 14.28 15.5 14.28ZM 14.63 17.71C 14.78 17.62 14.92 17.53 15.06 17.44 15.42 17.2 15.91 17.3 16.15 17.67 16.39 18.03 16.29 18.52 15.93 18.76 15.76 18.87 15.59 18.97 15.42 19.07 15.14 19.23 14.81 19.21 14.57 19.03 14.48 18.97 14.4 18.89 14.34 18.78 14.12 18.41 14.25 17.92 14.63 17.71ZM 17.1 15.52C 17.36 15.18 17.85 15.1 18.2 15.37 18.55 15.63 18.62 16.12 18.36 16.47 18.24 16.63 18.11 16.79 17.98 16.94 17.72 17.25 17.26 17.31 16.93 17.07 16.91 17.06 16.89 17.04 16.87 17.03 16.54 16.75 16.5 16.25 16.78 15.92 16.89 15.79 17 15.66 17.1 15.52ZM 18.21 13.51C 18.27 13.35 18.32 13.19 18.37 13.03 18.5 12.62 18.94 12.38 19.36 12.51 19.78 12.64 20.01 13.09 19.88 13.5 19.82 13.69 19.75 13.88 19.68 14.07 19.53 14.47 19.07 14.68 18.66 14.52 18.6 14.5 18.54 14.47 18.49 14.43 18.2 14.23 18.08 13.85 18.21 13.51Z" fill="rgb(255,255,255)"/></svg>